<svg width="1024" height="1024" viewBox="0 0 1024 1024" fill="none" xmlns="http://www.w3.org/2000/svg">
<g clip-path="url(#clip0_3740_1770)">
<g filter="url(#filter0_d_3740_1770)">
<rect x="202.445" y="775.588" width="619.586" height="212.71" rx="68.3289" fill="#FBCD5C"/>
<rect x="213.756" y="785.257" width="596.964" height="193.372" rx="54.6632" fill="#6B2BF5"/>
<rect x="237.635" y="810.637" width="545.437" height="141.403" rx="34.1645" fill="#FBCD5C"/>
<rect x="246.432" y="817.888" width="529.099" height="126.901" rx="27.3316" fill="#FFF9DE"/>
<rect x="246.432" y="817.888" width="529.099" height="126.901" rx="27.3316" fill="#FFF9DE"/>
<ellipse cx="280.992" cy="797.947" rx="9.42575" ry="9.06433" fill="url(#paint0_radial_3740_1770)"/>
<ellipse cx="240.773" cy="806.407" rx="9.42575" ry="9.06433" fill="url(#paint1_radial_3740_1770)"/>
<ellipse cx="225.695" cy="843.873" rx="9.42575" ry="9.06433" fill="url(#paint2_radial_3740_1770)"/>
<ellipse cx="225.695" cy="881.339" rx="9.42575" ry="9.06433" fill="url(#paint3_radial_3740_1770)"/>
<ellipse cx="225.695" cy="917.596" rx="9.42575" ry="9.06433" fill="url(#paint4_radial_3740_1770)"/>
<ellipse cx="240.773" cy="956.269" rx="9.42575" ry="9.06433" fill="url(#paint5_radial_3740_1770)"/>
<ellipse cx="321.209" cy="797.947" rx="9.42575" ry="9.06433" fill="url(#paint6_radial_3740_1770)"/>
<ellipse cx="401.641" cy="797.947" rx="9.42575" ry="9.06433" fill="url(#paint7_radial_3740_1770)"/>
<ellipse cx="482.078" cy="797.947" rx="9.42575" ry="9.06433" fill="url(#paint8_radial_3740_1770)"/>
<ellipse cx="522.293" cy="797.948" rx="9.42575" ry="9.06433" fill="url(#paint9_radial_3740_1770)"/>
<ellipse cx="562.51" cy="797.948" rx="9.42575" ry="9.06433" fill="url(#paint10_radial_3740_1770)"/>
<ellipse cx="602.727" cy="797.948" rx="9.42575" ry="9.06433" fill="url(#paint11_radial_3740_1770)"/>
<ellipse cx="642.945" cy="797.948" rx="9.42575" ry="9.06433" fill="url(#paint12_radial_3740_1770)"/>
<ellipse cx="683.156" cy="797.948" rx="9.42575" ry="9.06433" fill="url(#paint13_radial_3740_1770)"/>
<ellipse cx="722.117" cy="797.948" rx="9.42575" ry="9.06433" fill="url(#paint14_radial_3740_1770)"/>
<ellipse cx="761.076" cy="797.948" rx="9.42575" ry="9.06433" fill="url(#paint15_radial_3740_1770)"/>
<ellipse cx="789.984" cy="816.076" rx="9.42575" ry="9.06433" fill="url(#paint16_radial_3740_1770)"/>
<ellipse cx="797.523" cy="851.122" rx="9.42575" ry="9.06433" fill="url(#paint17_radial_3740_1770)"/>
<ellipse cx="797.523" cy="883.756" rx="9.42575" ry="9.06433" fill="url(#paint18_radial_3740_1770)"/>
<ellipse cx="797.523" cy="883.756" rx="9.42575" ry="9.06433" fill="url(#paint19_radial_3740_1770)"/>
<ellipse cx="797.523" cy="883.756" rx="9.42575" ry="9.06433" fill="url(#paint20_radial_3740_1770)"/>
<ellipse cx="797.523" cy="917.596" rx="9.42575" ry="9.06433" fill="url(#paint21_radial_3740_1770)"/>
<ellipse cx="761.076" cy="964.729" rx="9.42575" ry="9.06433" fill="url(#paint22_radial_3740_1770)"/>
<ellipse cx="722.117" cy="964.729" rx="9.42575" ry="9.06433" fill="url(#paint23_radial_3740_1770)"/>
<ellipse cx="787.469" cy="950.227" rx="9.42575" ry="9.06433" fill="url(#paint24_radial_3740_1770)"/>
<ellipse cx="441.859" cy="797.947" rx="9.42575" ry="9.06433" fill="url(#paint25_radial_3740_1770)"/>
<ellipse cx="361.428" cy="797.947" rx="9.42575" ry="9.06433" fill="url(#paint26_radial_3740_1770)"/>
<ellipse cx="280.992" cy="965.939" rx="9.42575" ry="9.06433" fill="url(#paint27_radial_3740_1770)"/>
<ellipse cx="321.209" cy="964.73" rx="9.42575" ry="9.06433" fill="url(#paint28_radial_3740_1770)"/>
<ellipse cx="361.428" cy="964.73" rx="9.42575" ry="9.06433" fill="url(#paint29_radial_3740_1770)"/>
<ellipse cx="401.641" cy="964.73" rx="9.42575" ry="9.06433" fill="url(#paint30_radial_3740_1770)"/>
<ellipse cx="441.859" cy="964.73" rx="9.42575" ry="9.06433" fill="url(#paint31_radial_3740_1770)"/>
<ellipse cx="482.078" cy="964.73" rx="9.42575" ry="9.06433" fill="url(#paint32_radial_3740_1770)"/>
<ellipse cx="522.291" cy="964.73" rx="9.42575" ry="9.06433" fill="url(#paint33_radial_3740_1770)"/>
<ellipse cx="562.51" cy="964.73" rx="9.42575" ry="9.06433" fill="url(#paint34_radial_3740_1770)"/>
<ellipse cx="602.727" cy="964.73" rx="9.42575" ry="9.06433" fill="url(#paint35_radial_3740_1770)"/>
<ellipse cx="683.158" cy="964.73" rx="9.42575" ry="9.06433" fill="url(#paint36_radial_3740_1770)"/>
<ellipse cx="642.945" cy="964.73" rx="9.42575" ry="9.06433" fill="url(#paint37_radial_3740_1770)"/>
<path d="M287.774 910.13C283.966 910.13 280.751 909.586 278.129 908.498C275.533 907.41 273.381 905.914 271.675 904.01C269.993 902.105 268.621 899.88 267.558 897.333C266.494 894.785 265.629 892.04 264.961 889.098C264.615 887.466 264.429 886.402 264.405 885.908C264.405 885.586 264.368 885.339 264.293 885.166C264.244 884.993 264.12 884.807 263.922 884.609C263.749 884.411 263.453 884.139 263.032 883.793C262.636 883.422 262.105 882.928 261.437 882.309C261.215 882.112 261.103 881.877 261.103 881.605C261.103 881.432 261.128 881.246 261.177 881.048C261.227 880.85 261.882 880.17 263.143 879.008C263.811 878.415 264.17 878.006 264.219 877.784C264.293 877.561 264.343 877.289 264.368 876.968C264.417 876.473 264.59 875.521 264.887 874.112C265.555 871.144 266.408 868.374 267.446 865.802C268.51 863.231 269.882 860.98 271.564 859.051C273.27 857.122 275.434 855.614 278.055 854.526C280.677 853.413 283.916 852.857 287.774 852.857C291.632 852.857 294.871 853.413 297.493 854.526C300.114 855.614 302.265 857.122 303.947 859.051C305.653 860.98 307.026 863.231 308.065 865.802C309.128 868.374 309.993 871.144 310.661 874.112C310.958 875.521 311.131 876.473 311.18 876.968C311.205 877.289 311.242 877.561 311.292 877.784C311.366 878.006 311.737 878.415 312.405 879.008L314.111 880.677C314.333 880.9 314.445 881.209 314.445 881.605C314.445 881.877 314.333 882.112 314.111 882.309C313.443 882.928 312.899 883.422 312.479 883.793C312.083 884.139 311.786 884.411 311.588 884.609C311.415 884.807 311.292 884.993 311.218 885.166C311.168 885.339 311.143 885.586 311.143 885.908C311.119 886.402 310.933 887.466 310.587 889.098C309.919 892.04 309.054 894.785 307.99 897.333C306.927 899.88 305.542 902.105 303.836 904.01C302.154 905.914 300.003 907.41 297.381 908.498C294.785 909.586 291.582 910.13 287.774 910.13ZM287.774 901.524C290.148 901.524 292.089 900.387 293.598 898.112C295.106 895.812 295.885 892.671 295.935 888.69C295.935 887.132 295.687 885.932 295.193 885.091C294.698 884.226 294.191 883.546 293.672 883.051C293.4 882.779 293.177 882.52 293.004 882.272C292.831 882.025 292.745 881.765 292.745 881.493C292.745 881.197 292.831 880.925 293.004 880.677C293.202 880.43 293.449 880.158 293.746 879.861C294.043 879.54 294.364 879.144 294.711 878.674C295.057 878.204 295.354 877.611 295.601 876.894C295.848 876.177 295.972 875.286 295.972 874.223C295.972 870.316 295.168 867.212 293.561 864.912C291.978 862.588 290.049 861.425 287.774 861.425C285.499 861.425 283.558 862.588 281.95 864.912C280.368 867.212 279.576 870.316 279.576 874.223C279.576 875.286 279.7 876.177 279.947 876.894C280.194 877.611 280.491 878.204 280.837 878.674C281.184 879.144 281.505 879.54 281.802 879.861C282.099 880.158 282.334 880.43 282.507 880.677C282.704 880.925 282.803 881.197 282.803 881.493C282.803 881.765 282.717 882.025 282.544 882.272C282.371 882.52 282.148 882.779 281.876 883.051C281.357 883.546 280.85 884.226 280.355 885.091C279.861 885.932 279.613 887.132 279.613 888.69C279.663 892.671 280.442 895.812 281.95 898.112C283.459 900.387 285.4 901.524 287.774 901.524ZM372.378 909.388H357.578C356.366 909.388 355.365 909.104 354.573 908.535C353.807 907.966 353.423 907.261 353.423 906.421C353.423 906 353.522 905.592 353.72 905.197C354.338 904.034 354.647 902.921 354.647 901.858C354.647 901.067 354.437 900.201 354.017 899.261L349.677 889.357C349.306 888.517 348.972 887.972 348.675 887.725C348.378 887.453 347.983 887.317 347.488 887.317H344.484C344.063 887.317 343.804 887.416 343.705 887.614C343.606 887.812 343.556 888.195 343.556 888.764V899.261C343.556 900.399 343.754 901.401 344.15 902.266C344.545 903.132 345.225 904.108 346.19 905.197C346.808 905.988 347.117 906.705 347.117 907.348C347.117 907.966 346.833 908.461 346.264 908.832C345.72 909.203 344.966 909.388 344.001 909.388H328.125C326.171 909.388 325.133 908.696 325.009 907.311C325.009 906.668 325.318 905.963 325.937 905.197C326.901 904.108 327.581 903.132 327.977 902.266C328.372 901.401 328.57 900.399 328.57 899.261V886.983C328.57 886.34 328.533 885.858 328.459 885.537C328.385 885.215 328.224 884.906 327.977 884.609C327.729 884.288 327.346 883.88 326.827 883.385L325.714 882.309C325.491 882.062 325.38 881.79 325.38 881.493C325.38 881.197 325.454 880.949 325.603 880.751C325.776 880.554 326.011 880.356 326.307 880.158C326.604 879.935 326.926 879.614 327.272 879.194C327.618 878.773 327.915 878.167 328.162 877.376C328.434 876.585 328.57 875.496 328.57 874.112V863.762C328.57 862.6 328.372 861.586 327.977 860.721C327.581 859.855 326.901 858.878 325.937 857.79C325.318 856.999 325.009 856.294 325.009 855.676C325.009 855.058 325.281 854.563 325.825 854.192C326.369 853.796 327.136 853.598 328.125 853.598H355.055C358.344 853.598 361.077 854.316 363.253 855.75C365.454 857.16 367.099 858.99 368.187 861.24C369.3 863.466 369.856 865.864 369.856 868.436C369.856 874.643 367.383 878.983 362.437 881.456C361.745 881.827 361.399 882.297 361.399 882.866C361.399 883.459 361.609 884.139 362.029 884.906L369.411 899.261C369.93 900.325 370.487 901.215 371.08 901.932C371.698 902.649 372.675 903.54 374.011 904.603C375.049 905.493 375.569 906.384 375.569 907.274C375.569 907.867 375.309 908.374 374.79 908.795C374.27 909.19 373.467 909.388 372.378 909.388ZM347.229 878.748C349.677 878.748 351.556 878.34 352.867 877.524C354.202 876.708 355.117 875.645 355.612 874.334C356.106 873.023 356.354 871.614 356.354 870.105C356.354 868.622 356.094 867.286 355.575 866.099C355.08 864.888 354.178 863.935 352.867 863.243C351.556 862.526 349.677 862.167 347.229 862.167C346.091 862.167 345.263 862.328 344.743 862.649C344.224 862.946 343.89 863.49 343.742 864.282C343.618 865.048 343.556 866.149 343.556 867.583V874.408C343.556 875.595 343.618 876.498 343.742 877.116C343.89 877.734 344.224 878.167 344.743 878.415C345.263 878.637 346.091 878.748 347.229 878.748ZM407.017 910.13C402.318 910.105 398.473 909.265 395.481 907.608C392.488 905.926 390.114 903.515 388.359 900.374C386.603 897.209 385.23 893.376 384.241 888.875C383.944 887.515 383.771 886.588 383.722 886.093C383.697 885.772 383.648 885.512 383.573 885.314C383.524 885.091 383.203 884.708 382.609 884.164C382.213 883.793 381.595 883.175 380.754 882.309C380.556 882.062 380.458 881.79 380.458 881.493C380.458 881.197 380.556 880.925 380.754 880.677C381.595 879.812 382.213 879.194 382.609 878.823C383.178 878.279 383.487 877.895 383.536 877.673C383.611 877.45 383.672 877.178 383.722 876.857C383.771 876.362 383.944 875.447 384.241 874.112C385.23 869.611 386.603 865.79 388.359 862.649C390.114 859.484 392.488 857.073 395.481 855.416C398.473 853.735 402.318 852.881 407.017 852.857C409.168 852.857 411.74 853.129 414.733 853.673C415.573 853.846 416.241 853.932 416.736 853.932C417.379 853.932 417.985 853.92 418.553 853.895C419.147 853.871 419.753 853.858 420.371 853.858C421.286 853.858 422.053 854.192 422.671 854.86C423.289 855.503 423.747 856.739 424.043 858.569C424.365 860.399 424.525 863.107 424.525 866.693C424.525 869.092 424.13 871.045 423.338 872.554C422.572 874.062 421.508 874.816 420.148 874.816C419.53 874.816 418.937 874.557 418.368 874.037C417.799 873.518 417.354 872.702 417.032 871.589C416.488 869.438 415.92 867.608 415.326 866.099C414.733 864.591 413.892 863.441 412.804 862.649C411.74 861.833 410.182 861.425 408.13 861.425C406.547 861.425 405.051 861.92 403.641 862.909C402.257 863.874 401.119 865.308 400.229 867.212C399.363 869.092 398.93 871.416 398.93 874.186C398.93 875.768 399.178 876.993 399.672 877.858C400.192 878.699 400.699 879.367 401.193 879.861C401.465 880.158 401.688 880.442 401.861 880.714C402.059 880.962 402.158 881.221 402.158 881.493C402.108 882.037 401.799 882.569 401.23 883.088C400.686 883.608 400.167 884.3 399.672 885.166C399.178 886.006 398.93 887.218 398.93 888.801C398.93 891.571 399.363 893.908 400.229 895.812C401.119 897.691 402.257 899.125 403.641 900.115C405.051 901.079 406.547 901.561 408.13 901.561C410.108 901.561 411.468 900.597 412.21 898.668C412.754 897.283 413.026 895.391 413.026 892.993V890.619C413.026 889.456 412.655 888.306 411.913 887.169C411.172 886.031 410.306 884.906 409.317 883.793C408.674 882.977 408.352 882.26 408.352 881.642C408.352 881.023 408.624 880.529 409.168 880.158C409.737 879.787 410.516 879.602 411.505 879.602H423.895C425.824 879.602 426.862 880.282 427.011 881.642C427.011 881.963 426.912 882.322 426.714 882.717C426.541 883.113 426.331 883.534 426.083 883.979C425.614 884.869 425.317 885.685 425.193 886.427C425.094 887.169 425.045 888.01 425.045 888.949V903.713C425.045 905.469 424.921 906.754 424.674 907.571C424.427 908.362 424.031 908.869 423.487 909.091C422.943 909.289 422.226 909.388 421.335 909.388C420.025 909.388 419.097 909.339 418.553 909.24C418.034 909.116 417.428 909.054 416.736 909.054C416.241 909.054 415.573 909.141 414.733 909.314C411.74 909.858 409.168 910.13 407.017 910.13ZM486.799 909.388H470.292C469.006 909.388 468.079 909.19 467.51 908.795C466.941 908.399 466.657 907.892 466.657 907.274C466.657 906.631 466.855 905.951 467.251 905.234C467.671 904.492 467.992 903.836 468.215 903.268C468.438 902.674 468.549 902.068 468.549 901.45C468.549 900.782 468.413 900.053 468.141 899.261L468.03 898.891C467.906 898.371 467.733 898.013 467.51 897.815C467.312 897.617 466.88 897.518 466.212 897.518C464.308 897.469 460.104 897.444 453.6 897.444C452.957 897.444 452.524 897.567 452.302 897.815C452.079 898.062 451.894 898.408 451.745 898.853C451.325 899.892 451.115 900.745 451.115 901.413C451.115 902.031 451.226 902.637 451.448 903.231C451.671 903.824 451.993 904.467 452.413 905.159C452.833 905.852 453.044 906.532 453.044 907.2C453.044 907.843 452.759 908.374 452.19 908.795C451.622 909.19 450.707 909.388 449.445 909.388H439.43C438.515 909.388 437.86 909.203 437.464 908.832C437.044 908.436 436.833 907.954 436.833 907.385C436.833 906.668 437.241 905.938 438.057 905.197C439.319 904.133 440.283 903.156 440.951 902.266C441.643 901.376 442.15 900.374 442.472 899.261L445.921 887.651C446.292 886.637 446.478 885.883 446.478 885.388C446.478 885.141 446.416 884.918 446.292 884.721C446.169 884.498 445.996 884.238 445.773 883.942C444.957 882.829 444.549 882.124 444.549 881.827C444.549 881.58 444.598 881.37 444.697 881.197C444.821 880.925 445.427 880.418 446.515 879.676C447.282 879.107 447.838 878.662 448.184 878.34C448.555 877.994 448.827 877.611 449 877.19C449.198 876.745 449.421 876.09 449.668 875.224L453.118 863.762C453.365 862.946 453.489 862.204 453.489 861.537C453.489 860.3 453.081 859.051 452.265 857.79C451.894 857.122 451.708 856.517 451.708 855.973C451.708 854.39 452.66 853.598 454.564 853.598H470.923C472.209 853.598 473.136 853.796 473.705 854.192C474.274 854.588 474.558 855.107 474.558 855.75C474.558 856.393 474.348 857.073 473.928 857.79C473.136 859.076 472.741 860.313 472.741 861.5C472.741 862.192 472.864 862.946 473.111 863.762L476.19 874.074C476.66 875.707 476.982 876.745 477.155 877.19C477.353 877.611 477.625 877.994 477.971 878.34C478.342 878.662 478.911 879.107 479.677 879.676L481.013 880.677C481.285 880.875 481.458 881.061 481.532 881.234C481.606 881.407 481.643 881.642 481.643 881.938C481.643 882.062 481.581 882.21 481.458 882.384C481.334 882.532 481.198 882.705 481.05 882.903C480.58 883.496 480.234 883.966 480.011 884.313C479.813 884.659 479.714 885.03 479.714 885.425C479.714 885.92 479.9 886.662 480.271 887.651L483.758 899.261C484.079 900.374 484.574 901.363 485.241 902.229C485.934 903.095 486.911 904.084 488.172 905.197C488.988 905.988 489.396 906.754 489.396 907.496C489.396 908.04 489.173 908.498 488.728 908.869C488.283 909.215 487.64 909.388 486.799 909.388ZM460.722 890.47L464.394 890.433C464.889 890.433 465.136 890.161 465.136 889.617C465.136 889.419 465.111 889.209 465.062 888.986L460.574 874.074C460.351 873.407 460.104 873.073 459.832 873.073C459.584 873.073 459.35 873.407 459.127 874.074L454.676 888.986C454.552 889.382 454.49 889.691 454.49 889.914C454.49 890.285 454.812 890.47 455.455 890.47H460.722ZM550.075 909.388H534.384C532.653 909.388 531.552 909.178 531.082 908.758C530.637 908.312 530.415 907.781 530.415 907.163C530.415 906.371 530.563 905.642 530.86 904.974C531.132 904.455 531.268 903.898 531.268 903.305C531.268 902.662 531.033 901.957 530.563 901.19L515.54 878.415C514.823 877.425 514.18 876.931 513.611 876.931C512.918 876.931 512.572 877.512 512.572 878.674V899.261C512.572 900.399 512.77 901.401 513.166 902.266C513.586 903.132 514.266 904.108 515.206 905.197C515.824 905.963 516.133 906.668 516.133 907.311C516.133 907.929 515.861 908.436 515.317 908.832C514.773 909.203 514.007 909.388 513.017 909.388H503.373C501.444 909.388 500.405 908.708 500.257 907.348C500.257 906.705 500.566 905.988 501.184 905.197C502.124 904.108 502.792 903.132 503.187 902.266C503.608 901.401 503.818 900.399 503.818 899.261V886.946C503.818 886.328 503.781 885.858 503.707 885.537C503.633 885.19 503.472 884.869 503.225 884.572C502.903 884.176 502.149 883.422 500.962 882.309C500.739 882.062 500.628 881.79 500.628 881.493C500.628 881.197 500.739 880.925 500.962 880.677L502.112 879.564C502.606 879.07 502.977 878.674 503.225 878.377C503.472 878.081 503.633 877.772 503.707 877.45C503.781 877.104 503.818 876.609 503.818 875.966V863.762C503.818 862.6 503.608 861.586 503.187 860.721C502.792 859.855 502.124 858.878 501.184 857.79C500.541 856.999 500.22 856.294 500.22 855.676C500.22 854.934 500.554 854.402 501.221 854.081C501.914 853.759 502.569 853.598 503.187 853.598H518.878C520.609 853.598 521.697 853.821 522.143 854.266C522.612 854.687 522.847 855.206 522.847 855.824C522.847 856.615 522.699 857.32 522.402 857.939C522.13 858.557 521.994 859.187 521.994 859.83C521.994 860.424 522.217 861.079 522.662 861.796L537.722 884.572C538.464 885.561 539.107 886.056 539.651 886.056C540.343 886.056 540.69 885.475 540.69 884.313V863.762C540.69 862.6 540.479 861.586 540.059 860.721C539.663 859.855 538.996 858.878 538.056 857.79C537.413 856.999 537.092 856.294 537.092 855.676C537.092 855.058 537.364 854.563 537.908 854.192C538.476 853.796 539.255 853.598 540.245 853.598H549.889C551.818 853.598 552.857 854.279 553.005 855.639C553.005 856.257 552.696 856.974 552.078 857.79C551.138 858.878 550.458 859.855 550.037 860.721C549.642 861.586 549.444 862.6 549.444 863.762V876.078C549.444 876.795 549.481 877.339 549.555 877.71C549.629 878.056 549.84 878.415 550.186 878.785C550.557 879.156 551.126 879.676 551.892 880.343L552.263 880.677C552.486 880.875 552.597 881.11 552.597 881.382C552.597 881.555 552.572 881.728 552.523 881.901C552.473 882.074 552.016 882.569 551.15 883.385C550.656 883.88 550.285 884.275 550.037 884.572C549.79 884.869 549.629 885.19 549.555 885.537C549.481 885.883 549.444 886.377 549.444 887.02V899.261C549.444 900.399 549.642 901.401 550.037 902.266C550.458 903.132 551.138 904.108 552.078 905.197C552.696 905.988 553.005 906.705 553.005 907.348C553.005 908.09 552.671 908.622 552.003 908.943C551.36 909.24 550.717 909.388 550.075 909.388ZM585.455 909.388H569.579C568.614 909.388 567.848 909.203 567.279 908.832C566.71 908.461 566.426 907.966 566.426 907.348C566.426 906.705 566.747 905.988 567.39 905.197C568.33 904.108 568.998 903.132 569.393 902.266C569.814 901.376 570.024 900.374 570.024 899.261V886.687C570.024 886.241 569.987 885.858 569.913 885.537C569.863 885.215 569.702 884.906 569.43 884.609C569.183 884.288 568.787 883.88 568.243 883.385L567.168 882.309C566.945 882.037 566.834 881.778 566.834 881.53C566.834 881.184 566.945 880.9 567.168 880.677L568.243 879.602C568.787 879.107 569.183 878.711 569.43 878.415C569.702 878.093 569.863 877.772 569.913 877.45C569.987 877.129 570.024 876.745 570.024 876.3V863.762C570.024 862.625 569.814 861.623 569.393 860.758C568.998 859.867 568.33 858.878 567.39 857.79C566.747 856.999 566.426 856.294 566.426 855.676C566.426 855.058 566.71 854.563 567.279 854.192C567.848 853.796 568.614 853.598 569.579 853.598H585.455C587.384 853.598 588.423 854.291 588.571 855.676C588.571 856.294 588.262 856.999 587.644 857.79C586.704 858.878 586.024 859.867 585.603 860.758C585.208 861.623 585.01 862.625 585.01 863.762V876.374C585.01 876.795 585.047 877.166 585.121 877.487C585.195 877.784 585.356 878.093 585.603 878.415C585.851 878.711 586.246 879.119 586.79 879.639L587.866 880.677C588.089 880.9 588.2 881.184 588.2 881.53C588.2 881.778 588.089 882.037 587.866 882.309C587.297 882.928 586.827 883.41 586.457 883.756C585.863 884.35 585.467 884.832 585.27 885.203C585.096 885.549 585.01 886.081 585.01 886.798V899.261C585.01 900.374 585.208 901.376 585.603 902.266C586.024 903.132 586.704 904.108 587.644 905.197C588.262 905.988 588.571 906.705 588.571 907.348C588.571 907.966 588.287 908.461 587.718 908.832C587.174 909.203 586.419 909.388 585.455 909.388ZM638.492 909.388H602.919C602.152 909.388 601.559 909.153 601.138 908.683C600.743 908.214 600.545 907.669 600.545 907.051C600.545 906.334 600.854 905.716 601.472 905.197C602.907 904.108 603.945 903.132 604.588 902.266C605.231 901.376 605.812 900.374 606.332 899.261C610.56 890.779 612.724 886.415 612.823 886.167C613.021 885.722 613.12 885.351 613.12 885.054C613.12 884.758 612.947 884.374 612.601 883.904C612.106 883.064 611.859 882.396 611.859 881.901C611.859 881.704 611.945 881.493 612.118 881.271C612.316 881.023 612.526 880.826 612.749 880.677L614.047 879.861C614.987 879.268 615.679 878.798 616.124 878.452C616.594 878.105 616.965 877.722 617.237 877.302C617.509 876.857 617.843 876.214 618.239 875.373L623.321 865.098C623.741 864.282 623.951 863.651 623.951 863.206C623.951 862.785 623.791 862.513 623.469 862.39C623.148 862.266 622.715 862.204 622.171 862.204H611.451C610.733 862.204 610.078 862.513 609.485 863.132C608.891 863.725 608.31 864.442 607.741 865.283C607.172 866.099 606.554 866.841 605.886 867.509C605.244 868.177 604.502 868.51 603.661 868.51C603.142 868.51 602.647 868.3 602.177 867.88C601.707 867.435 601.472 866.853 601.472 866.136C601.472 865.914 601.509 865.666 601.584 865.394C602.202 863.07 602.684 861.153 603.03 859.645C603.426 857.889 603.784 856.578 604.106 855.713C604.427 854.847 604.873 854.279 605.441 854.007C606.035 853.735 606.95 853.598 608.186 853.598H643.723C644.514 853.598 645.107 853.846 645.503 854.34C645.899 854.835 646.097 855.391 646.097 856.01C646.097 856.677 645.775 857.271 645.132 857.79C643.747 858.804 642.746 859.744 642.128 860.609C641.509 861.45 640.953 862.39 640.458 863.428L637.75 868.918C635.253 873.889 633.942 876.523 633.818 876.819C633.621 877.265 633.522 877.636 633.522 877.932C633.522 878.204 633.67 878.538 633.967 878.934C634.511 879.75 634.783 880.467 634.783 881.085C634.783 881.481 634.474 881.901 633.856 882.347C633.237 882.767 632.693 883.125 632.223 883.422C631.383 883.966 630.752 884.411 630.332 884.758C629.936 885.079 629.602 885.462 629.33 885.908C629.058 886.353 628.699 887.033 628.254 887.948L623.358 897.778C622.913 898.668 622.69 899.336 622.69 899.781C622.69 900.275 622.9 900.572 623.321 900.671C623.741 900.745 624.223 900.782 624.767 900.782H635.191C635.908 900.782 636.563 900.473 637.157 899.855C637.75 899.237 638.332 898.52 638.9 897.704C639.494 896.887 640.112 896.146 640.755 895.478C641.398 894.81 642.14 894.476 642.981 894.476C643.5 894.476 643.995 894.699 644.464 895.144C644.934 895.564 645.169 896.133 645.169 896.85C645.169 897.073 645.132 897.32 645.058 897.592C644.415 899.942 643.92 901.87 643.574 903.379C643.203 905.11 642.857 906.408 642.536 907.274C642.214 908.139 641.757 908.708 641.163 908.98C640.594 909.252 639.704 909.388 638.492 909.388ZM694.645 909.388H661.149C659.221 909.388 658.182 908.708 658.033 907.348C658.033 906.705 658.355 905.988 658.998 905.197C659.938 904.133 660.605 903.156 661.001 902.266C661.397 901.376 661.595 900.374 661.595 899.261V886.612C661.595 886.167 661.557 885.796 661.483 885.5C661.409 885.178 661.248 884.869 661.001 884.572C660.754 884.251 660.358 883.843 659.814 883.348L658.775 882.309C658.553 882.037 658.442 881.778 658.442 881.53C658.442 881.184 658.553 880.9 658.775 880.677L659.814 879.639C660.358 879.144 660.754 878.748 661.001 878.452C661.248 878.13 661.409 877.821 661.483 877.524C661.557 877.203 661.595 876.819 661.595 876.374V863.762C661.595 862.625 661.397 861.611 661.001 860.721C660.605 859.83 659.938 858.854 658.998 857.79C658.355 856.999 658.033 856.294 658.033 855.676C658.033 855.058 658.306 854.563 658.85 854.192C659.418 853.796 660.185 853.598 661.149 853.598H693.755C695.437 853.598 696.488 853.883 696.908 854.452C697.329 855.02 697.7 856.319 698.021 858.347C698.293 860.003 698.812 862.353 699.579 865.394C699.653 865.666 699.69 865.914 699.69 866.136C699.69 866.853 699.455 867.435 698.986 867.88C698.516 868.3 698.021 868.51 697.502 868.51C696.562 868.51 695.783 868.164 695.165 867.472C694.571 866.755 694.04 865.963 693.57 865.098C693.125 864.331 692.655 863.663 692.16 863.095C691.666 862.526 691.097 862.229 690.454 862.204H678.25C677.557 862.204 677.1 862.316 676.877 862.538C676.68 862.761 676.581 863.231 676.581 863.948V875.781C676.581 876.721 676.729 877.326 677.026 877.598C677.322 877.87 677.965 878.006 678.955 878.006H681.403C682.516 878.006 683.703 877.883 684.964 877.636C686.225 877.364 687.424 876.758 688.562 875.818C689.353 875.2 690.058 874.891 690.676 874.891C691.295 874.891 691.789 875.175 692.16 875.744C692.556 876.288 692.754 877.042 692.754 878.006V884.98C692.754 886.909 692.061 887.96 690.676 888.133C690.058 888.133 689.353 887.812 688.562 887.169C687.424 886.229 686.225 885.636 684.964 885.388C683.703 885.116 682.516 884.98 681.403 884.98H678.955C677.965 884.98 677.322 885.116 677.026 885.388C676.729 885.636 676.581 886.241 676.581 887.206V898.891C676.581 899.682 676.68 900.201 676.877 900.448C677.075 900.671 677.52 900.782 678.213 900.782H691.344C691.987 900.758 692.556 900.461 693.05 899.892C693.545 899.323 694.015 898.656 694.46 897.889C694.93 897.023 695.462 896.244 696.055 895.552C696.673 894.835 697.452 894.476 698.392 894.476C698.911 894.476 699.406 894.699 699.876 895.144C700.346 895.564 700.581 896.133 700.581 896.85C700.581 897.073 700.543 897.32 700.469 897.592C699.703 900.634 699.183 902.983 698.911 904.64C698.59 906.668 698.219 907.966 697.798 908.535C697.378 909.104 696.327 909.388 694.645 909.388ZM759.776 909.388H744.975C743.763 909.388 742.762 909.104 741.97 908.535C741.204 907.966 740.82 907.261 740.82 906.421C740.82 906 740.919 905.592 741.117 905.197C741.735 904.034 742.044 902.921 742.044 901.858C742.044 901.067 741.834 900.201 741.414 899.261L737.074 889.357C736.703 888.517 736.369 887.972 736.072 887.725C735.776 887.453 735.38 887.317 734.885 887.317H731.881C731.46 887.317 731.201 887.416 731.102 887.614C731.003 887.812 730.953 888.195 730.953 888.764V899.261C730.953 900.399 731.151 901.401 731.547 902.266C731.943 903.132 732.623 904.108 733.587 905.197C734.205 905.988 734.514 906.705 734.514 907.348C734.514 907.966 734.23 908.461 733.661 908.832C733.117 909.203 732.363 909.388 731.398 909.388H715.522C713.569 909.388 712.53 908.696 712.406 907.311C712.406 906.668 712.715 905.963 713.334 905.197C714.298 904.108 714.978 903.132 715.374 902.266C715.769 901.401 715.967 900.399 715.967 899.261V886.983C715.967 886.34 715.93 885.858 715.856 885.537C715.782 885.215 715.621 884.906 715.374 884.609C715.126 884.288 714.743 883.88 714.224 883.385L713.111 882.309C712.888 882.062 712.777 881.79 712.777 881.493C712.777 881.197 712.851 880.949 713 880.751C713.173 880.554 713.408 880.356 713.705 880.158C714.001 879.935 714.323 879.614 714.669 879.194C715.015 878.773 715.312 878.167 715.559 877.376C715.831 876.585 715.967 875.496 715.967 874.112V863.762C715.967 862.6 715.769 861.586 715.374 860.721C714.978 859.855 714.298 858.878 713.334 857.79C712.715 856.999 712.406 856.294 712.406 855.676C712.406 855.058 712.678 854.563 713.222 854.192C713.766 853.796 714.533 853.598 715.522 853.598H742.453C745.742 853.598 748.474 854.316 750.65 855.75C752.851 857.16 754.496 858.99 755.584 861.24C756.697 863.466 757.253 865.864 757.253 868.436C757.253 874.643 754.78 878.983 749.834 881.456C749.142 881.827 748.796 882.297 748.796 882.866C748.796 883.459 749.006 884.139 749.426 884.906L756.808 899.261C757.327 900.325 757.884 901.215 758.477 901.932C759.095 902.649 760.072 903.54 761.408 904.603C762.446 905.493 762.966 906.384 762.966 907.274C762.966 907.867 762.706 908.374 762.187 908.795C761.667 909.19 760.864 909.388 759.776 909.388ZM734.626 878.748C737.074 878.748 738.953 878.34 740.264 877.524C741.599 876.708 742.514 875.645 743.009 874.334C743.504 873.023 743.751 871.614 743.751 870.105C743.751 868.622 743.491 867.286 742.972 866.099C742.477 864.888 741.575 863.935 740.264 863.243C738.953 862.526 737.074 862.167 734.626 862.167C733.488 862.167 732.66 862.328 732.14 862.649C731.621 862.946 731.287 863.49 731.139 864.282C731.015 865.048 730.953 866.149 730.953 867.583V874.408C730.953 875.595 731.015 876.498 731.139 877.116C731.287 877.734 731.621 878.167 732.14 878.415C732.66 878.637 733.488 878.748 734.626 878.748Z" fill="#174662"/>
</g>
<g filter="url(#filter1_d_3740_1770)">
<path d="M1015.83 107.861L964.818 95.9819L977.252 163.124L1015.83 107.861Z" fill="#EFA1E6"/>
<path d="M883.287 66.7291L835.562 45.1436L834.684 113.421L883.287 66.7291Z" fill="#FFDB59"/>
<path d="M821.419 36.1149L777.066 8.24951L766.926 75.7758L821.419 36.1149Z" fill="#FF5F72"/>
<path d="M948.532 89.7082L898.664 73.6836L905.547 141.619L948.532 89.7082Z" fill="#72CFE4"/>
<path fill-rule="evenodd" clip-rule="evenodd" d="M974.298 99.3595C882.816 75.2141 800.483 34.2058 755.583 -8.84168L757.501 -10.6705C801.383 31.401 884.034 72.4492 974.975 96.4519C1065.89 120.447 1167.65 128.425 1248.99 104.194L1249.85 106.281C1167.05 130.947 1065.81 123.512 974.298 99.3595Z" fill="#2A6F97"/>
</g>
</g>
<defs>
<filter id="filter0_d_3740_1770" x="198.445" y="775.588" width="627.586" height="220.709" filterUnits="userSpaceOnUse" color-interpolation-filters="sRGB">
<feFlood flood-opacity="0" result="BackgroundImageFix"/>
<feColorMatrix in="SourceAlpha" type="matrix" values="0 0 0 0 0 0 0 0 0 0 0 0 0 0 0 0 0 0 127 0" result="hardAlpha"/>
<feOffset dy="4"/>
<feGaussianBlur stdDeviation="2"/>
<feComposite in2="hardAlpha" operator="out"/>
<feColorMatrix type="matrix" values="0 0 0 0 0 0 0 0 0 0 0 0 0 0 0 0 0 0 0.25 0"/>
<feBlend mode="normal" in2="BackgroundImageFix" result="effect1_dropShadow_3740_1770"/>
<feBlend mode="normal" in="SourceGraphic" in2="effect1_dropShadow_3740_1770" result="shape"/>
</filter>
<filter id="filter1_d_3740_1770" x="753.584" y="-11.6704" width="502.266" height="200.39" filterUnits="userSpaceOnUse" color-interpolation-filters="sRGB">
<feFlood flood-opacity="0" result="BackgroundImageFix"/>
<feColorMatrix in="SourceAlpha" type="matrix" values="0 0 0 0 0 0 0 0 0 0 0 0 0 0 0 0 0 0 127 0" result="hardAlpha"/>
<feOffset dx="2" dy="3"/>
<feGaussianBlur stdDeviation="2"/>
<feComposite in2="hardAlpha" operator="out"/>
<feColorMatrix type="matrix" values="0 0 0 0 0 0 0 0 0 0 0 0 0 0 0 0 0 0 0.25 0"/>
<feBlend mode="normal" in2="BackgroundImageFix" result="effect1_dropShadow_3740_1770"/>
<feBlend mode="normal" in="SourceGraphic" in2="effect1_dropShadow_3740_1770" result="shape"/>
</filter>
<radialGradient id="paint0_radial_3740_1770" cx="0" cy="0" r="1" gradientUnits="userSpaceOnUse" gradientTransform="translate(280.992 797.947) rotate(90) scale(9.06433 9.42575)">
<stop stop-color="#FFF9DE"/>
<stop offset="1" stop-color="#FBCD5C"/>
</radialGradient>
<radialGradient id="paint1_radial_3740_1770" cx="0" cy="0" r="1" gradientUnits="userSpaceOnUse" gradientTransform="translate(240.773 806.407) rotate(90) scale(9.06433 9.42575)">
<stop stop-color="#FFF9DE"/>
<stop offset="1" stop-color="#FBCD5C"/>
</radialGradient>
<radialGradient id="paint2_radial_3740_1770" cx="0" cy="0" r="1" gradientUnits="userSpaceOnUse" gradientTransform="translate(225.695 843.873) rotate(90) scale(9.06433 9.42575)">
<stop stop-color="#FFF9DE"/>
<stop offset="1" stop-color="#FBCD5C"/>
</radialGradient>
<radialGradient id="paint3_radial_3740_1770" cx="0" cy="0" r="1" gradientUnits="userSpaceOnUse" gradientTransform="translate(225.695 881.339) rotate(90) scale(9.06433 9.42575)">
<stop stop-color="#FFF9DE"/>
<stop offset="1" stop-color="#FBCD5C"/>
</radialGradient>
<radialGradient id="paint4_radial_3740_1770" cx="0" cy="0" r="1" gradientUnits="userSpaceOnUse" gradientTransform="translate(225.695 917.596) rotate(90) scale(9.06433 9.42575)">
<stop stop-color="#FFF9DE"/>
<stop offset="1" stop-color="#FBCD5C"/>
</radialGradient>
<radialGradient id="paint5_radial_3740_1770" cx="0" cy="0" r="1" gradientUnits="userSpaceOnUse" gradientTransform="translate(240.773 956.269) rotate(90) scale(9.06433 9.42575)">
<stop stop-color="#FFF9DE"/>
<stop offset="1" stop-color="#FBCD5C"/>
</radialGradient>
<radialGradient id="paint6_radial_3740_1770" cx="0" cy="0" r="1" gradientUnits="userSpaceOnUse" gradientTransform="translate(321.209 797.947) rotate(90) scale(9.06433 9.42575)">
<stop stop-color="#FFF9DE"/>
<stop offset="1" stop-color="#FBCD5C"/>
</radialGradient>
<radialGradient id="paint7_radial_3740_1770" cx="0" cy="0" r="1" gradientUnits="userSpaceOnUse" gradientTransform="translate(401.641 797.947) rotate(90) scale(9.06433 9.42575)">
<stop stop-color="#FFF9DE"/>
<stop offset="1" stop-color="#FBCD5C"/>
</radialGradient>
<radialGradient id="paint8_radial_3740_1770" cx="0" cy="0" r="1" gradientUnits="userSpaceOnUse" gradientTransform="translate(482.078 797.947) rotate(90) scale(9.06433 9.42575)">
<stop stop-color="#FFF9DE"/>
<stop offset="1" stop-color="#FBCD5C"/>
</radialGradient>
<radialGradient id="paint9_radial_3740_1770" cx="0" cy="0" r="1" gradientUnits="userSpaceOnUse" gradientTransform="translate(522.293 797.948) rotate(90) scale(9.06433 9.42575)">
<stop stop-color="#FFF9DE"/>
<stop offset="1" stop-color="#FBCD5C"/>
</radialGradient>
<radialGradient id="paint10_radial_3740_1770" cx="0" cy="0" r="1" gradientUnits="userSpaceOnUse" gradientTransform="translate(562.51 797.948) rotate(90) scale(9.06433 9.42575)">
<stop stop-color="#FFF9DE"/>
<stop offset="1" stop-color="#FBCD5C"/>
</radialGradient>
<radialGradient id="paint11_radial_3740_1770" cx="0" cy="0" r="1" gradientUnits="userSpaceOnUse" gradientTransform="translate(602.727 797.948) rotate(90) scale(9.06433 9.42575)">
<stop stop-color="#FFF9DE"/>
<stop offset="1" stop-color="#FBCD5C"/>
</radialGradient>
<radialGradient id="paint12_radial_3740_1770" cx="0" cy="0" r="1" gradientUnits="userSpaceOnUse" gradientTransform="translate(642.945 797.948) rotate(90) scale(9.06433 9.42575)">
<stop stop-color="#FFF9DE"/>
<stop offset="1" stop-color="#FBCD5C"/>
</radialGradient>
<radialGradient id="paint13_radial_3740_1770" cx="0" cy="0" r="1" gradientUnits="userSpaceOnUse" gradientTransform="translate(683.156 797.948) rotate(90) scale(9.06433 9.42575)">
<stop stop-color="#FFF9DE"/>
<stop offset="1" stop-color="#FBCD5C"/>
</radialGradient>
<radialGradient id="paint14_radial_3740_1770" cx="0" cy="0" r="1" gradientUnits="userSpaceOnUse" gradientTransform="translate(722.117 797.948) rotate(90) scale(9.06433 9.42575)">
<stop stop-color="#FFF9DE"/>
<stop offset="1" stop-color="#FBCD5C"/>
</radialGradient>
<radialGradient id="paint15_radial_3740_1770" cx="0" cy="0" r="1" gradientUnits="userSpaceOnUse" gradientTransform="translate(761.076 797.948) rotate(90) scale(9.06433 9.42575)">
<stop stop-color="#FFF9DE"/>
<stop offset="1" stop-color="#FBCD5C"/>
</radialGradient>
<radialGradient id="paint16_radial_3740_1770" cx="0" cy="0" r="1" gradientUnits="userSpaceOnUse" gradientTransform="translate(789.984 816.076) rotate(90) scale(9.06433 9.42575)">
<stop stop-color="#FFF9DE"/>
<stop offset="1" stop-color="#FBCD5C"/>
</radialGradient>
<radialGradient id="paint17_radial_3740_1770" cx="0" cy="0" r="1" gradientUnits="userSpaceOnUse" gradientTransform="translate(797.523 851.122) rotate(90) scale(9.06433 9.42575)">
<stop stop-color="#FFF9DE"/>
<stop offset="1" stop-color="#FBCD5C"/>
</radialGradient>
<radialGradient id="paint18_radial_3740_1770" cx="0" cy="0" r="1" gradientUnits="userSpaceOnUse" gradientTransform="translate(797.523 883.756) rotate(90) scale(9.06433 9.42575)">
<stop stop-color="#FFF9DE"/>
<stop offset="1" stop-color="#FBCD5C"/>
</radialGradient>
<radialGradient id="paint19_radial_3740_1770" cx="0" cy="0" r="1" gradientUnits="userSpaceOnUse" gradientTransform="translate(797.523 883.756) rotate(90) scale(9.06433 9.42575)">
<stop stop-color="#FFF9DE"/>
<stop offset="1" stop-color="#FBCD5C"/>
</radialGradient>
<radialGradient id="paint20_radial_3740_1770" cx="0" cy="0" r="1" gradientUnits="userSpaceOnUse" gradientTransform="translate(797.523 883.756) rotate(90) scale(9.06433 9.42575)">
<stop stop-color="#FFF9DE"/>
<stop offset="1" stop-color="#FBCD5C"/>
</radialGradient>
<radialGradient id="paint21_radial_3740_1770" cx="0" cy="0" r="1" gradientUnits="userSpaceOnUse" gradientTransform="translate(797.523 917.596) rotate(90) scale(9.06433 9.42575)">
<stop stop-color="#FFF9DE"/>
<stop offset="1" stop-color="#FBCD5C"/>
</radialGradient>
<radialGradient id="paint22_radial_3740_1770" cx="0" cy="0" r="1" gradientUnits="userSpaceOnUse" gradientTransform="translate(761.076 964.729) rotate(90) scale(9.06433 9.42575)">
<stop stop-color="#FFF9DE"/>
<stop offset="1" stop-color="#FBCD5C"/>
</radialGradient>
<radialGradient id="paint23_radial_3740_1770" cx="0" cy="0" r="1" gradientUnits="userSpaceOnUse" gradientTransform="translate(722.117 964.729) rotate(90) scale(9.06433 9.42575)">
<stop stop-color="#FFF9DE"/>
<stop offset="1" stop-color="#FBCD5C"/>
</radialGradient>
<radialGradient id="paint24_radial_3740_1770" cx="0" cy="0" r="1" gradientUnits="userSpaceOnUse" gradientTransform="translate(787.469 950.227) rotate(90) scale(9.06433 9.42575)">
<stop stop-color="#FFF9DE"/>
<stop offset="1" stop-color="#FBCD5C"/>
</radialGradient>
<radialGradient id="paint25_radial_3740_1770" cx="0" cy="0" r="1" gradientUnits="userSpaceOnUse" gradientTransform="translate(441.859 797.947) rotate(90) scale(9.06433 9.42575)">
<stop stop-color="#FFF9DE"/>
<stop offset="1" stop-color="#FBCD5C"/>
</radialGradient>
<radialGradient id="paint26_radial_3740_1770" cx="0" cy="0" r="1" gradientUnits="userSpaceOnUse" gradientTransform="translate(361.428 797.947) rotate(90) scale(9.06433 9.42575)">
<stop stop-color="#FFF9DE"/>
<stop offset="1" stop-color="#FBCD5C"/>
</radialGradient>
<radialGradient id="paint27_radial_3740_1770" cx="0" cy="0" r="1" gradientUnits="userSpaceOnUse" gradientTransform="translate(280.992 965.939) rotate(90) scale(9.06433 9.42575)">
<stop stop-color="#FFF9DE"/>
<stop offset="1" stop-color="#FBCD5C"/>
</radialGradient>
<radialGradient id="paint28_radial_3740_1770" cx="0" cy="0" r="1" gradientUnits="userSpaceOnUse" gradientTransform="translate(321.209 964.73) rotate(90) scale(9.06433 9.42575)">
<stop stop-color="#FFF9DE"/>
<stop offset="1" stop-color="#FBCD5C"/>
</radialGradient>
<radialGradient id="paint29_radial_3740_1770" cx="0" cy="0" r="1" gradientUnits="userSpaceOnUse" gradientTransform="translate(361.428 964.73) rotate(90) scale(9.06433 9.42575)">
<stop stop-color="#FFF9DE"/>
<stop offset="1" stop-color="#FBCD5C"/>
</radialGradient>
<radialGradient id="paint30_radial_3740_1770" cx="0" cy="0" r="1" gradientUnits="userSpaceOnUse" gradientTransform="translate(401.641 964.73) rotate(90) scale(9.06433 9.42575)">
<stop stop-color="#FFF9DE"/>
<stop offset="1" stop-color="#FBCD5C"/>
</radialGradient>
<radialGradient id="paint31_radial_3740_1770" cx="0" cy="0" r="1" gradientUnits="userSpaceOnUse" gradientTransform="translate(441.859 964.73) rotate(90) scale(9.06433 9.42575)">
<stop stop-color="#FFF9DE"/>
<stop offset="1" stop-color="#FBCD5C"/>
</radialGradient>
<radialGradient id="paint32_radial_3740_1770" cx="0" cy="0" r="1" gradientUnits="userSpaceOnUse" gradientTransform="translate(482.078 964.73) rotate(90) scale(9.06433 9.42575)">
<stop stop-color="#FFF9DE"/>
<stop offset="1" stop-color="#FBCD5C"/>
</radialGradient>
<radialGradient id="paint33_radial_3740_1770" cx="0" cy="0" r="1" gradientUnits="userSpaceOnUse" gradientTransform="translate(522.291 964.73) rotate(90) scale(9.06433 9.42575)">
<stop stop-color="#FFF9DE"/>
<stop offset="1" stop-color="#FBCD5C"/>
</radialGradient>
<radialGradient id="paint34_radial_3740_1770" cx="0" cy="0" r="1" gradientUnits="userSpaceOnUse" gradientTransform="translate(562.51 964.73) rotate(90) scale(9.06433 9.42575)">
<stop stop-color="#FFF9DE"/>
<stop offset="1" stop-color="#FBCD5C"/>
</radialGradient>
<radialGradient id="paint35_radial_3740_1770" cx="0" cy="0" r="1" gradientUnits="userSpaceOnUse" gradientTransform="translate(602.727 964.73) rotate(90) scale(9.06433 9.42575)">
<stop stop-color="#FFF9DE"/>
<stop offset="1" stop-color="#FBCD5C"/>
</radialGradient>
<radialGradient id="paint36_radial_3740_1770" cx="0" cy="0" r="1" gradientUnits="userSpaceOnUse" gradientTransform="translate(683.158 964.73) rotate(90) scale(9.06433 9.42575)">
<stop stop-color="#FFF9DE"/>
<stop offset="1" stop-color="#FBCD5C"/>
</radialGradient>
<radialGradient id="paint37_radial_3740_1770" cx="0" cy="0" r="1" gradientUnits="userSpaceOnUse" gradientTransform="translate(642.945 964.73) rotate(90) scale(9.06433 9.42575)">
<stop stop-color="#FFF9DE"/>
<stop offset="1" stop-color="#FBCD5C"/>
</radialGradient>
<clipPath id="clip0_3740_1770">
<rect width="1024" height="1024" fill="white"/>
</clipPath>
</defs>
</svg>
