<svg width="1024" height="1024" viewBox="0 0 1024 1024" fill="none" xmlns="http://www.w3.org/2000/svg">
<path d="M0 724H1024V1024H0V724Z" fill="url(#paint0_linear_953_48)" fill-opacity="0.87"/>
<path d="M273.344 943.44C276.245 948.475 281.792 950.992 289.984 950.992C298.176 950.992 303.68 948.517 306.496 943.568C309.397 938.619 310.848 930.341 310.848 918.736C310.848 907.045 309.355 898.555 306.368 893.264C303.467 887.973 298.005 885.328 289.984 885.328C281.963 885.328 276.459 887.973 273.472 893.264C270.485 898.555 268.992 907.003 268.992 918.608C268.992 930.128 270.443 938.405 273.344 943.44ZM317.632 952.656C312.427 959.824 303.211 963.408 289.984 963.408C276.757 963.408 267.499 959.824 262.208 952.656C256.917 945.403 254.272 934.053 254.272 918.608C254.272 903.163 256.917 891.685 262.208 884.176C267.584 876.667 276.843 872.912 289.984 872.912C303.125 872.912 312.341 876.667 317.632 884.176C322.923 891.6 325.568 903.077 325.568 918.608C325.568 934.139 322.923 945.488 317.632 952.656ZM364 930.768V962H349.792V874.32H383.072C402.869 874.32 412.768 883.621 412.768 902.224C412.768 914.683 407.989 923.131 398.432 927.568L412.896 962H397.28L384.608 930.768H364ZM398.176 902.352C398.176 891.856 393.141 886.608 383.072 886.608H364V918.48H383.328C388.448 918.48 392.203 917.029 394.592 914.128C396.981 911.141 398.176 907.216 398.176 902.352ZM472.309 928.464V915.92H497.269V960.464C494.965 961.061 490.272 961.701 483.189 962.384C476.192 963.067 471.114 963.408 467.957 963.408C454.645 963.408 445.472 959.739 440.437 952.4C435.402 945.061 432.885 933.584 432.885 917.968C432.885 902.267 435.445 890.832 440.565 883.664C445.77 876.496 454.73 872.912 467.445 872.912C474.954 872.912 483.402 873.765 492.789 875.472L497.269 876.368L496.757 887.632C486.432 886.267 477.173 885.584 468.981 885.584C460.789 885.584 455.157 887.888 452.085 892.496C449.098 897.104 447.605 905.637 447.605 918.096C447.605 930.555 449.013 939.173 451.829 943.952C454.73 948.645 460.533 950.992 469.237 950.992C475.466 950.992 480.117 950.608 483.189 949.84V928.464H472.309ZM515.225 962L536.857 874.32H565.145L586.905 962H572.569L567.833 943.184H534.169L529.433 962H515.225ZM547.865 886.224L536.985 930.64H565.017L554.265 886.224H547.865ZM607.082 962V874.32H631.914L658.538 949.456H660.458V874.32H674.666V962H650.346L623.082 886.736H621.29V962H607.082ZM702.512 962V874.32H716.72V962H702.512ZM739.831 886.736V874.32H797.431V888.016L756.727 947.152V949.584H797.431V962H739.831V948.432L780.407 889.296V886.736H739.831ZM820.622 962V874.32H875.918V886.736H834.83V911.568H868.238V923.856H834.83V949.456H875.918V962H820.622ZM913.26 930.768V962H899.052V874.32H932.332C952.129 874.32 962.028 883.621 962.028 902.224C962.028 914.683 957.249 923.131 947.692 927.568L962.156 962H946.54L933.868 930.768H913.26ZM947.436 902.352C947.436 891.856 942.401 886.608 932.332 886.608H913.26V918.48H932.588C937.708 918.48 941.463 917.029 943.852 914.128C946.241 911.141 947.436 907.216 947.436 902.352Z" fill="white"/>
<path d="M273.344 943.44L275.943 941.942H275.943L273.344 943.44ZM306.496 943.568L303.908 942.051L303.898 942.068L303.889 942.084L306.496 943.568ZM306.368 893.264L303.738 894.706L303.746 894.723L303.756 894.739L306.368 893.264ZM273.472 893.264L276.084 894.739L273.472 893.264ZM317.632 952.656L315.218 950.874L315.211 950.884L315.205 950.893L317.632 952.656ZM262.208 952.656L259.784 954.424L259.789 954.431L259.794 954.438L262.208 952.656ZM262.208 884.176L259.769 882.43L259.762 882.439L259.756 882.448L262.208 884.176ZM317.632 884.176L315.18 885.904L315.184 885.91L315.189 885.917L317.632 884.176ZM270.745 944.938C274.388 951.26 281.209 953.992 289.984 953.992V947.992C282.375 947.992 278.103 945.689 275.943 941.942L270.745 944.938ZM289.984 953.992C298.73 953.992 305.537 951.319 309.103 945.052L303.889 942.084C301.823 945.715 297.622 947.992 289.984 947.992V953.992ZM309.084 945.085C312.415 939.404 313.848 930.431 313.848 918.736H307.848C307.848 930.251 306.38 937.834 303.908 942.051L309.084 945.085ZM313.848 918.736C313.848 906.925 312.363 897.781 308.98 891.789L303.756 894.739C306.346 899.328 307.848 907.166 307.848 918.736H313.848ZM308.998 891.822C305.397 885.254 298.686 882.328 289.984 882.328V888.328C297.325 888.328 301.536 890.692 303.738 894.706L308.998 891.822ZM289.984 882.328C281.278 882.328 274.548 885.254 270.86 891.789L276.084 894.739C278.369 890.692 282.647 888.328 289.984 888.328V882.328ZM270.86 891.789C267.478 897.779 265.992 906.878 265.992 918.608H271.992C271.992 907.128 273.492 899.33 276.084 894.739L270.86 891.789ZM265.992 918.608C265.992 930.231 267.429 939.185 270.745 944.938L275.943 941.942C273.456 937.626 271.992 930.025 271.992 918.608H265.992ZM315.205 950.893C310.802 956.956 302.745 960.408 289.984 960.408V966.408C303.677 966.408 314.051 962.692 320.059 954.419L315.205 950.893ZM289.984 960.408C277.228 960.408 269.111 956.957 264.622 950.874L259.794 954.438C265.886 962.691 276.287 966.408 289.984 966.408V960.408ZM264.632 950.888C259.901 944.402 257.272 933.827 257.272 918.608H251.272C251.272 934.279 253.934 946.404 259.784 954.424L264.632 950.888ZM257.272 918.608C257.272 903.402 259.895 892.667 264.66 885.904L259.756 882.448C253.939 890.704 251.272 902.924 251.272 918.608H257.272ZM264.647 885.922C269.246 879.498 277.374 875.912 289.984 875.912V869.912C276.312 869.912 265.922 873.835 259.769 882.43L264.647 885.922ZM289.984 875.912C302.598 875.912 310.667 879.499 315.18 885.904L320.084 882.448C314.015 873.834 303.652 869.912 289.984 869.912V875.912ZM315.189 885.917C319.941 892.586 322.568 903.308 322.568 918.608H328.568C328.568 902.847 325.904 890.614 320.075 882.435L315.189 885.917ZM322.568 918.608C322.568 933.922 319.936 944.483 315.218 950.874L320.046 954.438C325.909 946.493 328.568 934.355 328.568 918.608H322.568ZM364 930.768V927.768H361V930.768H364ZM364 962V965H367V962H364ZM349.792 962H346.792V965H349.792V962ZM349.792 874.32V871.32H346.792V874.32H349.792ZM398.432 927.568L397.169 924.847L394.546 926.064L395.666 928.73L398.432 927.568ZM412.896 962V965H417.41L415.662 960.838L412.896 962ZM397.28 962L394.5 963.128L395.26 965H397.28V962ZM384.608 930.768L387.388 929.64L386.628 927.768H384.608V930.768ZM364 886.608V883.608H361V886.608H364ZM364 918.48H361V921.48H364V918.48ZM394.592 914.128L396.908 916.035L396.921 916.019L396.935 916.002L394.592 914.128ZM361 930.768V962H367V930.768H361ZM364 959H349.792V965H364V959ZM352.792 962V874.32H346.792V962H352.792ZM349.792 877.32H383.072V871.32H349.792V877.32ZM383.072 877.32C392.553 877.32 399.106 879.551 403.29 883.482C407.438 887.381 409.768 893.435 409.768 902.224H415.768C415.768 892.411 413.148 884.513 407.398 879.11C401.684 873.74 393.388 871.32 383.072 871.32V877.32ZM409.768 902.224C409.768 908.079 408.645 912.764 406.573 916.427C404.519 920.059 401.43 922.868 397.169 924.847L399.695 930.289C404.991 927.83 409.071 924.197 411.795 919.381C414.502 914.596 415.768 908.827 415.768 902.224H409.768ZM395.666 928.73L410.13 963.162L415.662 960.838L401.198 926.406L395.666 928.73ZM412.896 959H397.28V965H412.896V959ZM400.06 960.872L387.388 929.64L381.828 931.896L394.5 963.128L400.06 960.872ZM384.608 927.768H364V933.768H384.608V927.768ZM401.176 902.352C401.176 896.672 399.816 891.856 396.565 888.467C393.292 885.055 388.602 883.608 383.072 883.608V889.608C387.612 889.608 390.473 890.785 392.235 892.621C394.019 894.48 395.176 897.536 395.176 902.352H401.176ZM383.072 883.608H364V889.608H383.072V883.608ZM361 886.608V918.48H367V886.608H361ZM364 921.48H383.328V915.48H364V921.48ZM383.328 921.48C389.001 921.48 393.761 919.856 396.908 916.035L392.276 912.221C390.644 914.203 387.895 915.48 383.328 915.48V921.48ZM396.935 916.002C399.854 912.353 401.176 907.709 401.176 902.352H395.176C395.176 906.723 394.109 909.93 392.249 912.254L396.935 916.002ZM472.309 928.464H469.309V931.464H472.309V928.464ZM472.309 915.92V912.92H469.309V915.92H472.309ZM497.269 915.92H500.269V912.92H497.269V915.92ZM497.269 960.464L498.022 963.368L500.269 962.785V960.464H497.269ZM483.189 962.384L482.901 959.398L482.898 959.398L483.189 962.384ZM440.437 952.4L437.963 954.097L440.437 952.4ZM440.565 883.664L438.138 881.901L438.131 881.911L438.124 881.92L440.565 883.664ZM492.789 875.472L493.377 872.53L493.352 872.525L493.326 872.52L492.789 875.472ZM497.269 876.368L500.266 876.504L500.383 873.931L497.857 873.426L497.269 876.368ZM496.757 887.632L496.364 890.606L499.605 891.035L499.754 887.768L496.757 887.632ZM452.085 892.496L449.589 890.832L449.578 890.848L449.568 890.864L452.085 892.496ZM451.829 943.952L449.244 945.475L449.261 945.502L449.277 945.529L451.829 943.952ZM483.189 949.84L483.917 952.75L486.189 952.182V949.84H483.189ZM483.189 928.464H486.189V925.464H483.189V928.464ZM475.309 928.464V915.92H469.309V928.464H475.309ZM472.309 918.92H497.269V912.92H472.309V918.92ZM494.269 915.92V960.464H500.269V915.92H494.269ZM496.516 957.56C494.479 958.088 490.023 958.711 482.901 959.398L483.477 965.37C490.52 964.691 495.451 964.035 498.022 963.368L496.516 957.56ZM482.898 959.398C475.909 960.08 470.957 960.408 467.957 960.408V966.408C471.272 966.408 476.474 966.053 483.48 965.37L482.898 959.398ZM467.957 960.408C455.117 960.408 447.146 956.877 442.911 950.703L437.963 954.097C443.797 962.601 454.173 966.408 467.957 966.408V960.408ZM442.911 950.703C438.392 944.116 435.885 933.381 435.885 917.968H429.885C429.885 933.787 432.413 946.007 437.963 954.097L442.911 950.703ZM435.885 917.968C435.885 902.462 438.438 891.803 443.006 885.408L438.124 881.92C432.452 889.861 429.885 902.071 429.885 917.968H435.885ZM442.992 885.427C447.415 879.336 455.247 875.912 467.445 875.912V869.912C454.213 869.912 444.125 873.656 438.138 881.901L442.992 885.427ZM467.445 875.912C474.734 875.912 482.998 876.741 492.252 878.424L493.326 872.52C483.807 870.79 475.175 869.912 467.445 869.912V875.912ZM492.201 878.414L496.681 879.31L497.857 873.426L493.377 872.53L492.201 878.414ZM494.272 876.232L493.76 887.496L499.754 887.768L500.266 876.504L494.272 876.232ZM497.15 884.658C486.728 883.28 477.334 882.584 468.981 882.584V888.584C477.012 888.584 486.136 889.254 496.364 890.606L497.15 884.658ZM468.981 882.584C460.298 882.584 453.451 885.038 449.589 890.832L454.581 894.16C456.863 890.738 461.28 888.584 468.981 888.584V882.584ZM449.568 890.864C447.765 893.645 446.55 897.375 445.77 901.835C444.984 906.328 444.605 911.762 444.605 918.096H450.605C450.605 911.972 450.973 906.909 451.68 902.869C452.393 898.796 453.418 895.955 454.602 894.128L449.568 890.864ZM444.605 918.096C444.605 930.576 445.979 939.934 449.244 945.475L454.414 942.429C452.047 938.413 450.605 930.533 450.605 918.096H444.605ZM449.277 945.529C452.99 951.536 460.124 953.992 469.237 953.992V947.992C460.942 947.992 456.47 945.755 454.381 942.375L449.277 945.529ZM469.237 953.992C475.524 953.992 480.475 953.611 483.917 952.75L482.461 946.93C479.759 947.605 475.409 947.992 469.237 947.992V953.992ZM486.189 949.84V928.464H480.189V949.84H486.189ZM483.189 925.464H472.309V931.464H483.189V925.464ZM515.225 962L512.312 961.281L511.395 965H515.225V962ZM536.857 874.32V871.32H534.507L533.944 873.601L536.857 874.32ZM565.145 874.32L568.057 873.597L567.491 871.32H565.145V874.32ZM586.905 962V965H590.741L589.817 961.277L586.905 962ZM572.569 962L569.66 962.732L570.231 965H572.569V962ZM567.833 943.184L570.742 942.452L570.171 940.184H567.833V943.184ZM534.169 943.184V940.184H531.831L531.26 942.452L534.169 943.184ZM529.433 962V965H531.771L532.342 962.732L529.433 962ZM547.865 886.224V883.224H545.511L544.951 885.51L547.865 886.224ZM536.985 930.64L534.071 929.926L533.161 933.64H536.985V930.64ZM565.017 930.64V933.64H568.83L567.933 929.934L565.017 930.64ZM554.265 886.224L557.181 885.518L556.625 883.224H554.265V886.224ZM518.138 962.719L539.77 875.039L533.944 873.601L512.312 961.281L518.138 962.719ZM536.857 877.32H565.145V871.32H536.857V877.32ZM562.233 875.043L583.993 962.723L589.817 961.277L568.057 873.597L562.233 875.043ZM586.905 959H572.569V965H586.905V959ZM575.478 961.268L570.742 942.452L564.924 943.916L569.66 962.732L575.478 961.268ZM567.833 940.184H534.169V946.184H567.833V940.184ZM531.26 942.452L526.524 961.268L532.342 962.732L537.078 943.916L531.26 942.452ZM529.433 959H515.225V965H529.433V959ZM544.951 885.51L534.071 929.926L539.899 931.354L550.779 886.938L544.951 885.51ZM536.985 933.64H565.017V927.64H536.985V933.64ZM567.933 929.934L557.181 885.518L551.349 886.93L562.101 931.346L567.933 929.934ZM554.265 883.224H547.865V889.224H554.265V883.224ZM607.082 962H604.082V965H607.082V962ZM607.082 874.32V871.32H604.082V874.32H607.082ZM631.914 874.32L634.742 873.318L634.034 871.32H631.914V874.32ZM658.538 949.456L655.71 950.458L656.418 952.456H658.538V949.456ZM660.458 949.456V952.456H663.458V949.456H660.458ZM660.458 874.32V871.32H657.458V874.32H660.458ZM674.666 874.32H677.666V871.32H674.666V874.32ZM674.666 962V965H677.666V962H674.666ZM650.346 962L647.525 963.022L648.242 965H650.346V962ZM623.082 886.736L625.903 885.714L625.186 883.736H623.082V886.736ZM621.29 886.736V883.736H618.29V886.736H621.29ZM621.29 962V965H624.29V962H621.29ZM610.082 962V874.32H604.082V962H610.082ZM607.082 877.32H631.914V871.32H607.082V877.32ZM629.086 875.322L655.71 950.458L661.366 948.454L634.742 873.318L629.086 875.322ZM658.538 952.456H660.458V946.456H658.538V952.456ZM663.458 949.456V874.32H657.458V949.456H663.458ZM660.458 877.32H674.666V871.32H660.458V877.32ZM671.666 874.32V962H677.666V874.32H671.666ZM674.666 959H650.346V965H674.666V959ZM653.167 960.978L625.903 885.714L620.261 887.758L647.525 963.022L653.167 960.978ZM623.082 883.736H621.29V889.736H623.082V883.736ZM618.29 886.736V962H624.29V886.736H618.29ZM621.29 959H607.082V965H621.29V959ZM702.512 962H699.512V965H702.512V962ZM702.512 874.32V871.32H699.512V874.32H702.512ZM716.72 874.32H719.72V871.32H716.72V874.32ZM716.72 962V965H719.72V962H716.72ZM705.512 962V874.32H699.512V962H705.512ZM702.512 877.32H716.72V871.32H702.512V877.32ZM713.72 874.32V962H719.72V874.32H713.72ZM716.72 959H702.512V965H716.72V959ZM739.831 886.736H736.831V889.736H739.831V886.736ZM739.831 874.32V871.32H736.831V874.32H739.831ZM797.431 874.32H800.431V871.32H797.431V874.32ZM797.431 888.016L799.902 889.717L800.431 888.949V888.016H797.431ZM756.727 947.152L754.256 945.451L753.727 946.219V947.152H756.727ZM756.727 949.584H753.727V952.584H756.727V949.584ZM797.431 949.584H800.431V946.584H797.431V949.584ZM797.431 962V965H800.431V962H797.431ZM739.831 962H736.831V965H739.831V962ZM739.831 948.432L737.357 946.735L736.831 947.502V948.432H739.831ZM780.407 889.296L782.881 890.993L783.407 890.226V889.296H780.407ZM780.407 886.736H783.407V883.736H780.407V886.736ZM742.831 886.736V874.32H736.831V886.736H742.831ZM739.831 877.32H797.431V871.32H739.831V877.32ZM794.431 874.32V888.016H800.431V874.32H794.431ZM794.96 886.315L754.256 945.451L759.198 948.853L799.902 889.717L794.96 886.315ZM753.727 947.152V949.584H759.727V947.152H753.727ZM756.727 952.584H797.431V946.584H756.727V952.584ZM794.431 949.584V962H800.431V949.584H794.431ZM797.431 959H739.831V965H797.431V959ZM742.831 962V948.432H736.831V962H742.831ZM742.305 950.129L782.881 890.993L777.933 887.599L737.357 946.735L742.305 950.129ZM783.407 889.296V886.736H777.407V889.296H783.407ZM780.407 883.736H739.831V889.736H780.407V883.736ZM820.622 962H817.622V965H820.622V962ZM820.622 874.32V871.32H817.622V874.32H820.622ZM875.918 874.32H878.918V871.32H875.918V874.32ZM875.918 886.736V889.736H878.918V886.736H875.918ZM834.83 886.736V883.736H831.83V886.736H834.83ZM834.83 911.568H831.83V914.568H834.83V911.568ZM868.238 911.568H871.238V908.568H868.238V911.568ZM868.238 923.856V926.856H871.238V923.856H868.238ZM834.83 923.856V920.856H831.83V923.856H834.83ZM834.83 949.456H831.83V952.456H834.83V949.456ZM875.918 949.456H878.918V946.456H875.918V949.456ZM875.918 962V965H878.918V962H875.918ZM823.622 962V874.32H817.622V962H823.622ZM820.622 877.32H875.918V871.32H820.622V877.32ZM872.918 874.32V886.736H878.918V874.32H872.918ZM875.918 883.736H834.83V889.736H875.918V883.736ZM831.83 886.736V911.568H837.83V886.736H831.83ZM834.83 914.568H868.238V908.568H834.83V914.568ZM865.238 911.568V923.856H871.238V911.568H865.238ZM868.238 920.856H834.83V926.856H868.238V920.856ZM831.83 923.856V949.456H837.83V923.856H831.83ZM834.83 952.456H875.918V946.456H834.83V952.456ZM872.918 949.456V962H878.918V949.456H872.918ZM875.918 959H820.622V965H875.918V959ZM913.26 930.768V927.768H910.26V930.768H913.26ZM913.26 962V965H916.26V962H913.26ZM899.052 962H896.052V965H899.052V962ZM899.052 874.32V871.32H896.052V874.32H899.052ZM947.692 927.568L946.429 924.847L943.806 926.064L944.926 928.73L947.692 927.568ZM962.156 962V965H966.67L964.922 960.838L962.156 962ZM946.54 962L943.76 963.128L944.52 965H946.54V962ZM933.868 930.768L936.648 929.64L935.888 927.768H933.868V930.768ZM913.26 886.608V883.608H910.26V886.608H913.26ZM913.26 918.48H910.26V921.48H913.26V918.48ZM943.852 914.128L946.168 916.035L946.181 916.019L946.195 916.002L943.852 914.128ZM910.26 930.768V962H916.26V930.768H910.26ZM913.26 959H899.052V965H913.26V959ZM902.052 962V874.32H896.052V962H902.052ZM899.052 877.32H932.332V871.32H899.052V877.32ZM932.332 877.32C941.813 877.32 948.366 879.551 952.55 883.482C956.698 887.381 959.028 893.435 959.028 902.224H965.028C965.028 892.411 962.408 884.513 956.658 879.11C950.944 873.74 942.648 871.32 932.332 871.32V877.32ZM959.028 902.224C959.028 908.079 957.905 912.764 955.833 916.427C953.779 920.059 950.69 922.868 946.429 924.847L948.955 930.289C954.251 927.83 958.331 924.197 961.055 919.381C963.762 914.596 965.028 908.827 965.028 902.224H959.028ZM944.926 928.73L959.39 963.162L964.922 960.838L950.458 926.406L944.926 928.73ZM962.156 959H946.54V965H962.156V959ZM949.32 960.872L936.648 929.64L931.088 931.896L943.76 963.128L949.32 960.872ZM933.868 927.768H913.26V933.768H933.868V927.768ZM950.436 902.352C950.436 896.672 949.076 891.856 945.825 888.467C942.552 885.055 937.862 883.608 932.332 883.608V889.608C936.872 889.608 939.733 890.785 941.495 892.621C943.279 894.48 944.436 897.536 944.436 902.352H950.436ZM932.332 883.608H913.26V889.608H932.332V883.608ZM910.26 886.608V918.48H916.26V886.608H910.26ZM913.26 921.48H932.588V915.48H913.26V921.48ZM932.588 921.48C938.261 921.48 943.021 919.856 946.168 916.035L941.536 912.221C939.904 914.203 937.155 915.48 932.588 915.48V921.48ZM946.195 916.002C949.114 912.353 950.436 907.709 950.436 902.352H944.436C944.436 906.723 943.369 909.93 941.509 912.254L946.195 916.002Z" fill="#33C2FF"/>
<path d="M279.344 943.44C282.245 948.475 287.792 950.992 295.984 950.992C304.176 950.992 309.68 948.517 312.496 943.568C315.397 938.619 316.848 930.341 316.848 918.736C316.848 907.045 315.355 898.555 312.368 893.264C309.467 887.973 304.005 885.328 295.984 885.328C287.963 885.328 282.459 887.973 279.472 893.264C276.485 898.555 274.992 907.003 274.992 918.608C274.992 930.128 276.443 938.405 279.344 943.44ZM323.632 952.656C318.427 959.824 309.211 963.408 295.984 963.408C282.757 963.408 273.499 959.824 268.208 952.656C262.917 945.403 260.272 934.053 260.272 918.608C260.272 903.163 262.917 891.685 268.208 884.176C273.584 876.667 282.843 872.912 295.984 872.912C309.125 872.912 318.341 876.667 323.632 884.176C328.923 891.6 331.568 903.077 331.568 918.608C331.568 934.139 328.923 945.488 323.632 952.656ZM370 930.768V962H355.792V874.32H389.072C408.869 874.32 418.768 883.621 418.768 902.224C418.768 914.683 413.989 923.131 404.432 927.568L418.896 962H403.28L390.608 930.768H370ZM404.176 902.352C404.176 891.856 399.141 886.608 389.072 886.608H370V918.48H389.328C394.448 918.48 398.203 917.029 400.592 914.128C402.981 911.141 404.176 907.216 404.176 902.352ZM478.309 928.464V915.92H503.269V960.464C500.965 961.061 496.272 961.701 489.189 962.384C482.192 963.067 477.114 963.408 473.957 963.408C460.645 963.408 451.472 959.739 446.437 952.4C441.402 945.061 438.885 933.584 438.885 917.968C438.885 902.267 441.445 890.832 446.565 883.664C451.77 876.496 460.73 872.912 473.445 872.912C480.954 872.912 489.402 873.765 498.789 875.472L503.269 876.368L502.757 887.632C492.432 886.267 483.173 885.584 474.981 885.584C466.789 885.584 461.157 887.888 458.085 892.496C455.098 897.104 453.605 905.637 453.605 918.096C453.605 930.555 455.013 939.173 457.829 943.952C460.73 948.645 466.533 950.992 475.237 950.992C481.466 950.992 486.117 950.608 489.189 949.84V928.464H478.309ZM521.225 962L542.857 874.32H571.145L592.905 962H578.569L573.833 943.184H540.169L535.433 962H521.225ZM553.865 886.224L542.985 930.64H571.017L560.265 886.224H553.865ZM613.082 962V874.32H637.914L664.538 949.456H666.458V874.32H680.666V962H656.346L629.082 886.736H627.29V962H613.082ZM708.512 962V874.32H722.72V962H708.512ZM745.831 886.736V874.32H803.431V888.016L762.727 947.152V949.584H803.431V962H745.831V948.432L786.407 889.296V886.736H745.831ZM826.622 962V874.32H881.918V886.736H840.83V911.568H874.238V923.856H840.83V949.456H881.918V962H826.622ZM919.26 930.768V962H905.052V874.32H938.332C958.129 874.32 968.028 883.621 968.028 902.224C968.028 914.683 963.249 923.131 953.692 927.568L968.156 962H952.54L939.868 930.768H919.26ZM953.436 902.352C953.436 891.856 948.401 886.608 938.332 886.608H919.26V918.48H938.588C943.708 918.48 947.463 917.029 949.852 914.128C952.241 911.141 953.436 907.216 953.436 902.352Z" fill="white"/>
<path d="M279.344 943.44L281.943 941.942H281.943L279.344 943.44ZM312.496 943.568L309.908 942.051L309.898 942.068L309.889 942.084L312.496 943.568ZM312.368 893.264L309.738 894.706L309.746 894.723L309.756 894.739L312.368 893.264ZM279.472 893.264L282.084 894.739L279.472 893.264ZM323.632 952.656L321.218 950.874L321.211 950.884L321.205 950.893L323.632 952.656ZM268.208 952.656L265.784 954.424L265.789 954.431L265.794 954.438L268.208 952.656ZM268.208 884.176L265.769 882.43L265.762 882.439L265.756 882.448L268.208 884.176ZM323.632 884.176L321.18 885.904L321.184 885.91L321.189 885.917L323.632 884.176ZM276.745 944.938C280.388 951.26 287.209 953.992 295.984 953.992V947.992C288.375 947.992 284.103 945.689 281.943 941.942L276.745 944.938ZM295.984 953.992C304.73 953.992 311.537 951.319 315.103 945.052L309.889 942.084C307.823 945.715 303.622 947.992 295.984 947.992V953.992ZM315.084 945.085C318.415 939.404 319.848 930.431 319.848 918.736H313.848C313.848 930.251 312.38 937.834 309.908 942.051L315.084 945.085ZM319.848 918.736C319.848 906.925 318.363 897.781 314.98 891.789L309.756 894.739C312.346 899.328 313.848 907.166 313.848 918.736H319.848ZM314.998 891.822C311.397 885.254 304.686 882.328 295.984 882.328V888.328C303.325 888.328 307.536 890.692 309.738 894.706L314.998 891.822ZM295.984 882.328C287.278 882.328 280.548 885.254 276.86 891.789L282.084 894.739C284.369 890.692 288.647 888.328 295.984 888.328V882.328ZM276.86 891.789C273.478 897.779 271.992 906.878 271.992 918.608H277.992C277.992 907.128 279.492 899.33 282.084 894.739L276.86 891.789ZM271.992 918.608C271.992 930.231 273.429 939.185 276.745 944.938L281.943 941.942C279.456 937.626 277.992 930.025 277.992 918.608H271.992ZM321.205 950.893C316.802 956.956 308.745 960.408 295.984 960.408V966.408C309.677 966.408 320.051 962.692 326.059 954.419L321.205 950.893ZM295.984 960.408C283.228 960.408 275.111 956.957 270.622 950.874L265.794 954.438C271.886 962.691 282.287 966.408 295.984 966.408V960.408ZM270.632 950.888C265.901 944.402 263.272 933.827 263.272 918.608H257.272C257.272 934.279 259.934 946.404 265.784 954.424L270.632 950.888ZM263.272 918.608C263.272 903.402 265.895 892.667 270.66 885.904L265.756 882.448C259.939 890.704 257.272 902.924 257.272 918.608H263.272ZM270.647 885.922C275.246 879.498 283.374 875.912 295.984 875.912V869.912C282.312 869.912 271.922 873.835 265.769 882.43L270.647 885.922ZM295.984 875.912C308.598 875.912 316.667 879.499 321.18 885.904L326.084 882.448C320.015 873.834 309.652 869.912 295.984 869.912V875.912ZM321.189 885.917C325.941 892.586 328.568 903.308 328.568 918.608H334.568C334.568 902.847 331.904 890.614 326.075 882.435L321.189 885.917ZM328.568 918.608C328.568 933.922 325.936 944.483 321.218 950.874L326.046 954.438C331.909 946.493 334.568 934.355 334.568 918.608H328.568ZM370 930.768V927.768H367V930.768H370ZM370 962V965H373V962H370ZM355.792 962H352.792V965H355.792V962ZM355.792 874.32V871.32H352.792V874.32H355.792ZM404.432 927.568L403.169 924.847L400.546 926.064L401.666 928.73L404.432 927.568ZM418.896 962V965H423.41L421.662 960.838L418.896 962ZM403.28 962L400.5 963.128L401.26 965H403.28V962ZM390.608 930.768L393.388 929.64L392.628 927.768H390.608V930.768ZM370 886.608V883.608H367V886.608H370ZM370 918.48H367V921.48H370V918.48ZM400.592 914.128L402.908 916.035L402.921 916.019L402.935 916.002L400.592 914.128ZM367 930.768V962H373V930.768H367ZM370 959H355.792V965H370V959ZM358.792 962V874.32H352.792V962H358.792ZM355.792 877.32H389.072V871.32H355.792V877.32ZM389.072 877.32C398.553 877.32 405.106 879.551 409.29 883.482C413.438 887.381 415.768 893.435 415.768 902.224H421.768C421.768 892.411 419.148 884.513 413.398 879.11C407.684 873.74 399.388 871.32 389.072 871.32V877.32ZM415.768 902.224C415.768 908.079 414.645 912.764 412.573 916.427C410.519 920.059 407.43 922.868 403.169 924.847L405.695 930.289C410.991 927.83 415.071 924.197 417.795 919.381C420.502 914.596 421.768 908.827 421.768 902.224H415.768ZM401.666 928.73L416.13 963.162L421.662 960.838L407.198 926.406L401.666 928.73ZM418.896 959H403.28V965H418.896V959ZM406.06 960.872L393.388 929.64L387.828 931.896L400.5 963.128L406.06 960.872ZM390.608 927.768H370V933.768H390.608V927.768ZM407.176 902.352C407.176 896.672 405.816 891.856 402.565 888.467C399.292 885.055 394.602 883.608 389.072 883.608V889.608C393.612 889.608 396.473 890.785 398.235 892.621C400.019 894.48 401.176 897.536 401.176 902.352H407.176ZM389.072 883.608H370V889.608H389.072V883.608ZM367 886.608V918.48H373V886.608H367ZM370 921.48H389.328V915.48H370V921.48ZM389.328 921.48C395.001 921.48 399.761 919.856 402.908 916.035L398.276 912.221C396.644 914.203 393.895 915.48 389.328 915.48V921.48ZM402.935 916.002C405.854 912.353 407.176 907.709 407.176 902.352H401.176C401.176 906.723 400.109 909.93 398.249 912.254L402.935 916.002ZM478.309 928.464H475.309V931.464H478.309V928.464ZM478.309 915.92V912.92H475.309V915.92H478.309ZM503.269 915.92H506.269V912.92H503.269V915.92ZM503.269 960.464L504.022 963.368L506.269 962.785V960.464H503.269ZM489.189 962.384L488.901 959.398L488.898 959.398L489.189 962.384ZM446.437 952.4L443.963 954.097L446.437 952.4ZM446.565 883.664L444.138 881.901L444.131 881.911L444.124 881.92L446.565 883.664ZM498.789 875.472L499.377 872.53L499.352 872.525L499.326 872.52L498.789 875.472ZM503.269 876.368L506.266 876.504L506.383 873.931L503.857 873.426L503.269 876.368ZM502.757 887.632L502.364 890.606L505.605 891.035L505.754 887.768L502.757 887.632ZM458.085 892.496L455.589 890.832L455.578 890.848L455.568 890.864L458.085 892.496ZM457.829 943.952L455.244 945.475L455.261 945.502L455.277 945.529L457.829 943.952ZM489.189 949.84L489.917 952.75L492.189 952.182V949.84H489.189ZM489.189 928.464H492.189V925.464H489.189V928.464ZM481.309 928.464V915.92H475.309V928.464H481.309ZM478.309 918.92H503.269V912.92H478.309V918.92ZM500.269 915.92V960.464H506.269V915.92H500.269ZM502.516 957.56C500.479 958.088 496.023 958.711 488.901 959.398L489.477 965.37C496.52 964.691 501.451 964.035 504.022 963.368L502.516 957.56ZM488.898 959.398C481.909 960.08 476.957 960.408 473.957 960.408V966.408C477.272 966.408 482.474 966.053 489.48 965.37L488.898 959.398ZM473.957 960.408C461.117 960.408 453.146 956.877 448.911 950.703L443.963 954.097C449.797 962.601 460.173 966.408 473.957 966.408V960.408ZM448.911 950.703C444.392 944.116 441.885 933.381 441.885 917.968H435.885C435.885 933.787 438.413 946.007 443.963 954.097L448.911 950.703ZM441.885 917.968C441.885 902.462 444.438 891.803 449.006 885.408L444.124 881.92C438.452 889.861 435.885 902.071 435.885 917.968H441.885ZM448.992 885.427C453.415 879.336 461.247 875.912 473.445 875.912V869.912C460.213 869.912 450.125 873.656 444.138 881.901L448.992 885.427ZM473.445 875.912C480.734 875.912 488.998 876.741 498.252 878.424L499.326 872.52C489.807 870.79 481.175 869.912 473.445 869.912V875.912ZM498.201 878.414L502.681 879.31L503.857 873.426L499.377 872.53L498.201 878.414ZM500.272 876.232L499.76 887.496L505.754 887.768L506.266 876.504L500.272 876.232ZM503.15 884.658C492.728 883.28 483.334 882.584 474.981 882.584V888.584C483.012 888.584 492.136 889.254 502.364 890.606L503.15 884.658ZM474.981 882.584C466.298 882.584 459.451 885.038 455.589 890.832L460.581 894.16C462.863 890.738 467.28 888.584 474.981 888.584V882.584ZM455.568 890.864C453.765 893.645 452.55 897.375 451.77 901.835C450.984 906.328 450.605 911.762 450.605 918.096H456.605C456.605 911.972 456.973 906.909 457.68 902.869C458.393 898.796 459.418 895.955 460.602 894.128L455.568 890.864ZM450.605 918.096C450.605 930.576 451.979 939.934 455.244 945.475L460.414 942.429C458.047 938.413 456.605 930.533 456.605 918.096H450.605ZM455.277 945.529C458.99 951.536 466.124 953.992 475.237 953.992V947.992C466.942 947.992 462.47 945.755 460.381 942.375L455.277 945.529ZM475.237 953.992C481.524 953.992 486.475 953.611 489.917 952.75L488.461 946.93C485.759 947.605 481.409 947.992 475.237 947.992V953.992ZM492.189 949.84V928.464H486.189V949.84H492.189ZM489.189 925.464H478.309V931.464H489.189V925.464ZM521.225 962L518.312 961.281L517.395 965H521.225V962ZM542.857 874.32V871.32H540.507L539.944 873.601L542.857 874.32ZM571.145 874.32L574.057 873.597L573.491 871.32H571.145V874.32ZM592.905 962V965H596.741L595.817 961.277L592.905 962ZM578.569 962L575.66 962.732L576.231 965H578.569V962ZM573.833 943.184L576.742 942.452L576.171 940.184H573.833V943.184ZM540.169 943.184V940.184H537.831L537.26 942.452L540.169 943.184ZM535.433 962V965H537.771L538.342 962.732L535.433 962ZM553.865 886.224V883.224H551.511L550.951 885.51L553.865 886.224ZM542.985 930.64L540.071 929.926L539.161 933.64H542.985V930.64ZM571.017 930.64V933.64H574.83L573.933 929.934L571.017 930.64ZM560.265 886.224L563.181 885.518L562.625 883.224H560.265V886.224ZM524.138 962.719L545.77 875.039L539.944 873.601L518.312 961.281L524.138 962.719ZM542.857 877.32H571.145V871.32H542.857V877.32ZM568.233 875.043L589.993 962.723L595.817 961.277L574.057 873.597L568.233 875.043ZM592.905 959H578.569V965H592.905V959ZM581.478 961.268L576.742 942.452L570.924 943.916L575.66 962.732L581.478 961.268ZM573.833 940.184H540.169V946.184H573.833V940.184ZM537.26 942.452L532.524 961.268L538.342 962.732L543.078 943.916L537.26 942.452ZM535.433 959H521.225V965H535.433V959ZM550.951 885.51L540.071 929.926L545.899 931.354L556.779 886.938L550.951 885.51ZM542.985 933.64H571.017V927.64H542.985V933.64ZM573.933 929.934L563.181 885.518L557.349 886.93L568.101 931.346L573.933 929.934ZM560.265 883.224H553.865V889.224H560.265V883.224ZM613.082 962H610.082V965H613.082V962ZM613.082 874.32V871.32H610.082V874.32H613.082ZM637.914 874.32L640.742 873.318L640.034 871.32H637.914V874.32ZM664.538 949.456L661.71 950.458L662.418 952.456H664.538V949.456ZM666.458 949.456V952.456H669.458V949.456H666.458ZM666.458 874.32V871.32H663.458V874.32H666.458ZM680.666 874.32H683.666V871.32H680.666V874.32ZM680.666 962V965H683.666V962H680.666ZM656.346 962L653.525 963.022L654.242 965H656.346V962ZM629.082 886.736L631.903 885.714L631.186 883.736H629.082V886.736ZM627.29 886.736V883.736H624.29V886.736H627.29ZM627.29 962V965H630.29V962H627.29ZM616.082 962V874.32H610.082V962H616.082ZM613.082 877.32H637.914V871.32H613.082V877.32ZM635.086 875.322L661.71 950.458L667.366 948.454L640.742 873.318L635.086 875.322ZM664.538 952.456H666.458V946.456H664.538V952.456ZM669.458 949.456V874.32H663.458V949.456H669.458ZM666.458 877.32H680.666V871.32H666.458V877.32ZM677.666 874.32V962H683.666V874.32H677.666ZM680.666 959H656.346V965H680.666V959ZM659.167 960.978L631.903 885.714L626.261 887.758L653.525 963.022L659.167 960.978ZM629.082 883.736H627.29V889.736H629.082V883.736ZM624.29 886.736V962H630.29V886.736H624.29ZM627.29 959H613.082V965H627.29V959ZM708.512 962H705.512V965H708.512V962ZM708.512 874.32V871.32H705.512V874.32H708.512ZM722.72 874.32H725.72V871.32H722.72V874.32ZM722.72 962V965H725.72V962H722.72ZM711.512 962V874.32H705.512V962H711.512ZM708.512 877.32H722.72V871.32H708.512V877.32ZM719.72 874.32V962H725.72V874.32H719.72ZM722.72 959H708.512V965H722.72V959ZM745.831 886.736H742.831V889.736H745.831V886.736ZM745.831 874.32V871.32H742.831V874.32H745.831ZM803.431 874.32H806.431V871.32H803.431V874.32ZM803.431 888.016L805.902 889.717L806.431 888.949V888.016H803.431ZM762.727 947.152L760.256 945.451L759.727 946.219V947.152H762.727ZM762.727 949.584H759.727V952.584H762.727V949.584ZM803.431 949.584H806.431V946.584H803.431V949.584ZM803.431 962V965H806.431V962H803.431ZM745.831 962H742.831V965H745.831V962ZM745.831 948.432L743.357 946.735L742.831 947.502V948.432H745.831ZM786.407 889.296L788.881 890.993L789.407 890.226V889.296H786.407ZM786.407 886.736H789.407V883.736H786.407V886.736ZM748.831 886.736V874.32H742.831V886.736H748.831ZM745.831 877.32H803.431V871.32H745.831V877.32ZM800.431 874.32V888.016H806.431V874.32H800.431ZM800.96 886.315L760.256 945.451L765.198 948.853L805.902 889.717L800.96 886.315ZM759.727 947.152V949.584H765.727V947.152H759.727ZM762.727 952.584H803.431V946.584H762.727V952.584ZM800.431 949.584V962H806.431V949.584H800.431ZM803.431 959H745.831V965H803.431V959ZM748.831 962V948.432H742.831V962H748.831ZM748.305 950.129L788.881 890.993L783.933 887.599L743.357 946.735L748.305 950.129ZM789.407 889.296V886.736H783.407V889.296H789.407ZM786.407 883.736H745.831V889.736H786.407V883.736ZM826.622 962H823.622V965H826.622V962ZM826.622 874.32V871.32H823.622V874.32H826.622ZM881.918 874.32H884.918V871.32H881.918V874.32ZM881.918 886.736V889.736H884.918V886.736H881.918ZM840.83 886.736V883.736H837.83V886.736H840.83ZM840.83 911.568H837.83V914.568H840.83V911.568ZM874.238 911.568H877.238V908.568H874.238V911.568ZM874.238 923.856V926.856H877.238V923.856H874.238ZM840.83 923.856V920.856H837.83V923.856H840.83ZM840.83 949.456H837.83V952.456H840.83V949.456ZM881.918 949.456H884.918V946.456H881.918V949.456ZM881.918 962V965H884.918V962H881.918ZM829.622 962V874.32H823.622V962H829.622ZM826.622 877.32H881.918V871.32H826.622V877.32ZM878.918 874.32V886.736H884.918V874.32H878.918ZM881.918 883.736H840.83V889.736H881.918V883.736ZM837.83 886.736V911.568H843.83V886.736H837.83ZM840.83 914.568H874.238V908.568H840.83V914.568ZM871.238 911.568V923.856H877.238V911.568H871.238ZM874.238 920.856H840.83V926.856H874.238V920.856ZM837.83 923.856V949.456H843.83V923.856H837.83ZM840.83 952.456H881.918V946.456H840.83V952.456ZM878.918 949.456V962H884.918V949.456H878.918ZM881.918 959H826.622V965H881.918V959ZM919.26 930.768V927.768H916.26V930.768H919.26ZM919.26 962V965H922.26V962H919.26ZM905.052 962H902.052V965H905.052V962ZM905.052 874.32V871.32H902.052V874.32H905.052ZM953.692 927.568L952.429 924.847L949.806 926.064L950.926 928.73L953.692 927.568ZM968.156 962V965H972.67L970.922 960.838L968.156 962ZM952.54 962L949.76 963.128L950.52 965H952.54V962ZM939.868 930.768L942.648 929.64L941.888 927.768H939.868V930.768ZM919.26 886.608V883.608H916.26V886.608H919.26ZM919.26 918.48H916.26V921.48H919.26V918.48ZM949.852 914.128L952.168 916.035L952.181 916.019L952.195 916.002L949.852 914.128ZM916.26 930.768V962H922.26V930.768H916.26ZM919.26 959H905.052V965H919.26V959ZM908.052 962V874.32H902.052V962H908.052ZM905.052 877.32H938.332V871.32H905.052V877.32ZM938.332 877.32C947.813 877.32 954.366 879.551 958.55 883.482C962.698 887.381 965.028 893.435 965.028 902.224H971.028C971.028 892.411 968.408 884.513 962.658 879.11C956.944 873.74 948.648 871.32 938.332 871.32V877.32ZM965.028 902.224C965.028 908.079 963.905 912.764 961.833 916.427C959.779 920.059 956.69 922.868 952.429 924.847L954.955 930.289C960.251 927.83 964.331 924.197 967.055 919.381C969.762 914.596 971.028 908.827 971.028 902.224H965.028ZM950.926 928.73L965.39 963.162L970.922 960.838L956.458 926.406L950.926 928.73ZM968.156 959H952.54V965H968.156V959ZM955.32 960.872L942.648 929.64L937.088 931.896L949.76 963.128L955.32 960.872ZM939.868 927.768H919.26V933.768H939.868V927.768ZM956.436 902.352C956.436 896.672 955.076 891.856 951.825 888.467C948.552 885.055 943.862 883.608 938.332 883.608V889.608C942.872 889.608 945.733 890.785 947.495 892.621C949.279 894.48 950.436 897.536 950.436 902.352H956.436ZM938.332 883.608H919.26V889.608H938.332V883.608ZM916.26 886.608V918.48H922.26V886.608H916.26ZM919.26 921.48H938.588V915.48H919.26V921.48ZM938.588 921.48C944.261 921.48 949.021 919.856 952.168 916.035L947.536 912.221C945.904 914.203 943.155 915.48 938.588 915.48V921.48ZM952.195 916.002C955.114 912.353 956.436 907.709 956.436 902.352H950.436C950.436 906.723 949.369 909.93 947.509 912.254L952.195 916.002Z" fill="#FF00D6"/>
<path fill-rule="evenodd" clip-rule="evenodd" d="M101.064 837.647C101.001 837.747 99.9726 838.374 98.7776 839.04L96.604 840.252L96.4717 841.134C96.399 841.62 96.3901 842.58 96.4528 843.269C96.515 843.958 96.6209 848.011 96.6881 852.275C96.8463 862.303 96.5224 861.656 100.468 859.821L102.942 858.67L102.944 857.461C102.952 852.799 102.466 837.92 102.298 837.713C102.066 837.424 101.229 837.379 101.064 837.647ZM100.829 840.993C100.889 841.403 100.998 845.246 101.071 849.533L101.202 857.328L100.054 857.836C99.4218 858.115 98.8836 858.32 98.8577 858.291C98.8323 858.263 98.7547 855.511 98.6861 852.176C98.6174 848.841 98.5094 845.074 98.4463 843.804L98.3308 841.496L99.394 840.876C100.725 840.1 100.698 840.098 100.829 840.993ZM93.4986 841.917C92.9852 842.106 91.0997 843.223 90.0524 843.959C89.75 844.172 89.7271 845.017 89.7878 853.8C89.8564 863.804 89.8823 864.104 90.6828 864.104C90.9753 864.104 94.9165 861.748 95.204 861.401C95.4817 861.067 95.0936 843.131 94.7916 842.337C94.5712 841.757 94.2309 841.647 93.4986 841.917ZM93.0772 845.914C93.1394 846.788 93.2449 850.456 93.3126 854.064L93.4349 860.625L92.622 861.078L91.8091 861.531L91.7957 857.698C91.7887 855.59 91.7623 851.873 91.7375 849.436L91.6927 845.007L92.2977 844.645C93.0414 844.2 92.9454 844.043 93.0772 845.914ZM79.7711 850.571C75.622 853.296 70.143 856.888 67.5958 858.553C62.4153 861.937 62.3676 861.981 62.5153 863.285C62.5725 863.79 62.4775 872.836 62.3039 883.388C61.9084 907.456 61.9024 910.573 62.2516 910.658C62.3959 910.694 65.4341 912.364 69.0027 914.37L75.4911 918.018L75.1657 918.545C74.9871 918.835 74.4847 919.507 74.0499 920.039C72.7121 921.674 72.719 921.68 78.7875 923.867C81.6303 924.892 84.672 925.992 85.5466 926.313C101.006 931.98 100.949 931.964 101.057 930.503C101.094 929.998 89.544 906.875 89.0659 906.498C88.3669 905.947 87.9525 906.214 85.4476 908.83L82.9626 911.426L79.1194 908.204L75.2767 904.982L75.3901 903.379C75.4528 902.498 75.5941 900.122 75.704 898.099C75.8145 896.076 75.9503 893.616 76.006 892.632C76.0612 891.648 76.1498 890.082 76.202 889.153C76.2543 888.223 76.3423 886.703 76.3985 885.773C76.4543 884.844 76.5906 882.384 76.7015 880.306C76.8125 878.229 76.9428 875.947 76.9911 875.237C77.0393 874.526 77.1383 872.898 77.211 871.619L77.3428 869.294L79.4602 868.406C80.6243 867.917 82.5153 867.144 83.6615 866.688C84.8078 866.231 86.3048 865.581 86.9878 865.241L88.2306 864.624L88.2415 863.618C88.2475 863.065 88.2888 861.629 88.3336 860.426C88.5803 853.746 88.6077 846.072 88.3848 845.849C87.8744 845.338 87.0436 845.794 79.7711 850.571ZM86.5744 853.617C86.5053 856.487 86.4471 859.865 86.4451 861.125L86.4416 863.414L81.1233 865.58C74.9956 868.077 75.3613 867.802 75.3483 869.922C75.3424 870.822 75.2876 872.319 75.2264 873.249C75.0493 875.936 74.9264 878.05 74.712 882.095C74.6021 884.173 74.4668 886.588 74.412 887.463C74.3568 888.338 74.222 890.708 74.1115 892.731C74.0016 894.754 73.8225 897.93 73.7135 899.789C73.4021 905.114 73.4155 905.908 73.821 906.146C74.0115 906.258 76.0772 907.937 78.4109 909.878C83.6824 914.262 83.1034 914.17 86.0122 911.091L88.2007 908.776L93.1862 918.745C95.9279 924.228 98.1259 928.714 98.0696 928.714C98.0139 928.714 96.5155 928.184 94.7394 927.535C92.9638 926.887 89.8559 925.762 87.8331 925.036C78.6507 921.738 76.3921 920.908 76.2553 920.783C76.0951 920.635 76.8742 919.374 77.6314 918.555C78.5413 917.571 78.3 917.381 70.6435 913.072L63.6451 909.132L63.7158 906.349C63.7546 904.818 63.9232 894.441 64.0904 883.288C64.2576 872.135 64.4571 862.959 64.5337 862.897C64.6103 862.835 67.8704 860.688 71.7783 858.126C75.6866 855.564 80.6069 852.333 82.7123 850.945C84.8182 849.558 86.5764 848.417 86.6202 848.411C86.664 848.404 86.6436 850.747 86.5744 853.617Z" fill="white" stroke="white"/>
<path fill-rule="evenodd" clip-rule="evenodd" d="M169.74 899.105C169.74 899.22 169.652 899.261 169.545 899.195C169.438 899.129 169.166 899.173 168.941 899.293C168.716 899.414 168.21 899.544 167.817 899.582C167.424 899.62 167.048 899.731 166.98 899.829C166.912 899.927 166.32 900.107 165.664 900.23C164.119 900.518 162.511 900.931 162.384 901.071C162.329 901.131 162.106 901.208 161.887 901.242C161.668 901.276 161.354 901.325 161.188 901.351C161.022 901.377 160.776 901.466 160.641 901.55C160.506 901.633 160.314 901.65 160.213 901.588C160.113 901.526 159.895 901.61 159.729 901.777C159.563 901.942 159.042 902.111 158.57 902.152C158.098 902.193 157.466 902.325 157.165 902.444C156.865 902.564 156.619 902.616 156.619 902.56C156.619 902.504 156.418 902.569 156.171 902.703C155.926 902.837 155.501 902.967 155.227 902.991C154.954 903.015 154.462 903.147 154.134 903.283C153.806 903.419 153.44 903.515 153.321 903.497C153.009 903.449 152.292 904.301 152.564 904.397C152.685 904.44 152.746 904.672 152.7 904.915C152.649 905.187 152.79 905.541 153.071 905.841C153.321 906.108 153.544 906.452 153.566 906.604C153.588 906.756 153.748 907.037 153.92 907.227C154.092 907.418 154.233 907.678 154.233 907.806C154.233 907.934 154.313 908.039 154.411 908.039C154.508 908.039 154.639 908.242 154.701 908.49C154.763 908.739 154.997 909.138 155.22 909.377C155.443 909.616 155.625 909.898 155.625 910.005C155.625 910.111 155.74 910.316 155.879 910.46C156.019 910.605 156.266 910.991 156.428 911.319C156.81 912.096 157.859 913.876 158.009 914.003C158.074 914.058 158.257 914.372 158.417 914.7C159.164 916.241 161.528 919.841 161.849 919.925C162.046 919.977 162.169 920.119 162.122 920.242C162.075 920.366 162.238 920.464 162.49 920.464C162.739 920.464 162.901 920.397 162.85 920.315C162.8 920.233 162.858 920.166 162.981 920.166C163.103 920.166 163.147 920.077 163.08 919.967C163.012 919.858 163.027 919.657 163.112 919.52C163.33 919.171 163.377 918.735 163.223 918.488C163.151 918.372 163.118 918.076 163.15 917.83C163.182 917.584 163.112 917.383 162.995 917.383C162.878 917.383 162.782 917.288 162.782 917.172C162.782 917.056 162.885 917.025 163.011 917.103C163.147 917.188 163.187 917.158 163.109 917.031C163.036 916.914 162.934 916.565 162.882 916.255C162.829 915.946 162.664 915 162.515 914.152C162.278 912.805 162.344 912.125 162.641 912.86C162.696 912.997 163.175 913.33 163.706 913.601C164.236 913.871 164.715 914.144 164.77 914.208C164.824 914.271 165.26 914.523 165.737 914.768C166.214 915.013 166.736 915.344 166.896 915.505C167.056 915.665 167.26 915.751 167.349 915.696C167.438 915.641 167.563 915.729 167.625 915.893C167.688 916.056 167.876 916.19 168.044 916.19C168.211 916.19 168.348 916.265 168.348 916.357C168.348 916.527 169.228 917.009 169.707 917.102C169.853 917.13 170.096 917.317 170.247 917.516C170.398 917.716 170.525 917.806 170.529 917.716C170.532 917.626 170.676 917.695 170.849 917.867C171.022 918.04 171.236 918.136 171.325 918.082C171.414 918.026 171.541 918.121 171.606 918.291C171.671 918.461 171.815 918.545 171.925 918.477C172.035 918.409 172.125 918.429 172.125 918.521C172.125 918.664 173.217 919.419 173.517 919.484C173.847 919.555 174.576 919.945 174.412 919.962C174.302 919.974 174.481 920.116 174.809 920.279C175.751 920.746 176.267 921.068 176.696 921.457C176.916 921.656 177.095 921.756 177.095 921.68C177.095 921.605 177.429 921.77 177.837 922.047C178.245 922.325 178.683 922.552 178.81 922.552C178.937 922.552 179.095 922.691 179.16 922.863C179.226 923.033 179.369 923.117 179.48 923.05C179.59 922.981 179.68 923.02 179.68 923.136C179.68 923.252 179.789 923.324 179.922 923.297C180.109 923.259 180.153 924.285 180.113 927.72C180.085 930.18 180.043 934.354 180.02 936.995C179.997 939.635 179.933 941.769 179.879 941.735C179.824 941.702 179.779 943.902 179.779 946.626C179.779 949.348 179.734 951.576 179.68 951.577C179.625 951.577 179.574 953.152 179.567 955.077C179.554 958.534 179.548 958.582 179.076 958.938C178.813 959.136 178.528 959.256 178.443 959.203C178.358 959.151 178.288 959.207 178.288 959.33C178.288 959.452 178.206 959.501 178.106 959.439C178.005 959.377 177.804 959.439 177.658 959.577C177.513 959.714 177.215 959.856 176.996 959.892C176.777 959.928 176.4 960.084 176.158 960.24C175.916 960.395 175.603 960.524 175.462 960.527C175.322 960.529 174.983 960.706 174.71 960.92C174.437 961.134 174.068 961.311 173.892 961.313C173.583 961.318 172.389 961.824 169.442 963.199C168.676 963.556 167.714 963.995 167.304 964.173C166.894 964.352 166.268 964.625 165.913 964.78C165.557 964.936 164.887 965.214 164.422 965.398C163.957 965.583 163.577 965.814 163.577 965.912C163.577 966.009 163.51 966.074 163.428 966.056C163.12 965.989 162.185 966.338 162.185 966.52C162.185 966.624 162.096 966.653 161.987 966.586C161.877 966.518 161.788 966.563 161.788 966.685C161.788 966.808 161.706 966.857 161.607 966.796C161.507 966.734 161.171 966.819 160.861 966.984C160.09 967.395 156.409 969.071 156.277 969.071C156.045 969.071 153.728 970.16 153.615 970.323C153.548 970.418 153.458 970.483 153.416 970.467C153.309 970.426 152.687 970.646 151.748 971.059C151.311 971.251 150.8 971.46 150.612 971.523C150.324 971.62 150.304 971.731 150.484 972.247C150.673 972.789 151.45 973.486 151.45 973.114C151.45 973.033 151.551 973.068 151.673 973.191C151.796 973.313 152.019 973.366 152.17 973.309C152.321 973.251 152.444 973.302 152.444 973.423C152.444 973.544 152.511 973.633 152.593 973.62C152.675 973.607 152.809 973.618 152.891 973.645C153.164 973.733 153.333 973.773 154.134 973.933C154.571 974.021 155.041 974.182 155.177 974.29C155.351 974.428 155.427 974.406 155.429 974.214C155.432 974.005 155.468 973.999 155.589 974.189C155.676 974.325 155.987 974.457 156.282 974.481C156.577 974.506 156.818 974.58 156.818 974.648C156.818 974.715 156.93 974.784 157.066 974.801C157.935 974.91 158.217 974.976 158.338 975.097C158.413 975.172 158.767 975.234 159.125 975.234C159.965 975.234 160.089 975.463 159.591 976.096C159.37 976.377 159.09 976.901 158.969 977.262C158.848 977.623 158.642 978.052 158.512 978.216C158.382 978.38 158.156 978.827 158.011 979.21C157.865 979.592 157.639 980.04 157.509 980.204C157.378 980.368 157.168 980.809 157.042 981.185C156.916 981.561 156.698 982.008 156.558 982.179C156.418 982.35 156.183 982.848 156.036 983.285C155.888 983.723 155.679 984.138 155.57 984.208C155.461 984.278 155.429 984.563 155.499 984.841C155.725 985.742 156.968 985.542 158.35 984.381C158.482 984.27 158.665 984.18 158.757 984.18C158.849 984.18 159.031 984.073 159.161 983.943C159.292 983.813 159.513 983.69 159.654 983.669C159.899 983.633 161.224 982.818 161.733 982.39C161.866 982.278 162.202 982.1 162.478 981.995C162.754 981.89 162.981 981.697 162.981 981.567C162.981 981.437 163.038 981.387 163.108 981.458C163.256 981.606 164.372 980.988 164.372 980.758C164.372 980.672 164.506 980.601 164.67 980.601C164.834 980.601 164.969 980.512 164.969 980.403C164.969 980.293 165.036 980.222 165.117 980.245C165.284 980.29 166.602 979.627 166.758 979.419C166.812 979.347 167.282 979.09 167.801 978.85C168.321 978.609 168.746 978.346 168.747 978.265C168.747 978.183 169.15 977.951 169.641 977.749C170.133 977.547 170.535 977.3 170.535 977.202C170.535 977.103 170.658 977.023 170.808 977.023C170.959 977.023 171.577 976.656 172.184 976.206C172.79 975.757 173.316 975.421 173.352 975.46C173.388 975.499 173.7 975.329 174.045 975.084C174.389 974.838 174.729 974.637 174.799 974.637C174.868 974.637 175.034 974.547 175.165 974.436C175.718 973.972 176.897 973.269 176.9 973.401C176.901 973.48 176.968 973.454 177.049 973.345C177.231 973.098 178.27 972.463 178.735 972.316C178.927 972.255 179.083 972.121 179.083 972.018C179.083 971.915 179.173 971.886 179.282 971.954C179.392 972.021 179.481 971.982 179.481 971.866C179.481 971.75 179.561 971.678 179.66 971.705C179.758 971.732 180.292 971.412 180.846 970.993C181.4 970.574 181.936 970.283 182.037 970.346C182.139 970.409 182.274 970.327 182.336 970.163C182.399 970 182.593 969.866 182.767 969.866C182.94 969.866 183.028 969.778 182.961 969.67C182.895 969.561 182.964 969.521 183.116 969.579C183.269 969.637 183.507 969.548 183.646 969.38C183.786 969.213 183.979 969.125 184.076 969.184C184.173 969.244 184.252 969.205 184.252 969.096C184.252 968.988 184.434 968.841 184.657 968.771C184.879 968.7 185.25 968.448 185.481 968.211C185.712 967.973 185.828 967.913 185.738 968.077C185.62 968.293 185.685 968.28 185.973 968.028C186.191 967.837 186.787 967.469 187.295 967.212C187.804 966.954 188.162 966.686 188.091 966.615C188.021 966.545 188.135 966.485 188.344 966.482C189.205 966.472 189.98 965.371 189.612 964.683C189.476 964.428 189.474 964.3 189.608 964.3C189.73 964.3 189.748 964.124 189.653 963.853C189.568 963.606 189.512 961.775 189.53 959.784C189.547 957.791 189.485 956.208 189.392 956.266C189.299 956.323 189.304 956.159 189.402 955.902C189.513 955.608 189.503 955.296 189.376 955.068C189.229 954.804 189.234 954.741 189.395 954.841C189.55 954.936 189.592 954.774 189.533 954.321C189.486 953.96 189.433 953.664 189.414 953.664C189.396 953.664 189.366 951.964 189.347 949.887C189.328 947.809 189.242 945.998 189.156 945.861C189.07 945.724 189.08 945.612 189.178 945.612C189.277 945.612 189.326 945.322 189.287 944.966C189.249 944.611 189.194 942.531 189.165 940.344C189.135 938.157 189.042 936.256 188.956 936.12C188.862 935.969 188.903 935.87 189.062 935.868C189.251 935.866 189.24 935.812 189.023 935.672C188.825 935.544 188.808 935.479 188.974 935.477C189.239 935.473 189.317 934.839 189.081 934.604C189.004 934.526 188.927 932.298 188.91 929.65C188.893 927.004 188.859 924.793 188.833 924.738C188.807 924.684 188.785 923.488 188.783 922.082C188.78 919.843 188.733 919.478 188.404 919.149C188.198 918.943 188.029 918.685 188.029 918.576C188.029 918.466 187.891 918.377 187.723 918.377C187.554 918.377 187.224 918.198 186.99 917.979C186.755 917.76 186.386 917.582 186.17 917.582C185.953 917.582 185.836 917.522 185.908 917.45C186.063 917.296 184.964 916.588 184.57 916.588C184.422 916.588 184.191 916.454 184.055 916.292C183.92 916.129 183.734 916.042 183.642 916.099C183.55 916.156 183.326 915.977 183.146 915.701C182.965 915.425 182.737 915.248 182.64 915.308C182.543 915.369 182.463 915.329 182.463 915.221C182.463 915.045 181.825 914.734 181.412 914.709C181.326 914.703 181.192 914.609 181.114 914.5C180.989 914.324 180.37 913.904 178.984 913.053C178.765 912.919 178.364 912.715 178.093 912.599C177.822 912.483 177.554 912.326 177.497 912.25C177.326 912.024 175.842 911.065 175.256 910.804C174.956 910.669 174.71 910.479 174.71 910.381C174.71 910.283 174.62 910.258 174.51 910.326C174.399 910.394 174.256 910.311 174.19 910.14C174.125 909.97 173.995 909.878 173.901 909.936C173.807 909.994 173.555 909.882 173.34 909.686C172.608 909.022 172.366 908.858 172.265 908.96C172.209 909.016 171.973 908.899 171.74 908.699C171.508 908.5 171.273 908.361 171.22 908.391C171.167 908.421 170.879 908.219 170.581 907.943C170.283 907.666 169.666 907.265 169.209 907.05C168.753 906.836 168.322 906.568 168.253 906.455C168.183 906.342 167.947 906.25 167.728 906.25C167.509 906.25 167.375 906.178 167.43 906.09C167.484 906.002 167.198 905.759 166.795 905.552C166.392 905.343 165.828 905.015 165.542 904.823C165.257 904.63 164.947 904.537 164.853 904.616C164.76 904.694 164.803 904.602 164.95 904.411C165.096 904.22 165.339 904.063 165.49 904.063C165.64 904.063 165.765 903.996 165.766 903.914C165.767 903.832 166.122 903.595 166.555 903.388C166.987 903.181 167.543 902.823 167.79 902.593C168.037 902.363 168.264 902.197 168.294 902.224C168.429 902.348 168.74 902.252 168.98 902.012C169.124 901.869 169.668 901.502 170.187 901.198C170.706 900.894 171.085 900.571 171.029 900.48C170.972 900.388 171.009 900.262 171.109 900.2C171.429 900.002 171.131 899.4 170.584 899.143C169.941 898.839 169.74 898.83 169.74 899.105ZM165.167 902.274C165.167 902.383 165.005 902.473 164.807 902.473C164.609 902.473 164.254 902.653 164.017 902.873C163.781 903.093 163.373 903.355 163.112 903.454C162.668 903.623 162.227 904.461 162.583 904.461C162.672 904.461 162.698 904.64 162.64 904.858C162.572 905.122 162.634 905.256 162.827 905.256C162.987 905.256 163.377 905.479 163.695 905.753C164.013 906.026 164.407 906.253 164.571 906.257C164.735 906.262 165.179 906.531 165.557 906.854C165.936 907.178 166.356 907.443 166.492 907.443C166.627 907.443 166.979 907.666 167.274 907.94C167.569 908.213 167.924 908.437 168.064 908.437C168.203 908.437 168.593 908.668 168.929 908.951C169.266 909.235 169.542 909.391 169.544 909.299C169.546 909.208 169.613 909.228 169.693 909.345C169.774 909.462 170.277 909.767 170.813 910.023C171.349 910.279 172.087 910.752 172.453 911.074C172.82 911.395 173.119 911.601 173.119 911.531C173.119 911.461 173.315 911.586 173.555 911.809C173.794 912.031 174.107 912.214 174.25 912.214C174.394 912.214 174.511 912.309 174.511 912.424C174.511 912.54 174.59 912.586 174.687 912.526C174.784 912.466 174.973 912.549 175.107 912.711C175.242 912.872 175.431 912.956 175.528 912.896C175.625 912.836 175.704 912.873 175.704 912.978C175.704 913.135 177.344 914.236 177.692 914.313C178.176 914.419 178.851 914.823 178.943 915.061C179.005 915.222 179.375 915.46 179.765 915.589C180.156 915.718 180.475 915.911 180.475 916.018C180.475 916.125 180.564 916.158 180.674 916.091C180.783 916.023 180.873 916.054 180.873 916.159C180.873 916.264 181.141 916.443 181.469 916.558C181.797 916.672 182.065 916.85 182.065 916.953C182.065 917.056 182.406 917.277 182.822 917.443C183.238 917.61 183.697 917.888 183.84 918.062C183.985 918.235 184.285 918.377 184.508 918.377C184.732 918.377 184.855 918.437 184.782 918.51C184.645 918.646 186.235 919.693 186.47 919.622C186.721 919.545 187.075 920.16 187.115 920.744C187.138 921.068 187.086 921.29 186.999 921.237C186.913 921.183 186.898 921.417 186.966 921.756C187.034 922.095 187.099 924.09 187.112 926.189C187.124 928.289 187.211 930.062 187.304 930.131C187.398 930.199 187.366 930.456 187.234 930.702C187.042 931.062 187.048 931.184 187.264 931.321C187.462 931.447 187.467 931.492 187.284 931.495C187.147 931.496 187.035 931.592 187.035 931.708C187.035 931.824 187.102 931.877 187.185 931.826C187.267 931.776 187.334 933.538 187.334 935.741C187.334 937.945 187.408 939.802 187.499 939.87C187.591 939.936 187.572 940.33 187.458 940.745C187.343 941.16 187.306 941.591 187.376 941.704C187.445 941.816 187.511 943.614 187.524 945.699C187.536 947.783 187.611 949.595 187.691 949.724C187.772 949.853 187.745 950.016 187.632 950.085C187.519 950.155 187.488 950.312 187.563 950.433C187.638 950.554 187.709 952.584 187.72 954.942C187.732 957.3 187.807 959.336 187.888 959.465C187.97 959.594 187.944 959.757 187.831 959.827C187.718 959.896 187.687 960.053 187.762 960.174C187.836 960.295 187.905 961.415 187.914 962.664L187.93 964.933L187.313 965.19C186.974 965.332 186.311 965.727 185.842 966.067C185.372 966.407 184.864 966.685 184.713 966.685C184.562 966.685 184.387 966.819 184.324 966.982C184.262 967.146 184.13 967.23 184.032 967.169C183.935 967.109 183.855 967.154 183.855 967.27C183.855 967.386 183.727 967.481 183.572 967.481C183.416 967.481 182.995 967.727 182.636 968.027C182.277 968.328 182.051 968.463 182.134 968.328C182.237 968.16 182.187 968.119 181.976 968.2C181.807 968.265 181.668 968.398 181.668 968.496C181.668 968.594 181.533 968.673 181.37 968.673C181.206 968.673 181.071 968.766 181.071 968.878C181.071 968.991 180.915 969.14 180.723 969.209C180.532 969.278 180.142 969.496 179.856 969.694C179.57 969.892 179.28 969.996 179.21 969.927C179.14 969.857 179.083 969.904 179.083 970.032C179.083 970.159 178.966 970.264 178.823 970.264C178.679 970.264 178.378 970.435 178.153 970.644C177.929 970.853 177.331 971.214 176.824 971.444C176.317 971.675 175.903 971.957 175.903 972.07C175.903 972.183 175.823 972.226 175.726 972.166C175.629 972.107 175.44 972.191 175.304 972.353C175.169 972.516 174.936 972.649 174.785 972.649C174.634 972.649 174.511 972.739 174.511 972.848C174.511 972.957 174.444 973.025 174.362 972.999C174.182 972.94 172.65 973.86 172.556 974.082C172.52 974.169 172.313 974.24 172.097 974.24C171.881 974.24 171.755 974.322 171.817 974.422C171.879 974.523 171.668 974.663 171.349 974.733C171.029 974.803 170.718 974.989 170.657 975.147C170.597 975.304 170.454 975.433 170.338 975.433C170.223 975.433 169.783 975.651 169.36 975.918C168.937 976.186 168.55 976.364 168.5 976.314C168.451 976.264 168.173 976.444 167.883 976.713C167.592 976.983 167.354 977.156 167.354 977.099C167.354 977.041 167.213 977.135 167.042 977.307C166.87 977.479 166.601 977.619 166.445 977.619C166.289 977.619 166.161 977.709 166.161 977.818C166.161 977.928 166.079 977.994 165.979 977.967C165.747 977.904 164.173 978.855 164.173 979.058C164.173 979.142 164.006 979.21 163.8 979.21C163.595 979.21 163.315 979.344 163.179 979.508C163.043 979.672 162.809 979.806 162.658 979.806C162.508 979.806 162.384 979.896 162.384 980.005C162.384 980.114 162.25 980.204 162.086 980.204C161.922 980.204 161.788 980.283 161.788 980.381C161.788 980.479 161.418 980.706 160.965 980.887C160.513 981.069 159.745 981.49 159.259 981.824L158.377 982.431L158.699 981.809C158.876 981.467 158.967 981.099 158.902 980.993C158.836 980.887 158.881 980.8 159.002 980.8C159.282 980.8 160.216 978.804 160.056 978.547C159.991 978.44 160.027 978.409 160.137 978.477C160.371 978.621 160.853 977.678 160.685 977.406C160.623 977.304 160.655 977.222 160.758 977.222C161.845 977.222 162.069 974.085 160.988 974.016C160.43 973.981 160.327 973.955 160.051 973.78C159.817 973.631 157.887 973.23 157.18 973.183C156.997 973.171 156.89 973.09 156.943 973.005C156.997 972.918 156.816 972.848 156.543 972.848C156.269 972.848 155.99 972.757 155.921 972.646C155.852 972.535 155.713 972.496 155.611 972.558C155.509 972.621 155.314 972.601 155.177 972.514C155.041 972.425 154.705 972.332 154.432 972.306C153.498 972.217 153.422 972.189 153.604 972.006C153.703 971.908 153.907 971.802 154.058 971.772C154.871 971.611 155.426 971.393 155.426 971.236C155.426 971.139 155.493 971.073 155.575 971.091C155.731 971.124 155.936 971.049 157.414 970.423C158.763 969.85 159.275 969.605 159.571 969.386C159.719 969.277 159.976 969.168 160.142 969.143C160.682 969.064 161.589 968.63 161.589 968.45C161.589 968.354 161.66 968.298 161.748 968.326C161.996 968.403 163.378 967.824 163.378 967.643C163.378 967.553 163.445 967.491 163.527 967.504C163.958 967.572 164.377 967.447 164.656 967.168C164.828 966.996 164.969 966.902 164.969 966.958C164.969 967.068 166.098 966.599 168.079 965.669C168.75 965.353 169.404 965.095 169.531 965.095C169.659 965.095 169.708 965.007 169.642 964.898C169.572 964.786 169.652 964.753 169.829 964.82C169.998 964.885 170.137 964.859 170.137 964.761C170.137 964.663 170.337 964.568 170.581 964.55C170.825 964.531 171.115 964.393 171.227 964.242C171.338 964.09 171.541 964.004 171.678 964.051C171.815 964.096 171.927 964.022 171.927 963.885C171.927 963.749 171.985 963.696 172.058 963.768C172.129 963.84 172.299 963.807 172.435 963.694C172.57 963.581 172.885 963.45 173.134 963.402C173.383 963.355 173.639 963.246 173.701 963.162C173.764 963.077 173.95 962.982 174.113 962.951C174.395 962.898 176.384 961.991 177.515 961.4C177.8 961.252 178.091 961.186 178.161 961.257C178.231 961.327 178.288 961.279 178.288 961.152C178.288 961.024 178.355 960.94 178.437 960.965C178.675 961.037 180.473 960.241 180.474 960.064C180.475 959.975 180.56 959.955 180.664 960.019C181.22 960.363 181.243 960.03 181.327 950.433C181.35 947.782 181.415 945.613 181.469 945.612C181.523 945.612 181.568 943.421 181.568 940.742C181.568 938.063 181.613 935.872 181.668 935.871C181.722 935.871 181.785 933.657 181.806 930.951C181.827 928.244 181.878 925.386 181.919 924.599C181.961 923.812 181.932 923.207 181.855 923.255C181.779 923.302 181.667 923.096 181.607 922.797C181.513 922.33 180.702 921.622 180.132 921.511C179.98 921.48 179.726 921.293 179.19 920.812C179.037 920.676 178.772 920.564 178.601 920.564C178.429 920.564 178.288 920.485 178.288 920.389C178.288 920.293 177.796 919.958 177.195 919.644C176.594 919.329 176.102 919.005 176.102 918.923C176.102 918.841 175.923 918.774 175.704 918.774C175.485 918.774 175.306 918.68 175.306 918.564C175.306 918.448 175.233 918.398 175.144 918.454C175.054 918.509 174.859 918.385 174.71 918.178C174.56 917.971 174.366 917.846 174.277 917.901C174.189 917.956 173.888 917.772 173.609 917.493C173.33 917.213 173.016 916.985 172.912 916.985C172.531 916.985 172.413 916.934 171.835 916.516C171.511 916.282 170.929 915.937 170.543 915.749C170.156 915.562 169.929 915.401 170.038 915.392C170.243 915.375 169.116 914.71 168.497 914.482C168.306 914.412 168.149 914.275 168.149 914.179C168.149 914.082 168.045 914.003 167.916 914.003C167.788 914.003 167.542 913.876 167.37 913.72C167.197 913.565 166.928 913.409 166.772 913.373C166.615 913.337 166.273 913.128 166.01 912.91C165.748 912.691 165.494 912.536 165.446 912.566C165.398 912.596 165.168 912.442 164.934 912.225C164.702 912.008 164.447 911.869 164.369 911.918C164.291 911.966 164.068 911.831 163.875 911.618C163.682 911.404 163.446 911.277 163.351 911.335C163.257 911.394 163.179 911.354 163.179 911.246C163.179 911.138 162.821 910.892 162.384 910.699C161.947 910.506 161.589 910.276 161.589 910.188C161.589 909.939 160.636 909.998 160.477 910.256C160.391 910.396 160.422 910.432 160.556 910.349C160.684 910.27 160.659 910.439 160.497 910.752C160.343 911.048 160.277 911.387 160.35 911.504C160.423 911.621 160.506 912.03 160.535 912.413C160.611 913.428 160.728 914.224 160.9 914.878C161.008 915.291 160.986 915.414 160.823 915.313C160.698 915.236 160.595 915.043 160.595 914.886C160.595 914.728 160.5 914.6 160.384 914.6C160.269 914.6 160.229 914.51 160.298 914.399C160.366 914.289 160.281 914.145 160.111 914.08C159.939 914.014 159.8 913.836 159.8 913.684C159.8 913.531 159.71 913.407 159.601 913.407C159.492 913.407 159.402 913.311 159.402 913.194C159.402 913.077 159.149 912.608 158.839 912.15C158.241 911.267 157.927 910.62 157.979 910.375C157.996 910.293 157.921 910.226 157.812 910.226C157.702 910.226 157.613 910.141 157.613 910.037C157.613 909.934 157.391 909.609 157.12 909.317C156.848 909.024 156.668 908.716 156.72 908.633C156.771 908.55 156.68 908.371 156.517 908.236C156.354 908.101 156.221 907.823 156.221 907.617C156.221 907.412 156.132 907.244 156.023 907.244C155.913 907.244 155.824 907.11 155.824 906.946C155.824 906.782 155.729 906.648 155.613 906.648C155.497 906.648 155.452 906.567 155.513 906.469C155.573 906.371 155.5 906.245 155.35 906.187C154.822 905.984 154.618 904.944 155.1 904.907C155.331 904.89 155.547 904.792 155.582 904.689C155.616 904.587 155.819 904.549 156.032 904.604C156.245 904.66 156.42 904.621 156.42 904.517C156.42 904.413 156.532 904.32 156.668 904.309C157.525 904.244 158.715 904.016 158.802 903.901C158.923 903.742 159.363 903.61 159.835 903.592C160.018 903.586 160.119 903.5 160.058 903.403C159.998 903.304 160.141 903.286 160.381 903.363C160.635 903.443 160.94 903.394 161.121 903.243C161.291 903.102 161.578 902.959 161.758 902.924C162.153 902.848 163.179 902.712 163.539 902.688C163.682 902.679 163.747 902.588 163.684 902.485C163.621 902.383 163.862 902.264 164.219 902.219C164.577 902.175 164.936 902.124 165.018 902.107C165.1 902.089 165.167 902.165 165.167 902.274Z" fill="white" stroke="white"/>
<path fill-rule="evenodd" clip-rule="evenodd" d="M107.001 846.802C103.676 848.147 105.688 853.385 110.545 856.028C111.909 856.771 112.522 857.109 114.52 858.222C116.495 859.322 117.208 859.716 118.11 860.206C118.635 860.49 119.977 861.249 121.092 861.89C122.208 862.531 123.747 863.396 124.512 863.811C125.277 864.227 126.314 864.798 126.816 865.081C127.318 865.363 129.038 866.311 130.639 867.185L133.55 868.776L133.548 887.425C133.545 907.968 133.456 906.387 134.679 907.472C136.811 909.364 139.318 909.105 141.174 906.8L141.771 906.058L141.729 885.845C141.683 864.443 141.712 865.092 140.784 864.276C140.581 864.098 135.495 861.108 129.482 857.632C123.468 854.156 116.938 850.377 114.97 849.235C110.569 846.679 108.708 846.111 107.001 846.802ZM110.396 848.707C110.833 848.92 115.753 851.725 121.33 854.941C126.907 858.157 133.17 861.768 135.247 862.966C137.324 864.164 139.225 865.371 139.471 865.649L139.919 866.154L139.94 877.007C139.951 882.976 139.995 891.736 140.037 896.473C140.121 905.939 140.122 905.929 138.931 906.544C138.197 906.925 137.32 906.929 136.431 906.557C135.755 906.275 135.587 906.063 135.446 905.321C135.408 905.121 135.37 896.585 135.362 886.351L135.346 867.745L134.302 867.181C133.728 866.87 132.454 866.153 131.47 865.587C130.486 865.021 129.189 864.292 128.587 863.966C127.986 863.641 127.136 863.172 126.699 862.925C126.261 862.677 125.456 862.226 124.909 861.922C124.362 861.617 122.573 860.609 120.933 859.682C119.293 858.755 117.37 857.681 116.659 857.295C115.948 856.909 114.315 856.002 113.03 855.28C111.746 854.557 110.651 853.965 110.598 853.965C110.217 853.965 108.428 852.138 107.688 850.994C106.705 849.473 107.046 848.493 108.608 848.361C109.598 848.277 109.456 848.249 110.396 848.707ZM130.266 905.063C129.814 905.231 129.531 905.741 129.117 907.144C128.955 907.691 128.54 909.046 128.194 910.157C127.847 911.267 127.54 912.296 127.513 912.443C127.484 912.59 127.354 913.09 127.222 913.552C126.814 914.99 127.343 915.467 129.581 915.683C130.768 915.796 132.454 915.97 133.557 916.092C137.581 916.536 138.394 916.425 138.394 915.431C138.394 914.237 138.64 914.295 130.277 913.507C129.611 913.444 129.6 913.338 130.094 911.799C130.255 911.298 130.422 910.716 130.466 910.507C130.51 910.298 130.729 909.562 130.954 908.872C131.717 906.522 131.79 906.119 131.548 905.587C131.294 905.029 130.849 904.847 130.266 905.063ZM124.071 908.676C123.72 908.846 123.364 909.696 122.308 912.887C121.109 916.511 120.931 917.196 121.009 917.899C121.032 918.11 122.238 918.74 122.83 918.852C122.99 918.881 123.522 919.02 124.014 919.159C124.506 919.298 125.042 919.446 125.207 919.486C125.371 919.527 126.132 919.744 126.897 919.967C131.369 921.271 132.224 921.166 131.793 919.364C131.745 919.162 130.647 918.596 130.118 918.5C129.826 918.448 129.513 918.358 129.421 918.301C129.33 918.245 129.037 918.157 128.772 918.105C128.298 918.013 126.852 917.624 125.332 917.179C124.908 917.054 124.378 916.917 124.153 916.874C123.441 916.737 123.44 916.53 124.139 914.5C125.795 909.692 125.92 909.017 125.221 908.642C124.76 908.396 124.644 908.4 124.071 908.676ZM118.14 912.893C117.844 913.109 115.477 920.897 115.47 921.676C115.462 922.554 115.822 922.682 122.108 924.044C124.821 924.632 125.483 924.578 125.772 923.75C126.09 922.839 125.49 922.42 123.319 922.041C122.991 921.983 122.409 921.855 122.027 921.756C121.644 921.657 121.107 921.533 120.834 921.48C120.561 921.427 119.8 921.28 119.144 921.154C118.488 921.028 117.924 920.898 117.891 920.866C117.859 920.835 118.284 919.246 118.836 917.337C119.388 915.427 119.84 913.73 119.84 913.567C119.84 912.867 118.76 912.439 118.14 912.893Z" fill="white" stroke="white"/>
<path fill-rule="evenodd" clip-rule="evenodd" d="M146.272 925.659C144.473 926.712 142.777 927.716 142.504 927.891C142.23 928.065 141.738 928.355 141.41 928.536C141.083 928.716 140.501 929.052 140.118 929.284C139.735 929.516 139.199 929.816 138.925 929.951C138.652 930.087 138.384 930.248 138.329 930.311C138.274 930.374 137.095 931.096 135.707 931.916L133.184 933.406L133.151 939.062C133.133 942.173 133.127 944.942 133.137 945.215C133.147 945.488 133.213 947.344 133.284 949.34L133.413 952.967L134.43 953.613C135.857 954.519 139.063 956.507 141.41 957.942C142.504 958.611 144.159 959.639 145.088 960.227C149.421 962.97 149.233 962.936 152.102 961.479C153.22 960.911 154.168 960.471 154.211 960.501C154.253 960.532 154.343 960.471 154.41 960.366C154.477 960.262 156.813 959.034 159.601 957.638C167.301 953.783 166.702 954.398 166.761 950.284C166.768 949.738 166.945 945.801 167.153 941.537C167.586 932.663 167.689 933.338 165.735 932.288C165.04 931.914 164.233 931.472 163.942 931.305C163.651 931.137 163.024 930.788 162.55 930.529C162.076 930.269 159.798 928.995 157.487 927.696C155.177 926.397 153.194 925.335 153.081 925.335C152.967 925.335 152.845 925.257 152.808 925.161C152.712 924.906 150.331 923.744 149.906 923.744C149.707 923.744 148.072 924.606 146.272 925.659ZM150.908 926.329C151.186 926.548 151.476 926.726 151.553 926.726C151.673 926.726 153.215 927.574 159.7 931.204C160.247 931.51 161.768 932.358 163.08 933.089L165.466 934.418L165.462 935.492C165.46 936.084 165.383 937.909 165.292 939.549C165.2 941.189 165.123 942.71 165.12 942.929C165.117 943.147 165.027 944.981 164.922 947.004C164.816 949.027 164.744 951.15 164.761 951.724L164.792 952.765L163.041 953.631C162.079 954.108 158.628 955.86 155.374 957.525L149.456 960.552L147.919 959.63C147.072 959.124 144.502 957.539 142.205 956.109C139.909 954.679 137.852 953.406 137.633 953.281C137.415 953.155 136.76 952.754 136.179 952.389L135.123 951.726L135.157 947.029C135.176 944.446 135.124 940.621 135.041 938.529L134.891 934.726L135.367 934.433C137.533 933.105 140.719 931.299 140.895 931.299C141.014 931.299 141.112 931.232 141.112 931.149C141.112 931.067 141.537 930.777 142.057 930.505C142.576 930.233 143.09 929.936 143.199 929.845C143.781 929.363 149.808 925.938 150.081 925.935C150.258 925.933 150.63 926.11 150.908 926.329Z" fill="white" stroke="white"/>
<path fill-rule="evenodd" clip-rule="evenodd" d="M115.268 924.68C114.025 924.872 112.67 925.608 111.731 926.602C110.832 927.552 110.591 927.949 109.913 929.601C109.669 930.197 109.632 932.87 109.792 938.555C109.835 940.086 109.931 946.303 110.005 952.372C110.151 964.312 110.149 964.269 110.5 964.821C110.632 965.026 113.107 966.581 116.001 968.276C121.287 971.371 123.375 972.589 124.549 973.26C124.897 973.459 125.523 973.835 125.94 974.095C126.358 974.354 126.833 974.631 126.997 974.71C127.161 974.788 127.474 974.961 127.693 975.095C128.206 975.409 129.971 976.468 130.409 976.725C132.204 977.777 133.154 978.33 133.657 978.619C133.985 978.807 135.595 979.758 137.235 980.732C143.425 984.409 146.077 984.712 148.062 981.972C150.372 978.784 148.825 975.642 143.325 972.351C140.213 970.489 139.828 970.256 137.897 969.073C137.096 968.582 136.29 968.09 136.107 967.98C135.924 967.869 135.387 967.546 134.914 967.26C134.441 966.975 133.07 966.135 131.868 965.392C130.665 964.65 129.055 963.664 128.289 963.201C127.524 962.738 125.913 961.755 124.711 961.016C123.508 960.278 122.144 959.44 121.679 959.155L120.834 958.637L120.819 956.548C120.811 955.399 120.779 954.325 120.748 954.161C120.717 953.997 120.631 951.626 120.558 948.893C120.485 946.159 120.38 943.028 120.327 941.935C120.273 940.841 120.14 937.426 120.032 934.345C119.818 928.251 119.66 927.322 118.629 926.071C117.815 925.084 116.413 924.504 115.268 924.68ZM116.764 926.928C118.007 927.697 118.039 927.891 118.346 936.812C118.5 941.27 118.673 945.946 118.731 947.203C118.788 948.46 118.896 951.749 118.971 954.513C119.131 960.473 118.738 959.783 123.518 962.506C123.846 962.693 124.764 963.263 125.558 963.772C126.352 964.281 127.042 964.697 127.092 964.697C127.141 964.697 127.945 965.189 128.877 965.791C129.809 966.392 130.616 966.884 130.671 966.884C130.726 966.884 131.42 967.301 132.213 967.811C133.007 968.32 134.283 969.112 135.049 969.57C135.814 970.029 137.424 971.01 138.627 971.751C141.019 973.224 144.296 975.208 144.901 975.55C147.648 977.102 147.771 981.242 145.084 981.695C143.339 981.99 142.678 981.719 137.335 978.517C136.733 978.156 135.928 977.686 135.546 977.471C135.163 977.257 133.731 976.41 132.365 975.59C130.998 974.77 129.522 973.905 129.085 973.668C128.647 973.43 127.931 973.014 127.494 972.743C127.057 972.471 126.261 972.004 125.727 971.704C125.193 971.404 124.611 971.068 124.435 970.957C123.88 970.607 119.163 967.814 118.747 967.588C118.528 967.469 116.94 966.533 115.218 965.506L112.087 963.641L112.074 960.044C112.067 958.066 112.031 955.374 111.993 954.061C111.921 951.509 111.615 931.71 111.637 930.935C111.709 928.283 114.909 925.782 116.764 926.928Z" fill="white" stroke="white"/>
<path fill-rule="evenodd" clip-rule="evenodd" d="M81.013 858.977C80.6633 859.699 80.8926 860.181 81.6846 860.388C82.3786 860.569 82.9846 859.24 82.4159 858.785C81.7573 858.258 81.3334 858.316 81.013 858.977ZM75.4067 861.801C74.8072 862.4 74.7927 862.594 75.3087 863.11C76.0062 863.808 77.3728 863.001 76.9211 862.157C76.4987 861.368 75.9649 861.243 75.4067 861.801ZM68.8551 865.545C68.5645 866.236 68.678 866.53 69.3795 866.906C69.8645 867.165 70.7948 866.294 70.6068 865.755C70.2556 864.746 69.2416 864.625 68.8551 865.545ZM68.2496 872.257C68.0128 872.64 68.0909 873.685 68.3695 873.861C69.4028 874.515 70.4884 873.228 69.6287 872.368C69.2775 872.017 68.4397 871.95 68.2496 872.257ZM68.3009 880.62C67.4671 881.106 67.984 882.452 68.968 882.358C69.5775 882.3 69.6491 882.228 69.7083 881.607C69.8013 880.628 69.1148 880.146 68.3009 880.62ZM68.5531 888.704C67.6984 889.039 67.5586 889.615 68.173 890.269C69.1302 891.288 70.2983 889.97 69.3829 888.904C69.0655 888.535 69.0143 888.522 68.5531 888.704ZM86.8934 891.538C86.8934 892.03 86.9318 892.232 86.9795 891.986C87.0268 891.74 87.0268 891.337 86.9795 891.091C86.9318 890.845 86.8934 891.046 86.8934 891.538ZM68.0407 897.194C67.4865 898.04 68.2173 899.089 69.1536 898.792C70.068 898.502 70.1167 897.34 69.2322 896.936C68.5277 896.615 68.4024 896.643 68.0407 897.194ZM68.3009 905.299C67.6452 906.119 67.9014 906.852 68.9317 907.106C70.1018 907.394 70.5685 905.703 69.4635 905.179C68.6332 904.785 68.7188 904.776 68.3009 905.299ZM183.587 921.772C183.188 922.342 183.298 922.796 183.92 923.148C184.587 923.525 185.101 923.248 185.252 922.431C185.436 921.434 184.174 920.935 183.587 921.772ZM183.867 930.432C183.356 931.083 183.352 931.341 183.846 931.789C184.34 932.236 185.104 932.069 185.38 931.453C185.842 930.422 184.557 929.555 183.867 930.432ZM183.638 938.511C183.127 938.903 183.67 940.249 184.335 940.239C185.259 940.224 185.817 939.106 185.206 938.495C184.9 938.19 184.046 938.199 183.638 938.511ZM133.015 946.408C133.015 946.9 133.054 947.101 133.101 946.855C133.149 946.609 133.149 946.206 133.101 945.96C133.054 945.714 133.015 945.916 133.015 946.408ZM183.857 946.703C183.317 947.277 183.466 947.936 184.197 948.214C185.073 948.547 185.962 947.336 185.274 946.747C184.674 946.233 184.308 946.222 183.857 946.703ZM184.166 954.316C183.265 954.518 182.973 955.432 183.621 956.019C184.424 956.745 185.557 956 185.144 955.018C184.846 954.309 184.692 954.199 184.166 954.316ZM182.86 963.294C182.86 964.222 183.053 964.382 183.966 964.211C184.666 964.08 184.843 963.643 184.529 962.825C184.229 962.046 182.86 962.431 182.86 963.294ZM175.663 966.224C175 966.399 174.973 967.708 175.627 967.959C176.071 968.129 176.896 967.879 176.896 967.575C176.896 967.431 176.946 967.184 177.007 967.025C177.13 966.704 176.6 966.076 176.235 966.112C176.107 966.125 175.849 966.175 175.663 966.224ZM166.855 970.347C166.318 970.883 166.367 971.283 167.035 971.837C167.824 972.492 168.833 971.339 168.207 970.5C167.676 969.788 167.44 969.762 166.855 970.347Z" fill="white" stroke="white"/>
<path fill-rule="evenodd" clip-rule="evenodd" d="M170.435 899.093C170.503 899.202 170.687 899.292 170.844 899.292C171.002 899.292 171.138 899.448 171.147 899.64C171.158 899.896 171.192 899.914 171.274 899.707C171.334 899.552 171.221 899.306 171.021 899.16C170.594 898.847 170.26 898.809 170.435 899.093ZM166.26 899.888C165.908 900.04 165.925 900.061 166.41 900.073C166.71 900.08 166.956 899.997 166.956 899.888C166.956 899.655 166.804 899.655 166.26 899.888ZM158.955 901.814C158.413 901.956 158.546 902.23 159.103 902.124C159.377 902.071 159.6 901.95 159.6 901.853C159.6 901.67 159.527 901.665 158.955 901.814ZM156.939 909.138C157.12 909.416 157.308 909.603 157.355 909.555C157.473 909.437 156.959 908.636 156.765 908.636C156.68 908.636 156.758 908.862 156.939 909.138ZM171.142 910.385C172.57 911.286 172.595 911.299 172.454 911.071C172.31 910.836 170.651 909.828 170.411 909.828C170.327 909.828 170.656 910.079 171.142 910.385ZM160.426 910.402C160.278 910.495 160.189 910.717 160.227 910.893C160.279 911.136 160.353 911.094 160.526 910.72C160.653 910.448 160.742 910.227 160.725 910.229C160.708 910.23 160.574 910.308 160.426 910.402ZM158.209 911.08C158.209 911.271 159.226 912.81 159.352 912.81C159.441 912.81 159.124 912.273 158.477 911.324C158.329 911.109 158.209 910.999 158.209 911.08ZM183.253 915.885C183.389 916.05 183.571 916.143 183.656 916.091C183.74 916.038 183.92 916.129 184.055 916.292C184.19 916.454 184.446 916.581 184.624 916.572C184.895 916.559 184.899 916.538 184.65 916.446C184.485 916.386 184.217 916.228 184.053 916.095C183.541 915.679 182.954 915.525 183.253 915.885ZM171.33 916.086C171.33 916.128 171.598 916.354 171.926 916.588C172.254 916.821 172.522 916.939 172.521 916.85C172.521 916.76 172.252 916.534 171.925 916.348C171.598 916.162 171.33 916.044 171.33 916.086ZM188.029 918.644C188.029 918.716 188.208 918.953 188.427 919.172C188.645 919.39 188.825 919.494 188.825 919.401C188.825 919.309 188.645 919.072 188.427 918.874C188.208 918.676 188.029 918.573 188.029 918.644ZM186.717 920.008C186.893 920.277 186.969 920.57 186.887 920.661C186.804 920.752 186.849 920.762 186.986 920.682C187.254 920.528 187.032 919.913 186.616 919.656C186.496 919.581 186.542 919.74 186.717 920.008ZM161.518 920.071C161.658 920.433 162.531 920.615 162.938 920.368C163.208 920.203 163.165 920.186 162.732 920.284C162.42 920.355 162.185 920.323 162.185 920.211C162.185 920.102 162.013 919.969 161.802 919.913C161.544 919.846 161.452 919.897 161.518 920.071ZM181.22 922.137C181.467 922.373 181.668 922.758 181.668 922.99C181.668 923.223 181.723 923.358 181.791 923.29C182.032 923.049 181.656 922.162 181.218 921.936L180.773 921.707L181.22 922.137ZM188.734 924.255C188.763 924.919 189.023 925.125 189.023 924.485C189.023 924.2 188.953 923.924 188.868 923.871C188.783 923.818 188.723 923.991 188.734 924.255ZM181.815 925.683C181.763 926.093 181.78 926.496 181.855 926.58C181.93 926.663 182.011 926.328 182.037 925.834C182.093 924.748 181.947 924.648 181.815 925.683ZM187.085 928.416C187.088 928.853 187.128 929.009 187.176 928.762C187.224 928.515 187.222 928.156 187.172 927.966C187.122 927.776 187.083 927.979 187.085 928.416ZM179.924 933.486C179.924 933.868 179.966 934.025 180.015 933.833C180.066 933.642 180.066 933.329 180.015 933.138C179.966 932.946 179.924 933.103 179.924 933.486ZM188.897 933.836C188.924 934.184 189.008 934.53 189.084 934.606C189.29 934.813 189.245 933.829 189.033 933.494C188.902 933.287 188.863 933.385 188.897 933.836ZM187.284 938.157C187.286 938.595 187.327 938.75 187.375 938.503C187.422 938.256 187.42 937.898 187.37 937.708C187.321 937.518 187.282 937.72 187.284 938.157ZM187.334 940.444C187.258 940.787 187.238 941.11 187.288 941.161C187.339 941.211 187.438 940.967 187.507 940.618C187.577 940.268 187.598 939.946 187.552 939.9C187.508 939.856 187.409 940.1 187.334 940.444ZM189.134 943.606C189.073 943.705 189.104 943.996 189.203 944.252C189.368 944.679 189.382 944.664 189.372 944.072C189.36 943.393 189.317 943.31 189.134 943.606ZM187.483 945.513C187.485 945.95 187.526 946.106 187.573 945.858C187.621 945.611 187.619 945.253 187.569 945.063C187.52 944.873 187.481 945.076 187.483 945.513ZM187.479 947.799C187.479 948.182 187.52 948.338 187.57 948.147C187.62 947.956 187.62 947.642 187.57 947.451C187.52 947.26 187.479 947.417 187.479 947.799ZM189.268 947.799C189.268 948.182 189.309 948.338 189.359 948.147C189.409 947.956 189.409 947.642 189.359 947.451C189.309 947.26 189.268 947.417 189.268 947.799ZM187.433 951.333C187.433 951.673 187.506 951.996 187.596 952.051C187.791 952.172 187.765 951.047 187.569 950.851C187.494 950.776 187.433 950.993 187.433 951.333ZM187.663 960.909C187.638 961.335 187.691 961.728 187.78 961.784C187.946 961.886 187.962 960.389 187.798 960.225C187.749 960.176 187.688 960.484 187.663 960.909ZM189.529 963.195C189.584 963.626 189.672 964.021 189.724 964.073C189.89 964.239 189.798 963.222 189.609 962.809C189.478 962.52 189.455 962.625 189.529 963.195ZM181.171 970.766L180.574 971.266L181.32 970.844C181.73 970.613 182.065 970.387 182.065 970.343C182.065 970.143 181.718 970.307 181.171 970.766ZM153.748 971.92C153.493 972.107 153.467 972.188 153.66 972.195C153.811 972.2 154.113 972.267 154.332 972.342C154.692 972.467 154.697 972.459 154.378 972.255C154.184 972.13 154.078 971.944 154.141 971.842C154.301 971.583 154.174 971.609 153.748 971.92ZM150.266 972.29C150.261 972.584 150.352 972.884 150.469 972.956C150.801 973.161 150.819 972.997 150.536 972.351L150.275 971.755L150.266 972.29ZM157.712 973.246C157.931 973.34 158.244 973.416 158.408 973.416C158.596 973.416 158.559 973.353 158.308 973.246C158.09 973.152 157.777 973.075 157.612 973.075C157.425 973.075 157.462 973.138 157.712 973.246ZM161.71 974.544C161.892 974.821 162.079 975.008 162.126 974.961C162.244 974.843 161.73 974.041 161.536 974.041C161.451 974.041 161.529 974.267 161.71 974.544ZM159.172 975.377C159.536 975.446 159.615 975.56 159.53 975.896C159.426 976.31 159.433 976.312 159.703 975.95C160.068 975.462 159.91 975.227 159.241 975.261C158.746 975.286 158.74 975.295 159.172 975.377ZM172.821 975.734L172.224 976.232L172.869 975.882C173.224 975.69 173.515 975.465 173.515 975.383C173.517 975.166 173.477 975.186 172.821 975.734Z" fill="white" stroke="white"/>
<path fill-rule="evenodd" clip-rule="evenodd" d="M102.523 869.329C101.923 869.733 100.187 870.761 98.1712 871.904C97.7886 872.121 97.0907 872.557 96.6205 872.873C96.1504 873.189 95.7185 873.448 95.6603 873.448C95.533 873.448 90.2182 876.58 88.471 877.684C87.7829 878.119 87.1272 878.65 87.0128 878.863C86.8148 879.233 86.9357 896.608 87.1436 897.62C87.2173 897.98 89.3476 899.689 89.7222 899.689C89.7968 899.689 90.3679 900.047 90.9913 900.484C91.6147 900.922 92.2266 901.28 92.3505 901.28C92.4748 901.28 92.6947 901.397 92.839 901.541C92.9838 901.685 93.549 902.057 94.0957 902.369C94.6425 902.68 95.3668 903.139 95.7056 903.387C96.0444 903.635 96.7155 904.059 97.1966 904.329C97.6782 904.598 98.6533 905.184 99.3642 905.63C103.48 908.214 103.103 908.115 105.03 907.12C105.795 906.725 109.462 904.858 113.178 902.97C121.298 898.846 120.574 899.619 120.723 894.918C120.834 891.416 120.923 889.441 121.133 885.873C121.185 884.998 121.283 883.016 121.352 881.467L121.478 878.653L120.679 878.088C119.818 877.479 119.26 877.15 117.256 876.067C116.545 875.684 115.606 875.166 115.169 874.917C114.732 874.669 113.703 874.095 112.882 873.643C112.062 873.192 110.631 872.388 109.702 871.857C108.772 871.327 107.475 870.607 106.819 870.256C106.163 869.907 105.389 869.452 105.098 869.247C104.384 868.744 103.343 868.777 102.523 869.329ZM105.427 871.831C106.193 872.248 107.356 872.883 108.012 873.241C108.668 873.599 109.294 873.961 109.403 874.044C109.513 874.127 110.139 874.485 110.795 874.839C111.451 875.193 112.569 875.795 113.28 876.178C113.991 876.561 114.807 877.04 115.093 877.243C115.379 877.446 115.851 877.703 116.141 877.813C116.431 877.923 117.136 878.311 117.708 878.675C118.28 879.039 118.906 879.396 119.1 879.469C119.341 879.56 119.423 879.745 119.358 880.053C119.307 880.302 119.209 882.205 119.144 884.282C119.078 886.36 118.987 888.507 118.942 889.053C118.898 889.6 118.811 891.255 118.75 892.731C118.69 894.207 118.588 895.999 118.523 896.713L118.406 898.01L115.893 899.252C114.511 899.935 111.113 901.654 108.344 903.07L103.308 905.647L101.982 904.861C101.253 904.429 100.541 903.976 100.4 903.855C100.259 903.734 99.5876 903.321 98.9085 902.938C98.2299 902.555 97.5329 902.115 97.3603 901.959C97.1877 901.804 96.9643 901.676 96.8633 901.675C96.7628 901.673 96.0389 901.249 95.2554 900.73C94.4718 900.212 93.5773 899.635 93.2674 899.447C92.9579 899.258 92.5261 898.99 92.3087 898.85C92.0913 898.71 91.3087 898.217 90.5694 897.755C89.8301 897.292 89.2242 896.8 89.2227 896.662C89.2212 896.523 89.1675 892.652 89.1033 888.059L88.9869 879.71L90.249 878.987C90.9435 878.589 91.9584 878.019 92.5052 877.719C93.0519 877.419 93.6335 877.065 93.7977 876.933C93.9614 876.8 94.7116 876.343 95.4638 875.915C96.2165 875.487 97.111 874.973 97.4518 874.771C97.7926 874.57 99.1453 873.775 100.457 873.003C101.77 872.232 103.022 871.485 103.241 871.342C103.807 870.973 103.884 870.99 105.427 871.831ZM133.041 936.865C133.041 938.56 133.072 939.253 133.109 938.406C133.146 937.559 133.146 936.172 133.109 935.324C133.072 934.477 133.041 935.17 133.041 936.865ZM135.026 936.965C135.026 938.276 135.058 938.787 135.097 938.1C135.136 937.412 135.135 936.339 135.096 935.714C135.057 935.09 135.025 935.652 135.026 936.965ZM165.42 935.672C165.42 936.164 165.459 936.366 165.506 936.12C165.554 935.874 165.554 935.471 165.506 935.225C165.459 934.979 165.42 935.18 165.42 935.672ZM167.4 935.672C167.4 936.055 167.441 936.211 167.491 936.02C167.541 935.829 167.541 935.516 167.491 935.324C167.441 935.133 167.4 935.289 167.4 935.672ZM167.201 940.046C167.201 940.429 167.242 940.585 167.292 940.394C167.342 940.202 167.342 939.889 167.292 939.698C167.242 939.507 167.201 939.663 167.201 940.046ZM133.021 941.04C133.021 941.641 133.058 941.887 133.104 941.587C133.149 941.286 133.149 940.794 133.104 940.493C133.058 940.192 133.021 940.439 133.021 941.04ZM135.21 947.103C135.211 947.759 135.248 948.004 135.292 947.646C135.336 947.289 135.335 946.752 135.29 946.454C135.245 946.155 135.209 946.447 135.21 947.103ZM133.239 949.887C133.239 951.417 133.27 952.017 133.308 951.22C133.346 950.422 133.345 949.17 133.308 948.436C133.269 947.703 133.239 948.356 133.239 949.887ZM135.18 950.024C135.162 950.974 135.215 951.794 135.297 951.844C135.379 951.896 135.422 951.386 135.391 950.713C135.292 948.521 135.213 948.261 135.18 950.024ZM164.621 952.073C164.623 952.511 164.664 952.666 164.711 952.419C164.759 952.172 164.757 951.814 164.707 951.624C164.658 951.434 164.619 951.636 164.621 952.073ZM166.616 952.67C166.617 953.216 166.656 953.416 166.701 953.114C166.747 952.812 166.746 952.365 166.699 952.12C166.652 951.876 166.614 952.123 166.616 952.67Z" fill="white" stroke="white"/>
<defs>
<linearGradient id="paint0_linear_953_48" x1="512" y1="724" x2="512" y2="1024" gradientUnits="userSpaceOnUse">
<stop stop-color="#580281" stop-opacity="0"/>
<stop offset="0.583337" stop-color="#5F008B"/>
</linearGradient>
</defs>
</svg>
