<svg width="512" height="512" viewBox="0 0 512 512" fill="none" xmlns="http://www.w3.org/2000/svg">
<g clip-path="url(#clip0_1747_324)">
<rect y="402" width="512" height="110" fill="url(#paint0_linear_1747_324)"/>
<path d="M0 448.024H75V465.024H0V448.024Z" fill="white"/>
<path d="M112.79 472.109C108.92 472.109 105.605 471.509 102.845 470.309C100.115 469.079 98.015 467.339 96.545 465.089C95.105 462.839 94.385 460.139 94.385 456.989C94.385 453.809 95.105 451.094 96.545 448.844C98.015 446.594 100.115 444.869 102.845 443.669C105.605 442.439 108.92 441.824 112.79 441.824C116.69 441.824 120.005 442.439 122.735 443.669C125.465 444.869 127.55 446.594 128.99 448.844C130.46 451.094 131.195 453.809 131.195 456.989C131.195 460.139 130.46 462.839 128.99 465.089C127.55 467.339 125.465 469.079 122.735 470.309C120.005 471.509 116.69 472.109 112.79 472.109ZM112.79 466.934C115.19 466.934 117.29 466.574 119.09 465.854C120.92 465.134 122.345 464.039 123.365 462.569C124.415 461.099 124.94 459.239 124.94 456.989C124.94 454.739 124.415 452.879 123.365 451.409C122.345 449.939 120.92 448.844 119.09 448.124C117.29 447.374 115.19 446.999 112.79 446.999C110.42 446.999 108.305 447.374 106.445 448.124C104.585 448.844 103.13 449.939 102.08 451.409C101.03 452.879 100.505 454.739 100.505 456.989C100.505 459.239 101.03 461.099 102.08 462.569C103.13 464.039 104.585 465.134 106.445 465.854C108.305 466.574 110.42 466.934 112.79 466.934ZM136.272 449.159H142.122V471.524H136.272V449.159ZM150.717 453.974C149.037 453.974 147.582 454.304 146.352 454.964C145.122 455.594 144.132 456.374 143.382 457.304C142.632 458.234 142.107 459.134 141.807 460.004L141.762 457.529C141.792 457.169 141.912 456.644 142.122 455.954C142.332 455.234 142.647 454.469 143.067 453.659C143.487 452.819 144.042 452.024 144.732 451.274C145.422 450.494 146.262 449.864 147.252 449.384C148.242 448.904 149.397 448.664 150.717 448.664V453.974ZM165.494 468.104C163.064 468.104 160.919 467.744 159.059 467.024C157.229 466.274 155.804 465.179 154.784 463.739C153.764 462.299 153.254 460.559 153.254 458.519C153.254 456.509 153.749 454.769 154.739 453.299C155.729 451.829 157.139 450.689 158.969 449.879C160.829 449.069 163.004 448.664 165.494 448.664C166.184 448.664 166.844 448.709 167.474 448.799C168.134 448.889 168.779 449.009 169.409 449.159L180.704 449.204V453.614C179.174 453.644 177.614 453.464 176.024 453.074C174.464 452.654 173.084 452.204 171.884 451.724L171.749 451.409C172.769 451.889 173.729 452.489 174.629 453.209C175.529 453.899 176.249 454.709 176.789 455.639C177.359 456.539 177.644 457.589 177.644 458.789C177.644 460.739 177.149 462.419 176.159 463.829C175.169 465.209 173.759 466.274 171.929 467.024C170.129 467.744 167.984 468.104 165.494 468.104ZM173.009 480.749V479.669C173.009 478.289 172.559 477.329 171.659 476.789C170.789 476.249 169.589 475.979 168.059 475.979H161.084C159.734 475.979 158.594 475.874 157.664 475.664C156.764 475.454 156.044 475.154 155.504 474.764C154.964 474.374 154.574 473.909 154.334 473.369C154.094 472.859 153.974 472.304 153.974 471.704C153.974 470.504 154.364 469.604 155.144 469.004C155.924 468.374 156.974 467.954 158.294 467.744C159.614 467.534 161.069 467.489 162.659 467.609L165.494 468.104C163.604 468.164 162.194 468.329 161.264 468.599C160.364 468.839 159.914 469.334 159.914 470.084C159.914 470.534 160.094 470.894 160.454 471.164C160.814 471.404 161.324 471.524 161.984 471.524H169.319C171.329 471.524 173.039 471.734 174.449 472.154C175.889 472.604 176.984 473.339 177.734 474.359C178.484 475.409 178.859 476.834 178.859 478.634V480.749H173.009ZM165.494 463.874C166.784 463.874 167.909 463.664 168.869 463.244C169.859 462.824 170.624 462.224 171.164 461.444C171.704 460.634 171.974 459.674 171.974 458.564C171.974 457.424 171.704 456.449 171.164 455.639C170.624 454.829 169.874 454.214 168.914 453.794C167.954 453.344 166.814 453.119 165.494 453.119C164.204 453.119 163.064 453.344 162.074 453.794C161.084 454.214 160.319 454.829 159.779 455.639C159.239 456.449 158.969 457.424 158.969 458.564C158.969 459.674 159.239 460.634 159.779 461.444C160.319 462.224 161.069 462.824 162.029 463.244C163.019 463.664 164.174 463.874 165.494 463.874ZM195.019 472.019C192.799 472.019 190.774 471.539 188.944 470.579C187.144 469.589 185.704 468.224 184.624 466.484C183.574 464.714 183.049 462.674 183.049 460.364C183.049 457.994 183.589 455.939 184.669 454.199C185.749 452.459 187.204 451.109 189.034 450.149C190.894 449.159 192.994 448.664 195.334 448.664C197.914 448.664 199.984 449.189 201.544 450.239C203.134 451.259 204.289 452.654 205.009 454.424C205.729 456.194 206.089 458.174 206.089 460.364C206.089 461.684 205.879 463.034 205.459 464.414C205.039 465.764 204.394 467.024 203.524 468.194C202.654 469.334 201.514 470.264 200.104 470.984C198.694 471.674 196.999 472.019 195.019 472.019ZM196.909 467.519C198.679 467.519 200.209 467.219 201.499 466.619C202.789 466.019 203.779 465.179 204.469 464.099C205.159 463.019 205.504 461.774 205.504 460.364C205.504 458.834 205.144 457.544 204.424 456.494C203.734 455.414 202.744 454.604 201.454 454.064C200.194 453.494 198.679 453.209 196.909 453.209C194.419 453.209 192.484 453.869 191.104 455.189C189.724 456.479 189.034 458.204 189.034 460.364C189.034 461.804 189.364 463.064 190.024 464.144C190.684 465.194 191.599 466.019 192.769 466.619C193.969 467.219 195.349 467.519 196.909 467.519ZM205.504 449.159H211.354V471.524H205.909C205.909 471.524 205.864 471.239 205.774 470.669C205.714 470.069 205.654 469.319 205.594 468.419C205.534 467.519 205.504 466.634 205.504 465.764V449.159ZM216.648 449.159H222.498V471.524H216.648V449.159ZM232.893 448.664C234.273 448.664 235.548 448.844 236.718 449.204C237.888 449.564 238.908 450.119 239.778 450.869C240.648 451.619 241.323 452.579 241.803 453.749C242.283 454.889 242.523 456.254 242.523 457.844V471.524H236.673V458.879C236.673 456.989 236.208 455.609 235.278 454.739C234.378 453.839 232.893 453.389 230.823 453.389C229.263 453.389 227.853 453.689 226.593 454.289C225.333 454.889 224.313 455.654 223.533 456.584C222.753 457.484 222.303 458.429 222.183 459.419L222.138 457.124C222.288 456.074 222.633 455.054 223.173 454.064C223.713 453.074 224.433 452.174 225.333 451.364C226.263 450.524 227.358 449.864 228.618 449.384C229.878 448.904 231.303 448.664 232.893 448.664ZM254.554 439.349V444.479H247.759V439.349H254.554ZM248.209 449.159H254.059V471.524H248.209V449.159ZM282.345 453.614L264.57 468.824L263.94 467.114H282.66V471.524H259.755V467.114L277.53 451.904L278.16 453.614H259.755V449.159H282.345V453.614ZM307.961 464.099H313.631C313.391 465.629 312.746 466.994 311.696 468.194C310.676 469.394 309.281 470.339 307.511 471.029C305.741 471.719 303.581 472.064 301.031 472.064C298.181 472.064 295.661 471.614 293.471 470.714C291.281 469.784 289.571 468.449 288.341 466.709C287.111 464.969 286.496 462.869 286.496 460.409C286.496 457.949 287.096 455.849 288.296 454.109C289.496 452.339 291.161 450.989 293.291 450.059C295.451 449.129 297.971 448.664 300.851 448.664C303.791 448.664 306.236 449.129 308.186 450.059C310.136 450.989 311.576 452.399 312.506 454.289C313.466 456.149 313.871 458.534 313.721 461.444H292.391C292.541 462.584 292.961 463.619 293.651 464.549C294.371 465.479 295.331 466.214 296.531 466.754C297.761 467.294 299.216 467.564 300.896 467.564C302.756 467.564 304.301 467.249 305.531 466.619C306.791 465.959 307.601 465.119 307.961 464.099ZM300.581 453.119C298.421 453.119 296.666 453.599 295.316 454.559C293.966 455.489 293.096 456.644 292.706 458.024H307.916C307.766 456.524 307.046 455.339 305.756 454.469C304.496 453.569 302.771 453.119 300.581 453.119ZM318.074 449.159H323.924V471.524H318.074V449.159ZM332.519 453.974C330.839 453.974 329.384 454.304 328.154 454.964C326.924 455.594 325.934 456.374 325.184 457.304C324.434 458.234 323.909 459.134 323.609 460.004L323.564 457.529C323.594 457.169 323.714 456.644 323.924 455.954C324.134 455.234 324.449 454.469 324.869 453.659C325.289 452.819 325.844 452.024 326.534 451.274C327.224 450.494 328.064 449.864 329.054 449.384C330.044 448.904 331.199 448.664 332.519 448.664V453.974Z" fill="white"/>
<path d="M362.392 428.002L379.089 431.866L384.091 448.259L372.396 460.787L355.699 456.922L350.697 440.53L362.392 428.002Z" fill="#29BAF8"/>
<path fill-rule="evenodd" clip-rule="evenodd" d="M362.719 426.815C362.27 426.711 361.8 426.854 361.485 427.191L349.79 439.719C349.475 440.056 349.364 440.536 349.499 440.977L354.501 457.369C354.635 457.81 354.995 458.146 355.444 458.25L372.141 462.114C372.59 462.218 373.061 462.075 373.376 461.737L385.071 449.21C385.386 448.872 385.497 448.393 385.362 447.952L380.36 431.56C380.226 431.119 379.866 430.783 379.417 430.679L362.719 426.815ZM352.595 442.279L356.752 455.903L370.483 459.081L366.674 445.657C366.667 445.634 366.662 445.611 366.656 445.588C366.652 445.587 366.647 445.586 366.643 445.585L352.595 442.279ZM369.2 445.101L372.971 458.388L382.675 447.993L378.659 434.831L369.2 445.101ZM362.863 429.498L377.039 432.779L367.481 443.157C367.403 443.121 367.321 443.092 367.234 443.072L353.261 439.784L362.863 429.498Z" fill="#039FE2"/>
<path d="M404.486 451.741L387.357 452.299L379.276 467.413L388.324 481.968L405.453 481.41L413.535 466.296L404.486 451.741Z" fill="#7B69EC"/>
<path fill-rule="evenodd" clip-rule="evenodd" d="M404.444 450.451C404.905 450.436 405.339 450.668 405.583 451.059L414.631 465.615C414.874 466.006 414.89 466.498 414.673 466.905L406.592 482.018C406.374 482.425 405.956 482.685 405.495 482.7L388.366 483.258C387.905 483.273 387.471 483.041 387.228 482.649L378.18 468.094C377.936 467.702 377.92 467.21 378.138 466.804L386.219 451.69C386.436 451.283 386.854 451.024 387.315 451.009L404.444 450.451ZM411.382 467.583L404.666 480.144L390.58 480.603L396.916 468.171C396.927 468.15 396.937 468.128 396.947 468.106C396.952 468.106 396.956 468.106 396.961 468.106L411.382 467.583ZM394.546 467.136L388.274 479.442L380.766 467.364L387.254 455.229L394.546 467.136ZM403.784 453.055L389.241 453.529L396.609 465.562C396.692 465.541 396.779 465.529 396.867 465.526L411.213 465.006L403.784 453.055Z" fill="#543CE6"/>
<path d="M436.6 448.024H511.6V465.024H436.6V448.024Z" fill="white"/>
</g>
<defs>
<linearGradient id="paint0_linear_1747_324" x1="256" y1="512" x2="256" y2="402" gradientUnits="userSpaceOnUse">
<stop stop-color="#7B69EC"/>
<stop offset="1" stop-color="#33C2FF"/>
</linearGradient>
<clipPath id="clip0_1747_324">
<rect width="512" height="512" fill="white"/>
</clipPath>
</defs>
</svg>
