<svg width="4521" height="4522" viewBox="0 0 4521 4522" fill="none" xmlns="http://www.w3.org/2000/svg">
<path d="M1271.77 3170C1535.16 3170 1756.53 3341.5 1819.76 3573.77C1875.78 3537.1 1942.16 3517.51 2010.11 3517.6C2161.65 3517.6 2289.83 3612.94 2332.26 3744.14C2366.44 3719.33 2408.48 3704.7 2453.93 3704.7C2518.46 3704.7 2576.1 3734.17 2614.14 3780.4C2673.15 3603.32 2869.3 3473.26 3102.17 3473.26C3337.68 3473.26 3535.61 3606.28 3592.14 3786.42C3642.23 3757.98 3701.59 3742.79 3762.34 3742.86C3928.79 3742.86 4063.72 3854.45 4063.72 3992.1C4063.7 4010.92 4061.12 4029.69 4056 4048.03C4078.36 4043.47 4101.72 4041.01 4125.77 4041.01C4286.17 4041.01 4416.2 4148.54 4416.2 4281.19C4416.2 4413.84 4286.17 4521.38 4125.77 4521.38H2595.98C2592.19 4521.38 2588.41 4521.33 2584.65 4521.24C2581.5 4521.33 2578.28 4521.38 2575 4521.38H705.64C470.563 4521.38 280 4339.69 280 4115.57C280 3891.44 470.568 3709.76 705.64 3709.76C705.64 3411.66 959.105 3170 1271.77 3170Z" fill="url(#paint0_linear_7584_2243)" fill-opacity="0.75"/>
<g filter="url(#filter0_d_7584_2243)">
<path d="M2974.11 3683.14C2984.78 3669.88 3012.56 3664.56 3025.12 3663.56C3013.61 3662.3 2987.61 3657.08 2975.68 3646.23C2963.75 3635.38 2957.1 3607.56 2955.27 3595C2953.44 3606.8 2946.48 3633.57 2933.3 3646.23C2916.82 3662.05 2864.23 3663.56 2884.64 3663.56C2905.04 3663.56 2929.37 3677.12 2938.01 3683.14C2944.91 3687.96 2952.39 3715.79 2955.27 3729.1C2957.1 3719.3 2963.43 3696.4 2974.11 3683.14Z" fill="#0B2557"/>
</g>
<g filter="url(#filter1_d_7584_2243)">
<path d="M3814.93 3880.02C3823.31 3869.63 3845.14 3865.47 3855 3864.68C3845.96 3863.7 3825.53 3859.61 3816.16 3851.11C3806.79 3842.62 3801.57 3820.83 3800.13 3811C3798.69 3820.24 3793.22 3841.2 3782.87 3851.11C3769.92 3863.5 3728.61 3864.68 3744.64 3864.68C3760.67 3864.68 3779.78 3875.3 3786.57 3880.02C3791.99 3883.79 3797.87 3905.58 3800.13 3916C3801.57 3908.33 3806.54 3890.4 3814.93 3880.02Z" fill="#0B2557"/>
</g>
<g filter="url(#filter2_d_7584_2243)">
<path d="M3955.11 3961.95C3960.68 3955.04 3975.18 3952.26 3981.73 3951.74C3975.73 3951.09 3962.16 3948.36 3955.93 3942.71C3949.7 3937.05 3946.24 3922.55 3945.28 3916C3944.33 3922.15 3940.69 3936.11 3933.81 3942.71C3925.21 3950.96 3897.77 3951.74 3908.42 3951.74C3919.07 3951.74 3931.76 3958.81 3936.27 3961.95C3939.87 3964.47 3943.78 3978.97 3945.28 3985.91C3946.24 3980.8 3949.54 3968.86 3955.11 3961.95Z" fill="#0B2557"/>
</g>
<g filter="url(#filter3_d_7584_2243)">
<path d="M3191.11 3570.95C3196.68 3564.04 3211.18 3561.26 3217.73 3560.74C3211.73 3560.09 3198.16 3557.36 3191.93 3551.71C3185.7 3546.05 3182.24 3531.55 3181.28 3525C3180.33 3531.15 3176.69 3545.11 3169.81 3551.71C3161.21 3559.95 3133.77 3560.74 3144.42 3560.74C3155.07 3560.74 3167.76 3567.81 3172.27 3570.95C3175.87 3573.47 3179.78 3587.97 3181.28 3594.91C3182.24 3589.8 3185.54 3577.86 3191.11 3570.95Z" fill="#0B2557"/>
</g>
<g filter="url(#filter4_d_7584_2243)">
<path d="M3327.11 3739.95C3332.68 3733.04 3347.18 3730.26 3353.73 3729.74C3347.73 3729.09 3334.16 3726.36 3327.93 3720.71C3321.7 3715.05 3318.24 3700.55 3317.28 3694C3316.33 3700.15 3312.69 3714.11 3305.81 3720.71C3297.21 3728.96 3269.77 3729.74 3280.42 3729.74C3291.07 3729.74 3303.76 3736.81 3308.27 3739.95C3311.87 3742.47 3315.78 3756.97 3317.28 3763.91C3318.24 3758.8 3321.54 3746.86 3327.11 3739.95Z" fill="#0B2557"/>
</g>
<g filter="url(#filter5_d_7584_2243)">
<path d="M1390.1 3421.11C1399.09 3409.9 1422.49 3405.4 1433.07 3404.55C1423.37 3403.48 1401.47 3399.07 1391.42 3389.89C1381.38 3380.72 1375.78 3357.19 1374.24 3346.57C1372.7 3356.55 1366.84 3379.19 1355.73 3389.89C1341.85 3403.27 1297.57 3404.55 1314.75 3404.55C1331.94 3404.55 1352.43 3416.01 1359.7 3421.11C1365.51 3425.19 1371.82 3448.72 1374.24 3459.97C1375.78 3451.69 1381.11 3432.32 1390.1 3421.11Z" fill="#0B2557"/>
<path d="M1408.51 3439.08C1426.49 3416.65 1473.29 3407.65 1494.44 3405.95C1475.05 3403.83 1431.25 3394.99 1411.16 3376.64C1391.06 3358.3 1379.87 3311.24 1376.79 3290C1373.7 3309.96 1361.98 3355.24 1339.77 3376.64C1312.01 3403.4 1223.44 3405.95 1257.81 3405.95C1292.18 3405.95 1333.16 3428.88 1347.7 3439.08C1359.34 3447.23 1371.94 3494.29 1376.79 3516.8C1379.87 3500.24 1390.54 3461.5 1408.51 3439.08Z" fill="#0B2557"/>
<path d="M1627.55 3705.46C1634.87 3696.36 1653.93 3692.71 1662.54 3692.02C1654.65 3691.16 1636.81 3687.58 1628.63 3680.14C1620.45 3672.7 1615.89 3653.61 1614.63 3645C1613.38 3653.1 1608.6 3671.46 1599.56 3680.14C1588.25 3690.99 1552.19 3692.02 1566.18 3692.02C1580.18 3692.02 1596.87 3701.33 1602.79 3705.46C1607.53 3708.77 1612.66 3727.85 1614.63 3736.98C1615.89 3730.26 1620.23 3714.55 1627.55 3705.46Z" fill="#0B2557"/>
<path d="M2024.34 3622.04C2029.71 3615.41 2043.68 3612.75 2050 3612.25C2044.21 3611.63 2031.13 3609.02 2025.13 3603.6C2019.13 3598.18 2015.78 3584.27 2014.86 3578C2013.94 3583.9 2010.44 3597.27 2003.81 3603.6C1995.52 3611.5 1969.07 3612.25 1979.33 3612.25C1989.6 3612.25 2001.84 3619.03 2006.18 3622.04C2009.65 3624.45 2013.42 3638.35 2014.86 3645C2015.78 3640.11 2018.97 3628.66 2024.34 3622.04Z" fill="#0B2557"/>
<path d="M614.339 3823.04C619.708 3816.41 633.683 3813.75 640 3813.25C634.21 3812.63 621.129 3810.02 615.128 3804.6C609.127 3799.18 605.785 3785.27 604.863 3779C603.942 3784.9 600.442 3798.27 593.809 3804.6C585.519 3812.5 559.068 3813.25 569.332 3813.25C579.597 3813.25 591.835 3820.03 596.178 3823.04C599.652 3825.45 603.416 3839.35 604.863 3846C605.785 3841.11 608.969 3829.66 614.339 3823.04Z" fill="#0B2557"/>
</g>
<path d="M895.779 4376.25C806.529 4376.25 707.829 4317.45 707.829 4185.67C707.829 4081.73 784.479 3999.3 895.779 3999.3C984.504 3999.3 1083.2 4060.2 1083.2 4188.82C1083.2 4316.92 983.979 4376.25 895.779 4376.25ZM762.429 4153.65C769.779 4258.65 836.454 4359.97 925.704 4359.97C1006.03 4359.97 1034.9 4299.6 1030.18 4230.3C1022.3 4118.47 959.304 4012.95 868.479 4012.95C797.079 4012.95 756.654 4068.6 762.429 4153.65ZM1438.79 4374.68C1395.22 4374.68 1384.72 4346.32 1359.52 4284.9C1328.02 4208.25 1325.39 4182.52 1279.19 4182.52H1248.22V4304.32C1248.22 4342.12 1251.89 4357.87 1269.22 4363.65V4371H1171.57V4363.65C1188.89 4357.87 1192.57 4342.12 1192.57 4304.32V4070.17C1192.57 4032.37 1188.89 4016.62 1171.57 4010.85V4003.5H1281.82C1396.27 4003.5 1419.89 4044.97 1419.89 4087.5C1419.89 4135.8 1386.82 4172.02 1316.99 4180.42C1376.32 4187.25 1387.87 4211.92 1415.69 4281.75C1443.52 4351.57 1449.29 4364.17 1468.72 4364.17C1471.34 4364.17 1473.97 4364.17 1476.59 4363.65V4371C1464.52 4374.15 1447.72 4374.68 1438.79 4374.68ZM1248.22 4174.12H1281.82C1341.67 4174.12 1364.24 4140.52 1364.24 4100.1C1364.24 4057.57 1336.94 4011.9 1271.32 4011.9C1263.97 4011.9 1256.09 4012.42 1248.22 4013.47V4174.12ZM1708.31 4376.25C1587.56 4376.25 1510.38 4300.65 1510.38 4185.67C1510.38 4084.87 1589.66 3999.82 1707.78 3999.82C1740.33 3999.82 1794.41 4007.17 1821.71 4025.55L1823.81 4094.85L1817.51 4096.42C1795.98 4042.35 1740.86 4009.8 1688.36 4009.8C1619.58 4009.8 1566.56 4056 1565.51 4151.02C1564.46 4250.25 1624.83 4363.65 1725.63 4363.65C1758.71 4363.65 1788.63 4350 1801.76 4323.75V4275.97C1801.76 4235.02 1797.03 4220.32 1774.46 4214.02V4206.67H1855.83V4303.27C1816.46 4354.72 1751.88 4376.25 1708.31 4376.25ZM1903.56 4371V4363.65C1919.31 4357.87 1933.48 4344.22 1947.66 4309.05L2045.83 4065.45C2050.03 4054.95 2049.51 4046.55 2044.78 4037.1L2037.96 4022.4L2089.41 3999.3L2219.61 4309.57C2234.31 4344.22 2247.96 4357.87 2260.03 4363.65V4371H2164.48V4363.65C2181.81 4357.87 2174.46 4344.22 2159.76 4309.57L2128.26 4233.97H1988.08L1957.63 4309.05C1943.46 4344.22 1946.61 4359.45 1964.46 4363.65V4371H1903.56ZM1991.23 4225.57H2124.58L2056.86 4063.35L1991.23 4225.57ZM2590.04 4375.2L2343.81 4064.4V4272.82C2343.81 4336.87 2356.41 4355.25 2383.71 4363.65V4371H2313.36V4363.65C2330.69 4357.87 2334.36 4342.12 2334.36 4304.32V4070.17C2334.36 4032.37 2329.64 4016.62 2307.06 4010.85V4003.5H2366.39L2586.89 4279.65V4101.67C2586.89 4037.62 2574.29 4019.25 2546.99 4010.85V4003.5H2617.86V4010.85C2600.54 4016.62 2596.86 4032.37 2596.86 4070.17V4375.2H2590.04ZM2697.72 4371V4363.65C2715.04 4357.87 2718.72 4342.12 2718.72 4304.32V4070.17C2718.72 4032.37 2715.04 4016.62 2697.72 4010.85V4003.5H2795.37V4010.85C2778.04 4016.62 2774.37 4032.37 2774.37 4070.17V4304.32C2774.37 4342.12 2778.04 4357.87 2795.37 4363.65V4371H2697.72ZM2865.34 4371V4363.12L3051.19 4012.95H2981.89C2928.86 4012.95 2901.04 4028.7 2880.04 4084.35H2873.21L2883.19 4003.5H3117.34V4011.37L2928.86 4361.55H3012.34C3065.36 4361.55 3093.19 4345.8 3114.19 4290.15H3121.01L3111.04 4371H2865.34ZM3193.68 4371V4363.65C3211 4357.87 3214.68 4342.12 3214.68 4304.32V4070.17C3214.68 4032.37 3211 4016.62 3193.68 4010.85V4003.5H3445.68L3451.45 4077.52L3444.63 4079.1C3423.63 4027.65 3390.55 4011.9 3331.75 4011.9H3270.33V4169.4H3320.73C3384.78 4169.4 3403.15 4156.8 3411.55 4129.5H3418.9V4217.7H3411.55C3403.15 4190.4 3384.78 4177.8 3320.73 4177.8H3270.33V4336.35C3270.33 4353.15 3279.78 4362.6 3296.58 4362.6H3346.98C3400 4362.6 3436.23 4346.85 3456.18 4293.3L3463 4294.35L3459.33 4371H3193.68ZM3809.89 4374.68C3766.31 4374.68 3755.81 4346.32 3730.61 4284.9C3699.11 4208.25 3696.49 4182.52 3650.29 4182.52H3619.31V4304.32C3619.31 4342.12 3622.99 4357.87 3640.31 4363.65V4371H3542.66V4363.65C3559.99 4357.87 3563.66 4342.12 3563.66 4304.32V4070.17C3563.66 4032.37 3559.99 4016.62 3542.66 4010.85V4003.5H3652.91C3767.36 4003.5 3790.99 4044.97 3790.99 4087.5C3790.99 4135.8 3757.91 4172.02 3688.09 4180.42C3747.41 4187.25 3758.96 4211.92 3786.79 4281.75C3814.61 4351.57 3820.39 4364.17 3839.81 4364.17C3842.44 4364.17 3845.06 4364.17 3847.69 4363.65V4371C3835.61 4374.15 3818.81 4374.68 3809.89 4374.68ZM3619.31 4174.12H3652.91C3712.76 4174.12 3735.34 4140.52 3735.34 4100.1C3735.34 4057.57 3708.04 4011.9 3642.41 4011.9C3635.06 4011.9 3627.19 4012.42 3619.31 4013.47V4174.12Z" fill="#0B2557"/>
<path d="M1005.21 3400.5C1014.99 3396.01 1024.96 3392.49 1035.02 3389.89C967.205 3439.01 940.788 3531.39 976.48 3611.28C1012.63 3692.21 1100.32 3733.01 1182.36 3711.86C1173.06 3718.59 1162.99 3724.52 1152.18 3729.48C1062.6 3770.64 957.075 3730.36 916.488 3639.51C875.902 3548.67 915.623 3441.66 1005.21 3400.5Z" fill="#0B2557"/>
<path d="M324.373 149.652C309.782 150.401 309.782 150.401 294.443 155.638C283.893 172.902 282.037 182.319 284.715 202.405C286.567 208.887 286.567 208.887 288.457 215.5C270.678 217.475 252.899 219.451 234.581 221.486C228.595 239.444 228.595 239.444 234.581 257.403C238.532 257.403 242.483 257.403 246.554 257.403C247.14 260.736 247.727 264.07 248.331 267.504C255.009 301.587 265.843 328.684 282.471 359.167C277.1 361.759 277.1 361.759 271.621 364.405C258.526 371.139 258.526 371.139 240.568 383.111C228.212 380.196 228.212 380.196 216.623 371.139C212.572 350.767 212.572 350.767 210.637 329.236C204.277 314.645 204.277 314.645 198.665 305.292C192.738 305.292 186.812 305.292 180.706 305.292C184.208 328.137 191.067 344.73 202.406 364.779C215.517 390.36 218.874 402.76 210.637 431C200.217 496.311 200.217 496.311 216.623 526.778C249.446 541.059 287.227 520.451 318.387 508.82C367.931 488.176 412.231 463.688 450.082 425.014C441.659 398.214 429.82 383.03 408.179 365.153C389.126 355.974 369.768 347.194 348.318 347.194C338.92 322.07 334.716 300.712 334.077 273.935C333.873 267.055 333.668 260.176 333.458 253.088C333.3 245.993 333.141 238.898 332.978 231.587C332.621 217.393 332.241 203.199 331.833 189.006C331.689 182.746 331.546 176.485 331.399 170.035C330.36 155.638 330.36 155.638 324.373 149.652Z" fill="#283335"/>
<path d="M270.514 155.64C256.686 155.64 242.858 155.64 228.611 155.64C228.611 163.541 228.611 171.443 228.611 179.584C222.685 179.584 216.759 179.584 210.653 179.584C204.476 323.222 204.476 323.222 240.584 377.126C258.313 373.458 266.806 369.621 282.487 359.168C271.383 324.931 258.955 291.192 246.57 257.404C242.619 257.404 238.668 257.404 234.598 257.404C234.598 247.527 234.598 237.65 234.598 227.473C261.266 221.547 261.266 221.547 288.473 215.501C288.473 205.624 288.473 195.747 288.473 185.57C284.522 183.595 280.571 181.619 276.5 179.584C272.597 167.464 272.597 167.464 270.514 155.64Z" fill="#4C5E5D"/>
<path d="M264.52 0C252.667 0 240.814 0 228.603 0C228.603 47.4101 228.603 94.8202 228.603 143.667C240.455 143.667 252.308 143.667 264.52 143.667C264.52 96.2569 264.52 48.8468 264.52 0Z" fill="#C4D3D0"/>
<path d="M282.478 215.497C264.699 218.46 264.699 218.46 246.561 221.483C251.995 239.456 257.292 255.375 267.139 271.43C276.879 287.988 283.258 304.012 289.587 322.125C291.647 327.966 293.707 333.808 295.83 339.826C297.35 344.232 298.87 348.638 300.437 353.178C310.314 351.203 320.191 349.227 330.367 347.192C317.708 302.119 303.47 257.48 282.478 215.497Z" fill="#1A2224"/>
<path d="M318.391 143.664C308.228 144.416 308.228 144.416 297.86 145.184C288.99 145.802 280.12 146.417 271.25 147.031C266.782 147.367 262.314 147.703 257.711 148.048C233.444 150.452 233.444 150.452 210.64 143.664C202.323 168.616 202.55 193.759 201.556 219.847C201.01 230.399 199.883 240.918 198.668 251.414C194.717 253.39 190.766 255.365 186.696 257.4C188.671 265.302 190.647 273.204 192.682 281.345C188.731 281.345 184.78 281.345 180.71 281.345C180.71 285.296 180.71 289.247 180.71 293.317C186.636 293.317 192.562 293.317 198.668 293.317C202.619 297.268 206.57 301.219 210.64 305.289C210.64 263.806 210.64 222.322 210.64 179.581C220.517 181.556 230.395 183.532 240.571 185.567C240.571 175.69 240.571 165.813 240.571 155.636C250.448 155.636 260.325 155.636 270.502 155.636C270.502 165.513 270.502 175.391 270.502 185.567C282.1 180.703 282.1 180.703 294.446 173.595C296.422 167.668 298.397 161.742 300.432 155.636C306.359 155.636 312.285 155.636 318.391 155.636C318.391 151.685 318.391 147.735 318.391 143.664Z" fill="#192022"/>
<path d="M270.514 155.64C256.686 155.64 242.858 155.64 228.611 155.64C228.611 163.541 228.611 171.443 228.611 179.584C222.685 179.584 216.759 179.584 210.653 179.584C210.653 189.461 210.653 199.338 210.653 209.515C228.432 206.552 228.432 206.552 246.57 203.529C246.57 209.455 246.57 215.381 246.57 221.487C260.398 219.512 274.226 217.536 288.473 215.501C288.473 205.624 288.473 195.747 288.473 185.57C284.522 183.595 280.571 181.619 276.5 179.584C272.597 167.464 272.597 167.464 270.514 155.64Z" fill="#909F9E"/>
<path d="M264.52 0C258.593 0 252.667 0 246.561 0C246.561 47.4101 246.561 94.8202 246.561 143.667C252.487 143.667 258.414 143.667 264.52 143.667C264.52 96.2569 264.52 48.8468 264.52 0Z" fill="#A5B7B5"/>
<path d="M330.35 155.64C328.375 155.64 326.399 155.64 324.364 155.64C322.389 195.148 320.413 234.657 318.378 275.362C308.501 255.608 298.624 235.854 288.447 215.501C282.461 227.473 282.461 227.473 286.273 239.632C288.348 244.509 290.424 249.386 292.563 254.411C294.777 259.704 296.992 264.998 299.274 270.452C302.804 278.809 302.804 278.809 306.406 287.334C310.919 298.549 315.41 309.772 319.874 321.006C323.366 329.736 326.858 338.466 330.35 347.196C336.276 347.196 342.203 347.196 348.309 347.196C346.384 342.044 344.46 336.892 342.477 331.584C336.359 311.355 334.483 294.775 333.858 273.725C333.626 266.819 333.395 259.913 333.156 252.797C332.971 245.675 332.786 238.553 332.595 231.214C332.364 223.953 332.132 216.692 331.894 209.211C331.331 191.355 330.818 173.498 330.35 155.64Z" fill="#4C5D5D"/>
<path d="M216.613 263.388C214.637 263.388 212.662 263.388 210.627 263.388C206.433 307.835 220.379 337.921 240.557 377.124C246.484 377.124 252.41 377.124 258.516 377.124C254.528 350.728 244.95 327.644 234.197 303.42C232.511 299.558 230.825 295.696 229.088 291.717C224.956 282.262 220.788 272.823 216.613 263.388Z" fill="#6E8383"/>
<path d="M216.62 239.447C209.881 266.403 209.881 266.403 218.795 286.261C220.651 290.451 222.507 294.641 224.419 298.958C226.413 303.271 228.408 307.585 230.463 312.029C232.388 316.389 234.314 320.749 236.297 325.241C250.776 357.409 250.776 357.409 264.509 371.142C270.079 355.869 271.008 348.754 265.842 333.074C263.55 328.351 261.259 323.629 258.897 318.763C255.483 311.587 255.483 311.587 251.999 304.266C250.201 300.654 248.403 297.043 246.551 293.322C242.6 293.322 238.649 293.322 234.579 293.322C228.652 275.544 222.726 257.765 216.62 239.447Z" fill="#5C7070"/>
<path d="M324.39 389.09C318.464 389.09 312.538 389.09 306.432 389.09C306.432 398.967 306.432 408.844 306.432 419.02C308.407 419.02 310.383 419.02 312.418 419.02C314.393 430.873 316.369 442.726 318.404 454.937C334.207 449.011 350.011 443.085 366.293 436.979C360.367 433.028 354.44 429.077 348.335 425.007C342.104 415.181 336.093 405.21 330.376 395.076C328.401 393.101 326.425 391.125 324.39 389.09Z" fill="#3B4849"/>
<path d="M390.203 460.932C369.185 469.112 348.842 478.2 328.471 487.869C301.314 500.344 275.752 508.743 246.536 514.807C246.536 518.758 246.536 522.708 246.536 526.779C280.32 523.498 307.665 514.365 338.573 500.59C342.902 498.769 347.231 496.948 351.691 495.071C362.779 490.203 373.534 484.593 384.217 478.89C386.192 472.964 388.168 467.037 390.203 460.932Z" fill="#404E4F"/>
<path d="M246.565 221.484C240.639 223.46 234.713 225.435 228.607 227.471C230.583 237.348 232.558 247.225 234.593 257.401C238.544 257.401 242.495 257.401 246.565 257.401C247.221 261.012 247.877 264.624 248.553 268.345C257.98 315.863 257.98 315.863 276.496 335.221C271.41 297.583 263.661 255.675 246.565 221.484Z" fill="#2D3A3B"/>
<path d="M198.651 305.292C192.724 305.292 186.798 305.292 180.692 305.292C184.305 328.34 191.274 346.363 202.018 367.024C204.742 372.31 207.466 377.595 210.272 383.041C212.363 387.015 214.454 390.989 216.609 395.084C225.194 372.407 219.662 358.777 210.997 336.719C207.582 327.876 207.582 327.876 204.099 318.854C202.301 314.379 200.503 309.903 198.651 305.292Z" fill="#1B2325"/>
<path d="M174.73 197.543C166.829 197.543 158.927 197.543 150.786 197.543C150.786 213.346 150.786 229.15 150.786 245.432C158.688 245.432 166.589 245.432 174.73 245.432C174.73 229.629 174.73 213.825 174.73 197.543Z" fill="#A7B3B2"/>
<path d="M282.483 179.581C278.532 181.556 274.581 183.532 270.511 185.567C270.511 189.518 270.511 193.469 270.511 197.539C264.584 199.515 258.658 201.49 252.552 203.526C250.577 209.452 248.602 215.378 246.566 221.484C260.394 219.509 274.222 217.533 288.469 215.498C288.725 205.524 288.712 195.541 288.469 185.567C286.494 183.592 284.518 181.616 282.483 179.581Z" fill="#ACBFBD"/>
<path d="M174.73 191.556C160.513 190.433 160.513 190.433 144.8 191.556C132.828 209.514 132.828 209.514 135.072 225.602C136.307 230.17 137.542 234.738 138.814 239.445C144.74 239.445 150.666 239.445 156.772 239.445C154.797 225.617 152.821 211.789 150.786 197.542C158.688 195.566 166.589 193.591 174.73 191.556Z" fill="#6C6C6C"/>
<path d="M246.543 197.543C234.69 201.494 222.838 205.445 210.626 209.515C210.626 217.417 210.626 225.319 210.626 233.46C222.479 229.509 234.331 225.558 246.543 221.487C246.543 213.586 246.543 205.684 246.543 197.543Z" fill="#707474"/>
<path d="M318.391 143.664C304.563 143.664 290.735 143.664 276.488 143.664C276.488 155.517 276.488 167.369 276.488 179.581C282.414 177.605 288.34 175.63 294.446 173.595C296.422 167.668 298.397 161.742 300.432 155.636C306.359 155.636 312.285 155.636 318.391 155.636C318.391 151.685 318.391 147.735 318.391 143.664Z" fill="#2B3738"/>
<path d="M324.364 299.305C320.413 299.305 316.462 299.305 312.392 299.305C323.616 333.725 323.616 333.725 330.35 347.194C336.276 347.194 342.203 347.194 348.309 347.194C344.358 335.341 340.407 323.489 336.336 311.277C332.386 311.277 328.435 311.277 324.364 311.277C324.364 307.326 324.364 303.375 324.364 299.305Z" fill="#3B4A4A"/>
<path d="M270.492 155.64C262.591 155.64 254.689 155.64 246.548 155.64C246.548 165.517 246.548 175.394 246.548 185.57C254.449 185.57 262.351 185.57 270.492 185.57C270.492 175.693 270.492 165.816 270.492 155.64Z" fill="#BACAC8"/>
<path d="M192.69 257.4C186.763 259.376 180.837 261.351 174.731 263.387C174.731 267.337 174.731 271.288 174.731 275.359C170.78 277.334 166.83 279.31 162.759 281.345C166.71 285.296 170.661 289.247 174.731 293.317C174.731 289.366 174.731 285.415 174.731 281.345C180.658 283.32 186.584 285.296 192.69 287.331C196.057 275.733 196.057 275.733 198.676 263.387C196.7 261.411 194.725 259.436 192.69 257.4Z" fill="#313D3E"/>
<g opacity="0.5">
<mask id="mask0_7584_2243" style="mask-type:alpha" maskUnits="userSpaceOnUse" x="281" y="468" width="1253" height="2049">
<ellipse cx="251.203" cy="1173.14" rx="251.203" ry="1173.14" transform="matrix(0.866025 -0.5 -0.5 -0.866025 1276.29 2634.36)" fill="url(#paint1_linear_7584_2243)"/>
</mask>
<g mask="url(#mask0_7584_2243)">
<rect width="1135.88" height="1641.38" transform="matrix(0.866025 -0.5 -0.5 -0.866025 421.078 1779.3)" fill="url(#paint2_linear_7584_2243)"/>
</g>
</g>
<path d="M420.16 425.016C380.544 425.016 351.718 436.303 316.899 453.824C312.798 455.88 308.697 457.937 304.471 460.056C281.152 472.181 260.015 484.866 240.576 502.835C240.576 506.786 240.576 510.737 240.576 514.808C280.193 514.808 309.018 503.52 343.837 485.999C347.938 483.943 352.04 481.886 356.265 479.768C379.584 467.642 400.721 454.957 420.16 436.988C420.16 433.037 420.16 429.086 420.16 425.016Z" fill="#F5F6F6"/>
<path d="M294.424 454.943C276.645 464.82 258.866 474.698 240.549 484.874C242.524 490.8 244.5 496.727 246.535 502.832C264.314 490.98 282.093 479.127 300.41 466.916C298.435 462.965 296.459 459.014 294.424 454.943Z" fill="#4F6060"/>
<path d="M318.378 389.09C314.427 389.09 310.476 389.09 306.405 389.09C306.405 398.967 306.405 408.844 306.405 419.02C308.381 419.02 310.356 419.02 312.391 419.02C314.367 430.873 316.342 442.726 318.378 454.937C324.304 450.986 330.23 447.036 336.336 442.965C325.112 402.559 325.112 402.559 318.378 389.09Z" fill="#B4C2AD"/>
<path d="M330.355 377.124C326.404 379.099 322.453 381.075 318.382 383.11C321.098 386.567 323.815 390.024 326.613 393.586C335.39 405.738 342.019 417.443 348.313 430.999C352.264 429.024 356.215 427.048 360.285 425.013C357.039 402.29 347.108 392.256 330.355 377.124Z" fill="#2F3C3E"/>
<path d="M4198.4 149.652C4213 150.401 4213 150.401 4228.33 155.638C4238.88 172.902 4240.74 182.319 4238.06 202.405C4236.21 208.887 4236.21 208.887 4234.32 215.5C4252.1 217.475 4269.88 219.451 4288.2 221.486C4294.18 239.444 4294.18 239.444 4288.2 257.403C4284.25 257.403 4280.29 257.403 4276.22 257.403C4275.64 260.736 4275.05 264.07 4274.45 267.504C4267.77 301.587 4256.93 328.684 4240.31 359.167C4245.68 361.759 4245.68 361.759 4251.16 364.405C4264.25 371.139 4264.25 371.139 4282.21 383.111C4294.57 380.196 4294.57 380.196 4306.15 371.139C4310.21 350.767 4310.21 350.767 4312.14 329.236C4318.5 314.645 4318.5 314.645 4324.11 305.292C4330.04 305.292 4335.97 305.292 4342.07 305.292C4338.57 328.137 4331.71 344.73 4320.37 364.779C4307.26 390.36 4303.9 402.76 4312.14 431C4322.56 496.311 4322.56 496.311 4306.15 526.778C4273.33 541.059 4235.55 520.451 4204.39 508.82C4154.85 488.176 4110.55 463.688 4072.7 425.014C4081.12 398.214 4092.96 383.03 4114.6 365.153C4133.65 355.974 4153.01 347.194 4174.46 347.194C4183.86 322.07 4188.06 300.712 4188.7 273.935C4188.9 267.055 4189.11 260.176 4189.32 253.088C4189.48 245.993 4189.64 238.898 4189.8 231.587C4190.16 217.393 4190.54 203.199 4190.94 189.006C4191.09 182.746 4191.23 176.485 4191.38 170.035C4192.42 155.638 4192.42 155.638 4198.4 149.652Z" fill="#283335"/>
<path d="M4252.26 155.64C4266.09 155.64 4279.92 155.64 4294.17 155.64C4294.17 163.541 4294.17 171.443 4294.17 179.584C4300.09 179.584 4306.02 179.584 4312.12 179.584C4318.3 323.222 4318.3 323.222 4282.19 377.126C4264.46 373.458 4255.97 369.621 4240.29 359.168C4251.39 324.931 4263.82 291.192 4276.21 257.404C4280.16 257.404 4284.11 257.404 4288.18 257.404C4288.18 247.527 4288.18 237.65 4288.18 227.473C4261.51 221.547 4261.51 221.547 4234.3 215.501C4234.3 205.624 4234.3 195.747 4234.3 185.57C4238.26 183.595 4242.21 181.619 4246.28 179.584C4250.18 167.464 4250.18 167.464 4252.26 155.64Z" fill="#4C5E5D"/>
<path d="M4258.25 0C4270.11 0 4281.96 0 4294.17 0C4294.17 47.4101 4294.17 94.8202 4294.17 143.667C4282.32 143.667 4270.47 143.667 4258.25 143.667C4258.25 96.2569 4258.25 48.8468 4258.25 0Z" fill="#C4D3D0"/>
<path d="M4240.3 215.497C4258.08 218.46 4258.08 218.46 4276.22 221.483C4270.78 239.456 4265.49 255.375 4255.64 271.43C4245.9 287.988 4239.52 304.012 4233.19 322.125C4231.13 327.966 4229.07 333.808 4226.95 339.826C4225.43 344.232 4223.91 348.638 4222.34 353.178C4212.46 351.203 4202.59 349.227 4192.41 347.192C4205.07 302.119 4219.31 257.48 4240.3 215.497Z" fill="#1A2224"/>
<path d="M4204.38 143.664C4214.55 144.416 4214.55 144.416 4224.91 145.184C4233.78 145.802 4242.65 146.417 4251.52 147.031C4255.99 147.367 4260.46 147.703 4265.06 148.048C4289.33 150.452 4289.33 150.452 4312.13 143.664C4320.45 168.616 4320.22 193.759 4321.22 219.847C4321.76 230.399 4322.89 240.918 4324.11 251.414C4328.06 253.39 4332.01 255.365 4336.08 257.4C4334.1 265.302 4332.13 273.204 4330.09 281.345C4334.04 281.345 4337.99 281.345 4342.06 281.345C4342.06 285.296 4342.06 289.247 4342.06 293.317C4336.14 293.317 4330.21 293.317 4324.11 293.317C4320.15 297.268 4316.2 301.219 4312.13 305.289C4312.13 263.806 4312.13 222.322 4312.13 179.581C4302.26 181.556 4292.38 183.532 4282.2 185.567C4282.2 175.69 4282.2 165.813 4282.2 155.636C4272.33 155.636 4262.45 155.636 4252.27 155.636C4252.27 165.513 4252.27 175.391 4252.27 185.567C4240.67 180.703 4240.67 180.703 4228.33 173.595C4226.35 167.668 4224.38 161.742 4222.34 155.636C4216.41 155.636 4210.49 155.636 4204.38 155.636C4204.38 151.685 4204.38 147.735 4204.38 143.664Z" fill="#192022"/>
<path d="M4252.26 155.64C4266.09 155.64 4279.92 155.64 4294.17 155.64C4294.17 163.541 4294.17 171.443 4294.17 179.584C4300.09 179.584 4306.02 179.584 4312.12 179.584C4312.12 189.461 4312.12 199.338 4312.12 209.515C4294.35 206.552 4294.35 206.552 4276.21 203.529C4276.21 209.455 4276.21 215.381 4276.21 221.487C4262.38 219.512 4248.55 217.536 4234.3 215.501C4234.3 205.624 4234.3 195.747 4234.3 185.57C4238.26 183.595 4242.21 181.619 4246.28 179.584C4250.18 167.464 4250.18 167.464 4252.26 155.64Z" fill="#909F9E"/>
<path d="M4258.25 0C4264.18 0 4270.11 0 4276.21 0C4276.21 47.4101 4276.21 94.8202 4276.21 143.667C4270.29 143.667 4264.36 143.667 4258.25 143.667C4258.25 96.2569 4258.25 48.8468 4258.25 0Z" fill="#A5B7B5"/>
<path d="M4192.42 155.64C4194.4 155.64 4196.37 155.64 4198.41 155.64C4200.38 195.148 4202.36 234.657 4204.4 275.362C4214.27 255.608 4224.15 235.854 4234.33 215.501C4240.31 227.473 4240.31 227.473 4236.5 239.632C4234.43 244.509 4232.35 249.386 4230.21 254.411C4228 259.704 4225.78 264.998 4223.5 270.452C4219.97 278.809 4219.97 278.809 4216.37 287.334C4211.85 298.549 4207.36 309.772 4202.9 321.006C4199.41 329.736 4195.92 338.466 4192.42 347.196C4186.5 347.196 4180.57 347.196 4174.46 347.196C4176.39 342.044 4178.31 336.892 4180.3 331.584C4186.41 311.355 4188.29 294.775 4188.92 273.725C4189.15 266.819 4189.38 259.913 4189.62 252.797C4189.8 245.675 4189.99 238.553 4190.18 231.214C4190.41 223.953 4190.64 216.692 4190.88 209.211C4191.44 191.355 4191.96 173.498 4192.42 155.64Z" fill="#4C5D5D"/>
<path d="M4306.16 263.388C4308.14 263.388 4310.12 263.388 4312.15 263.388C4316.34 307.835 4302.4 337.921 4282.22 377.124C4276.29 377.124 4270.37 377.124 4264.26 377.124C4268.25 350.728 4277.83 327.644 4288.58 303.42C4290.27 299.558 4291.95 295.696 4293.69 291.717C4297.82 282.262 4301.99 272.823 4306.16 263.388Z" fill="#6E8383"/>
<path d="M4306.15 239.447C4312.89 266.403 4312.89 266.403 4303.98 286.261C4302.12 290.451 4300.27 294.641 4298.35 298.958C4296.36 303.271 4294.37 307.585 4292.31 312.029C4290.38 316.389 4288.46 320.749 4286.48 325.241C4272 357.409 4272 357.409 4258.26 371.142C4252.69 355.869 4251.77 348.754 4256.93 333.074C4259.22 328.351 4261.51 323.629 4263.88 318.763C4267.29 311.587 4267.29 311.587 4270.77 304.266C4272.57 300.654 4274.37 297.043 4276.22 293.322C4280.17 293.322 4284.12 293.322 4288.19 293.322C4294.12 275.544 4300.05 257.765 4306.15 239.447Z" fill="#5C7070"/>
<path d="M4198.39 389.09C4204.31 389.09 4210.24 389.09 4216.35 389.09C4216.35 398.967 4216.35 408.844 4216.35 419.02C4214.37 419.02 4212.39 419.02 4210.36 419.02C4208.38 430.873 4206.41 442.726 4204.37 454.937C4188.57 449.011 4172.77 443.085 4156.48 436.979C4162.41 433.028 4168.34 429.077 4174.44 425.007C4180.67 415.181 4186.68 405.21 4192.4 395.076C4194.38 393.101 4196.35 391.125 4198.39 389.09Z" fill="#3B4849"/>
<path d="M4132.53 460.932C4153.55 469.112 4173.89 478.2 4194.26 487.869C4221.42 500.344 4246.98 508.743 4276.2 514.807C4276.2 518.758 4276.2 522.708 4276.2 526.779C4242.41 523.498 4215.07 514.365 4184.16 500.59C4179.83 498.769 4175.5 496.948 4171.04 495.071C4159.96 490.203 4149.2 484.593 4138.52 478.89C4136.54 472.964 4134.57 467.037 4132.53 460.932Z" fill="#404E4F"/>
<path d="M4276.21 221.484C4282.13 223.46 4288.06 225.435 4294.17 227.471C4292.19 237.348 4290.22 247.225 4288.18 257.401C4284.23 257.401 4280.28 257.401 4276.21 257.401C4275.55 261.012 4274.9 264.624 4274.22 268.345C4264.79 315.863 4264.79 315.863 4246.28 335.221C4251.36 297.583 4259.11 255.675 4276.21 221.484Z" fill="#2D3A3B"/>
<path d="M4324.09 305.292C4330.01 305.292 4335.94 305.292 4342.05 305.292C4338.43 328.34 4331.46 346.363 4320.72 367.024C4318 372.31 4315.27 377.595 4312.47 383.041C4310.38 387.015 4308.28 390.989 4306.13 395.084C4297.54 372.407 4303.08 358.777 4311.74 336.719C4315.16 327.876 4315.16 327.876 4318.64 318.854C4320.44 314.379 4322.24 309.903 4324.09 305.292Z" fill="#1B2325"/>
<path d="M4348.05 197.543C4355.95 197.543 4363.85 197.543 4371.99 197.543C4371.99 213.346 4371.99 229.15 4371.99 245.432C4364.09 245.432 4356.19 245.432 4348.05 245.432C4348.05 229.629 4348.05 213.825 4348.05 197.543Z" fill="#A7B3B2"/>
<path d="M4240.29 179.581C4244.25 181.556 4248.2 183.532 4252.27 185.567C4252.27 189.518 4252.27 193.469 4252.27 197.539C4258.19 199.515 4264.12 201.49 4270.22 203.526C4272.2 209.452 4274.18 215.378 4276.21 221.484C4262.38 219.509 4248.56 217.533 4234.31 215.498C4234.05 205.524 4234.06 195.541 4234.31 185.567C4236.28 183.592 4238.26 181.616 4240.29 179.581Z" fill="#ACBFBD"/>
<path d="M4348.05 191.556C4362.26 190.433 4362.26 190.433 4377.98 191.556C4389.95 209.514 4389.95 209.514 4387.7 225.602C4386.47 230.17 4385.24 234.738 4383.96 239.445C4378.04 239.445 4372.11 239.445 4366.01 239.445C4367.98 225.617 4369.96 211.789 4371.99 197.542C4364.09 195.566 4356.19 193.591 4348.05 191.556Z" fill="#6C6C6C"/>
<path d="M4276.23 197.543C4288.09 201.494 4299.94 205.445 4312.15 209.515C4312.15 217.417 4312.15 225.319 4312.15 233.46C4300.3 229.509 4288.45 225.558 4276.23 221.487C4276.23 213.586 4276.23 205.684 4276.23 197.543Z" fill="#707474"/>
<path d="M4204.38 143.664C4218.21 143.664 4232.04 143.664 4246.29 143.664C4246.29 155.517 4246.29 167.369 4246.29 179.581C4240.36 177.605 4234.43 175.63 4228.33 173.595C4226.35 167.668 4224.38 161.742 4222.34 155.636C4216.41 155.636 4210.49 155.636 4204.38 155.636C4204.38 151.685 4204.38 147.735 4204.38 143.664Z" fill="#2B3738"/>
<path d="M4198.41 299.305C4202.36 299.305 4206.31 299.305 4210.38 299.305C4199.16 333.725 4199.16 333.725 4192.42 347.194C4186.5 347.194 4180.57 347.194 4174.46 347.194C4178.42 335.341 4182.37 323.489 4186.44 311.277C4190.39 311.277 4194.34 311.277 4198.41 311.277C4198.41 307.326 4198.41 303.375 4198.41 299.305Z" fill="#3B4A4A"/>
<path d="M4252.29 155.64C4260.19 155.64 4268.09 155.64 4276.23 155.64C4276.23 165.517 4276.23 175.394 4276.23 185.57C4268.33 185.57 4260.43 185.57 4252.29 185.57C4252.29 175.693 4252.29 165.816 4252.29 155.64Z" fill="#BACAC8"/>
<path d="M4330.08 257.4C4336.01 259.376 4341.94 261.351 4348.04 263.387C4348.04 267.337 4348.04 271.288 4348.04 275.359C4351.99 277.334 4355.94 279.31 4360.01 281.345C4356.06 285.296 4352.11 289.247 4348.04 293.317C4348.04 289.366 4348.04 285.415 4348.04 281.345C4342.12 283.32 4336.19 285.296 4330.08 287.331C4326.72 275.733 4326.72 275.733 4324.1 263.387C4326.07 261.411 4328.05 259.436 4330.08 257.4Z" fill="#313D3E"/>
<g opacity="0.5">
<mask id="mask1_7584_2243" style="mask-type:alpha" maskUnits="userSpaceOnUse" x="2989" y="468" width="1253" height="2049">
<ellipse cx="3615.51" cy="1492.8" rx="251.203" ry="1173.14" transform="rotate(-150 3615.51 1492.8)" fill="url(#paint3_linear_7584_2243)"/>
</mask>
<g mask="url(#mask1_7584_2243)">
<rect x="4101.7" y="1779.31" width="1135.88" height="1641.38" transform="rotate(-150 4101.7 1779.31)" fill="url(#paint4_linear_7584_2243)"/>
</g>
</g>
<path d="M4102.61 425.016C4142.23 425.016 4171.06 436.303 4205.87 453.824C4209.98 455.88 4214.08 457.937 4218.3 460.056C4241.62 472.181 4262.76 484.866 4282.2 502.835C4282.2 506.786 4282.2 510.737 4282.2 514.808C4242.58 514.808 4213.76 503.52 4178.94 485.999C4174.84 483.943 4170.73 481.886 4166.51 479.768C4143.19 467.642 4122.05 454.957 4102.61 436.988C4102.61 433.037 4102.61 429.086 4102.61 425.016Z" fill="#F5F6F6"/>
<path d="M4228.31 454.943C4246.09 464.82 4263.87 474.698 4282.19 484.874C4280.21 490.8 4278.24 496.727 4276.2 502.832C4258.42 490.98 4240.65 479.127 4222.33 466.916C4224.3 462.965 4226.28 459.014 4228.31 454.943Z" fill="#4F6060"/>
<path d="M4204.4 389.09C4208.35 389.09 4212.3 389.09 4216.37 389.09C4216.37 398.967 4216.37 408.844 4216.37 419.02C4214.39 419.02 4212.42 419.02 4210.38 419.02C4208.41 430.873 4206.43 442.726 4204.4 454.937C4198.47 450.986 4192.54 447.036 4186.44 442.965C4197.66 402.559 4197.66 402.559 4204.4 389.09Z" fill="#B4C2AD"/>
<path d="M4192.42 377.124C4196.37 379.099 4200.32 381.075 4204.39 383.11C4201.67 386.567 4198.96 390.024 4196.16 393.586C4187.38 405.738 4180.75 417.443 4174.46 430.999C4170.51 429.024 4166.56 427.048 4162.49 425.013C4165.73 402.29 4175.67 392.256 4192.42 377.124Z" fill="#2F3C3E"/>
<defs>
<filter id="filter0_d_7584_2243" x="2860" y="3595" width="185.121" height="174.099" filterUnits="userSpaceOnUse" color-interpolation-filters="sRGB">
<feFlood flood-opacity="0" result="BackgroundImageFix"/>
<feColorMatrix in="SourceAlpha" type="matrix" values="0 0 0 0 0 0 0 0 0 0 0 0 0 0 0 0 0 0 127 0" result="hardAlpha"/>
<feOffset dy="20"/>
<feGaussianBlur stdDeviation="10"/>
<feComposite in2="hardAlpha" operator="out"/>
<feColorMatrix type="matrix" values="0 0 0 0 0 0 0 0 0 0 0 0 0 0 0 0 0 0 0.25 0"/>
<feBlend mode="normal" in2="BackgroundImageFix" result="effect1_dropShadow_7584_2243"/>
<feBlend mode="normal" in="SourceGraphic" in2="effect1_dropShadow_7584_2243" result="shape"/>
</filter>
<filter id="filter1_d_7584_2243" x="3721" y="3811" width="154" height="145" filterUnits="userSpaceOnUse" color-interpolation-filters="sRGB">
<feFlood flood-opacity="0" result="BackgroundImageFix"/>
<feColorMatrix in="SourceAlpha" type="matrix" values="0 0 0 0 0 0 0 0 0 0 0 0 0 0 0 0 0 0 127 0" result="hardAlpha"/>
<feOffset dy="20"/>
<feGaussianBlur stdDeviation="10"/>
<feComposite in2="hardAlpha" operator="out"/>
<feColorMatrix type="matrix" values="0 0 0 0 0 0 0 0 0 0 0 0 0 0 0 0 0 0 0.25 0"/>
<feBlend mode="normal" in2="BackgroundImageFix" result="effect1_dropShadow_7584_2243"/>
<feBlend mode="normal" in="SourceGraphic" in2="effect1_dropShadow_7584_2243" result="shape"/>
</filter>
<filter id="filter2_d_7584_2243" x="3886" y="3916" width="115.734" height="109.91" filterUnits="userSpaceOnUse" color-interpolation-filters="sRGB">
<feFlood flood-opacity="0" result="BackgroundImageFix"/>
<feColorMatrix in="SourceAlpha" type="matrix" values="0 0 0 0 0 0 0 0 0 0 0 0 0 0 0 0 0 0 127 0" result="hardAlpha"/>
<feOffset dy="20"/>
<feGaussianBlur stdDeviation="10"/>
<feComposite in2="hardAlpha" operator="out"/>
<feColorMatrix type="matrix" values="0 0 0 0 0 0 0 0 0 0 0 0 0 0 0 0 0 0 0.25 0"/>
<feBlend mode="normal" in2="BackgroundImageFix" result="effect1_dropShadow_7584_2243"/>
<feBlend mode="normal" in="SourceGraphic" in2="effect1_dropShadow_7584_2243" result="shape"/>
</filter>
<filter id="filter3_d_7584_2243" x="3122" y="3525" width="115.734" height="109.909" filterUnits="userSpaceOnUse" color-interpolation-filters="sRGB">
<feFlood flood-opacity="0" result="BackgroundImageFix"/>
<feColorMatrix in="SourceAlpha" type="matrix" values="0 0 0 0 0 0 0 0 0 0 0 0 0 0 0 0 0 0 127 0" result="hardAlpha"/>
<feOffset dy="20"/>
<feGaussianBlur stdDeviation="10"/>
<feComposite in2="hardAlpha" operator="out"/>
<feColorMatrix type="matrix" values="0 0 0 0 0 0 0 0 0 0 0 0 0 0 0 0 0 0 0.25 0"/>
<feBlend mode="normal" in2="BackgroundImageFix" result="effect1_dropShadow_7584_2243"/>
<feBlend mode="normal" in="SourceGraphic" in2="effect1_dropShadow_7584_2243" result="shape"/>
</filter>
<filter id="filter4_d_7584_2243" x="3258" y="3694" width="115.734" height="109.909" filterUnits="userSpaceOnUse" color-interpolation-filters="sRGB">
<feFlood flood-opacity="0" result="BackgroundImageFix"/>
<feColorMatrix in="SourceAlpha" type="matrix" values="0 0 0 0 0 0 0 0 0 0 0 0 0 0 0 0 0 0 127 0" result="hardAlpha"/>
<feOffset dy="20"/>
<feGaussianBlur stdDeviation="10"/>
<feComposite in2="hardAlpha" operator="out"/>
<feColorMatrix type="matrix" values="0 0 0 0 0 0 0 0 0 0 0 0 0 0 0 0 0 0 0.25 0"/>
<feBlend mode="normal" in2="BackgroundImageFix" result="effect1_dropShadow_7584_2243"/>
<feBlend mode="normal" in="SourceGraphic" in2="effect1_dropShadow_7584_2243" result="shape"/>
</filter>
<filter id="filter5_d_7584_2243" x="547" y="3290" width="1523" height="595.999" filterUnits="userSpaceOnUse" color-interpolation-filters="sRGB">
<feFlood flood-opacity="0" result="BackgroundImageFix"/>
<feColorMatrix in="SourceAlpha" type="matrix" values="0 0 0 0 0 0 0 0 0 0 0 0 0 0 0 0 0 0 127 0" result="hardAlpha"/>
<feOffset dy="20"/>
<feGaussianBlur stdDeviation="10"/>
<feComposite in2="hardAlpha" operator="out"/>
<feColorMatrix type="matrix" values="0 0 0 0 0 0 0 0 0 0 0 0 0 0 0 0 0 0 0.25 0"/>
<feBlend mode="normal" in2="BackgroundImageFix" result="effect1_dropShadow_7584_2243"/>
<feBlend mode="normal" in="SourceGraphic" in2="effect1_dropShadow_7584_2243" result="shape"/>
</filter>
<linearGradient id="paint0_linear_7584_2243" x1="2348.1" y1="3170" x2="2348.1" y2="4521.38" gradientUnits="userSpaceOnUse">
<stop stop-color="white"/>
<stop offset="1" stop-color="white" stop-opacity="0.6"/>
</linearGradient>
<linearGradient id="paint1_linear_7584_2243" x1="251.203" y1="2346.27" x2="251.203" y2="0" gradientUnits="userSpaceOnUse">
<stop stop-color="#FFDB59" stop-opacity="0.97"/>
<stop offset="1" stop-color="#737373" stop-opacity="0"/>
</linearGradient>
<linearGradient id="paint2_linear_7584_2243" x1="567.938" y1="1641.38" x2="567.938" y2="0" gradientUnits="userSpaceOnUse">
<stop stop-color="#FFDB59" stop-opacity="0.97"/>
<stop offset="0.6" stop-color="#FBF6E9" stop-opacity="0"/>
</linearGradient>
<linearGradient id="paint3_linear_7584_2243" x1="3615.51" y1="2665.93" x2="3615.51" y2="319.662" gradientUnits="userSpaceOnUse">
<stop stop-color="#FFDB59" stop-opacity="0.97"/>
<stop offset="1" stop-color="#737373" stop-opacity="0"/>
</linearGradient>
<linearGradient id="paint4_linear_7584_2243" x1="4669.64" y1="3420.69" x2="4669.64" y2="1779.31" gradientUnits="userSpaceOnUse">
<stop stop-color="#FFDB59" stop-opacity="0.97"/>
<stop offset="0.6" stop-color="#FBF6E9" stop-opacity="0"/>
</linearGradient>
</defs>
</svg>
