<svg width="1024" height="1024" viewBox="0 0 1024 1024" fill="none" xmlns="http://www.w3.org/2000/svg">
<g clip-path="url(#clip0_1198_34)">
<path d="M703 802C852.056 776.689 929 750 1023 714.5V1027H0V851.5C131.5 851.5 491 838 703 802Z" fill="#FFFFF2"/>
<path d="M208.365 1107.05C208.581 1097.78 202.981 1086.54 199.746 1078.18C193.826 1062.87 186.3 1048.06 177.623 1034.13C159.879 1005.66 135.249 977.454 106.21 960.02C85.3744 947.511 36.7607 937.227 29.9497 971.662C22.4264 1009.7 65.3986 1020.22 93.7989 1008.48C133.795 991.947 158.447 941.449 166.431 901.081C171.878 873.546 167.198 844.532 143.235 827.927C117.256 809.923 89.2194 800.114 57.5589 798.647C34.3221 797.57 8.78523 797.449 -12.5693 808.249C-22.2045 813.123 -31.767 823.78 -34.3693 834.349C-35.6236 839.443 -38.7942 851.862 -32.1782 854.875C-18.4082 861.146 5.36753 847.929 15.8716 840.546C40.9682 822.905 62.3555 796.466 72.9791 767.692C80.4142 747.555 81.9433 721.082 71.9239 701.374C51.8775 661.941 8.32104 653.058 -30.3563 641.627" stroke="#D1A8AA" stroke-width="13.7291" stroke-linecap="round"/>
<g clip-path="url(#clip1_1198_34)">
<path d="M256.147 929.347H243.925L233.543 911.167L243.925 892.986H264.679L275.05 911.167L260.407 936.833L275.05 962.5H304.357L319 936.833L304.357 911.167H292.135L287.906 918.653H300.065L310.447 936.833L300.065 955.014H279.321L268.95 936.833L283.603 911.167L268.95 885.5H239.653L225 911.167L239.653 936.833H251.875L256.147 929.347Z" fill="#373737"/>
</g>
<path d="M344.839 913.248C344.839 908.448 345.735 903.904 347.527 899.616C349.383 895.328 351.943 891.52 355.207 888.192C358.471 884.864 362.247 882.272 366.535 880.416C370.823 878.496 375.431 877.536 380.359 877.536C385.223 877.536 389.799 878.496 394.087 880.416C398.375 882.272 402.183 884.864 405.511 888.192C408.839 891.52 411.431 895.328 413.287 899.616C415.143 903.904 416.071 908.448 416.071 913.248C416.071 918.176 415.143 922.784 413.287 927.072C411.431 931.36 408.839 935.136 405.511 938.4C402.247 941.664 398.439 944.224 394.087 946.08C389.799 947.872 385.223 948.768 380.359 948.768C375.431 948.768 370.823 947.872 366.535 946.08C362.247 944.288 358.471 941.792 355.207 938.592C351.943 935.328 349.383 931.552 347.527 927.264C345.735 922.912 344.839 918.24 344.839 913.248ZM355.399 913.248C355.399 916.832 356.039 920.192 357.319 923.328C358.663 926.4 360.487 929.12 362.791 931.488C365.095 933.792 367.751 935.616 370.759 936.96C373.831 938.24 377.127 938.88 380.647 938.88C384.103 938.88 387.335 938.24 390.343 936.96C393.351 935.616 395.975 933.792 398.215 931.488C400.519 929.12 402.311 926.4 403.591 923.328C404.871 920.192 405.511 916.832 405.511 913.248C405.511 909.664 404.839 906.336 403.495 903.264C402.215 900.128 400.423 897.376 398.119 895.008C395.879 892.64 393.223 890.784 390.151 889.44C387.143 888.096 383.911 887.424 380.455 887.424C376.871 887.424 373.575 888.096 370.567 889.44C367.559 890.784 364.903 892.64 362.599 895.008C360.295 897.376 358.503 900.128 357.223 903.264C356.007 906.4 355.399 909.728 355.399 913.248ZM439.922 907.776L440.882 919.296L440.402 917.76C441.49 915.328 443.026 913.248 445.01 911.52C446.994 909.792 449.042 908.48 451.154 907.584C453.33 906.624 455.154 906.144 456.626 906.144L456.146 915.936C453.074 915.744 450.386 916.32 448.082 917.664C445.842 919.008 444.082 920.8 442.802 923.04C441.522 925.28 440.882 927.68 440.882 930.24V948H431.09V907.776H439.922ZM487.752 967.968C484.616 967.968 481.896 967.616 479.592 966.912C477.288 966.208 475.208 965.216 473.352 963.936C471.56 962.72 469.832 961.408 468.168 960L474.024 953.184C476.008 955.04 478.056 956.512 480.168 957.6C482.28 958.752 484.744 959.328 487.56 959.328C490.376 959.328 492.776 958.848 494.76 957.888C496.808 956.992 498.376 955.712 499.464 954.048C500.552 952.384 501.096 950.4 501.096 948.096L501.192 937.632L501.864 939.552C500.776 942.176 498.76 944.416 495.816 946.272C492.872 948.064 489.256 948.96 484.968 948.96C481.32 948.96 477.928 948.032 474.792 946.176C471.72 944.32 469.256 941.792 467.4 938.592C465.544 935.392 464.616 931.776 464.616 927.744C464.616 923.52 465.576 919.808 467.496 916.608C469.48 913.344 472.072 910.784 475.272 908.928C478.472 907.008 481.896 906.048 485.544 906.048C489.128 906.048 492.328 906.752 495.144 908.16C497.96 909.504 500.072 911.2 501.48 913.248L500.904 914.88L501.96 907.776H511.08V948.192C511.08 951.904 510.088 955.232 508.104 958.176C506.184 961.184 503.496 963.552 500.04 965.28C496.584 967.072 492.488 967.968 487.752 967.968ZM474.6 927.456C474.6 929.952 475.176 932.224 476.328 934.272C477.48 936.32 479.048 937.952 481.032 939.168C483.08 940.32 485.352 940.896 487.848 940.896C490.088 940.896 492.104 940.512 493.896 939.744C495.688 938.912 497.192 937.824 498.408 936.48C499.688 935.072 500.616 933.44 501.192 931.584V923.232C500.616 921.376 499.688 919.808 498.408 918.528C497.128 917.184 495.592 916.128 493.8 915.36C492.008 914.592 490.024 914.208 487.848 914.208C485.352 914.208 483.08 914.784 481.032 915.936C479.048 917.024 477.48 918.56 476.328 920.544C475.176 922.528 474.6 924.832 474.6 927.456ZM544.917 948.96C541.141 948.96 537.717 948.192 534.645 946.656C531.573 945.056 529.141 942.688 527.349 939.552C525.557 936.416 524.661 932.544 524.661 927.936C524.661 923.392 525.589 919.488 527.445 916.224C529.365 912.96 531.861 910.464 534.933 908.736C538.069 906.944 541.461 906.048 545.109 906.048C548.949 906.048 552.085 906.88 554.517 908.544C557.013 910.144 558.965 912.032 560.373 914.208L559.701 915.744L560.661 907.776H569.781V948H559.893V937.92L560.949 940.32C560.693 940.832 560.149 941.568 559.317 942.528C558.485 943.424 557.365 944.384 555.957 945.408C554.613 946.432 553.013 947.296 551.157 948C549.365 948.64 547.285 948.96 544.917 948.96ZM547.605 940.896C549.717 940.896 551.605 940.512 553.269 939.744C554.933 938.976 556.341 937.888 557.493 936.48C558.645 935.072 559.445 933.408 559.893 931.488V923.136C559.381 921.344 558.517 919.808 557.301 918.528C556.085 917.184 554.613 916.128 552.885 915.36C551.221 914.592 549.365 914.208 547.317 914.208C545.013 914.208 542.901 914.784 540.981 915.936C539.061 917.024 537.525 918.56 536.373 920.544C535.221 922.528 534.645 924.832 534.645 927.456C534.645 929.952 535.221 932.224 536.373 934.272C537.589 936.32 539.189 937.952 541.173 939.168C543.157 940.32 545.301 940.896 547.605 940.896ZM595.682 907.776L596.546 916.992L596.162 915.744C597.506 912.864 599.586 910.56 602.402 908.832C605.218 907.04 608.546 906.144 612.386 906.144C616.162 906.144 619.266 907.264 621.698 909.504C624.194 911.744 625.474 914.656 625.538 918.24V948H615.65V921.696C615.586 919.648 614.978 917.984 613.826 916.704C612.674 915.36 610.882 914.656 608.45 914.592C606.274 914.592 604.29 915.264 602.498 916.608C600.706 917.888 599.298 919.648 598.274 921.888C597.25 924.128 596.738 926.72 596.738 929.664V948H586.85V907.776H595.682ZM642.582 907.776H652.47V948H642.582V907.776ZM642.006 893.376C642.006 891.84 642.614 890.56 643.83 889.536C645.046 888.512 646.358 888 647.766 888C649.238 888 650.55 888.512 651.702 889.536C652.854 890.56 653.43 891.84 653.43 893.376C653.43 894.912 652.854 896.192 651.702 897.216C650.55 898.176 649.238 898.656 647.766 898.656C646.358 898.656 645.046 898.176 643.83 897.216C642.614 896.192 642.006 894.912 642.006 893.376ZM673.76 915.84C671.712 915.84 669.952 915.2 668.48 913.92C667.008 912.576 666.272 910.656 666.272 908.16V903.936H673.664V905.28C673.664 906.368 673.92 907.072 674.432 907.392C674.944 907.648 675.776 907.776 676.928 907.776H702.656L678.944 941.952L677.024 939.936H702.272V948H664.352L688.64 913.056L690.176 915.84H673.76ZM735.834 948.96C731.162 948.96 727.162 948.064 723.834 946.272C720.506 944.416 717.946 941.888 716.154 938.688C714.362 935.424 713.466 931.712 713.466 927.552C713.466 923.584 714.458 920 716.442 916.8C718.49 913.536 721.21 910.944 724.602 909.024C728.058 907.104 731.866 906.144 736.026 906.144C741.402 906.144 745.85 907.712 749.37 910.848C752.954 913.984 755.354 918.368 756.57 924L723.834 935.328L721.53 929.568L747.738 920.16L745.722 921.408C744.954 919.424 743.738 917.696 742.074 916.224C740.41 914.688 738.138 913.92 735.258 913.92C732.954 913.92 730.874 914.496 729.018 915.648C727.226 916.736 725.786 918.272 724.698 920.256C723.674 922.176 723.162 924.448 723.162 927.072C723.162 929.76 723.706 932.128 724.794 934.176C725.946 936.16 727.482 937.728 729.402 938.88C731.386 940.032 733.594 940.608 736.026 940.608C737.754 940.608 739.386 940.288 740.922 939.648C742.522 939.008 744.026 938.208 745.434 937.248L749.946 944.544C747.834 945.888 745.53 946.976 743.034 947.808C740.602 948.576 738.202 948.96 735.834 948.96ZM778.299 907.776L779.259 919.296L778.779 917.76C779.867 915.328 781.403 913.248 783.387 911.52C785.371 909.792 787.419 908.48 789.531 907.584C791.707 906.624 793.531 906.144 795.003 906.144L794.523 915.936C791.451 915.744 788.763 916.32 786.459 917.664C784.219 919.008 782.459 920.8 781.179 923.04C779.899 925.28 779.259 927.68 779.259 930.24V948H769.467V907.776H778.299Z" fill="#373737"/>
<path d="M799.186 1112.47C800.136 1100.63 806.735 1086.43 810.779 1075.84C818.181 1056.46 827.013 1037.75 836.805 1020.2C856.829 984.306 883.218 948.931 912.367 927.402C933.283 911.954 979.736 900.026 981.791 944.122C984.061 992.829 942.821 1005.2 917.886 989.528C882.77 967.455 866.128 902.43 863.719 850.738C862.075 815.478 870.026 778.58 894.355 757.984C920.732 735.654 948.004 723.827 977.608 722.732C999.335 721.928 1023.08 722.4 1041.59 736.701C1049.94 743.154 1057.5 756.983 1058.61 770.53C1059.14 777.059 1060.54 792.979 1054.02 796.661C1040.45 804.323 1019.99 786.88 1011.15 777.204C990.015 754.085 973.421 719.832 967.12 682.866C962.71 656.994 964.574 623.186 976.331 598.29C999.855 548.478 1041.43 538.212 1078.8 524.579" stroke="#D1A8AA" stroke-width="15.1265" stroke-linecap="round"/>
</g>
<defs>
<clipPath id="clip0_1198_34">
<rect width="1024" height="1024" fill="white"/>
</clipPath>
<clipPath id="clip1_1198_34">
<rect width="94" height="77" fill="white" transform="translate(225 885.5)"/>
</clipPath>
</defs>
</svg>
